ISO-10303-21;
HEADER;
/* Generated by software containing ST-Developer
 * from STEP Tools, Inc. (www.steptools.com) 
 */
/* OPTION: using custom renumber hook */

FILE_DESCRIPTION(
/* description */ ('STEP AP242',
'CAx-IF Rec.Pracs.---Representation and Presentation of Product Manufa
cturing Information (PMI)---4.0---2014-10-13',
'CAx-IF Rec.Pracs.---3D Tessellated Geometry---0.4---2014-09-14','2;1'),

/* implementation_level */ '2;1');

FILE_NAME(
/* name */ '68d65510748c97862087772d',
/* time_stamp */ '2025-09-26T08:55:45Z',
/* author */ (''),
/* organization */ (''),
/* preprocessor_version */ 'ST-DEVELOPER v20',
/* originating_system */ 'ONSHAPE BY PTC INC, 1.204',
/* authorisation */ '  ');

FILE_SCHEMA (('AP242_MANAGED_MODEL_BASED_3D_ENGINEERING_MIM_LF { 1 0 10303 442 1 1 4 }'));
ENDSEC;

DATA;
#10=SHAPE_REPRESENTATION_RELATIONSHIP('','',#687,#11);
#11=ADVANCED_BREP_SHAPE_REPRESENTATION('',(#685),#1133);
#12=ELLIPSE('',#703,0.0121716983750557,0.010541);
#13=ELLIPSE('',#713,0.0121716983750557,0.010541);
#14=ELLIPSE('',#721,0.0121716983750558,0.010541);
#15=ELLIPSE('',#729,0.0121716983750558,0.010541);
#16=CYLINDRICAL_SURFACE('',#701,0.010541);
#17=CYLINDRICAL_SURFACE('',#704,0.005334);
#18=CYLINDRICAL_SURFACE('',#706,0.0051562);
#19=CYLINDRICAL_SURFACE('',#711,0.010541);
#20=CYLINDRICAL_SURFACE('',#714,0.0051562);
#21=CYLINDRICAL_SURFACE('',#719,0.010541);
#22=CYLINDRICAL_SURFACE('',#722,0.0051562);
#23=CYLINDRICAL_SURFACE('',#727,0.010541);
#24=CYLINDRICAL_SURFACE('',#733,0.01778);
#25=CYLINDRICAL_SURFACE('',#736,0.01778);
#26=CYLINDRICAL_SURFACE('',#751,0.00955675);
#27=CYLINDRICAL_SURFACE('',#752,0.00955675);
#28=CIRCLE('',#690,0.01778);
#29=CIRCLE('',#691,0.00955675);
#30=CIRCLE('',#693,0.01778);
#31=CIRCLE('',#694,0.00955675);
#32=CIRCLE('',#696,0.01778);
#33=CIRCLE('',#697,0.00955675);
#34=CIRCLE('',#699,0.005334);
#35=CIRCLE('',#700,0.010541);
#36=CIRCLE('',#702,0.010541);
#37=CIRCLE('',#705,0.005334);
#38=CIRCLE('',#707,0.0051562);
#39=CIRCLE('',#708,0.0051562);
#40=CIRCLE('',#710,0.010541);
#41=CIRCLE('',#712,0.010541);
#42=CIRCLE('',#715,0.0051562);
#43=CIRCLE('',#716,0.0051562);
#44=CIRCLE('',#718,0.010541);
#45=CIRCLE('',#720,0.010541);
#46=CIRCLE('',#723,0.0051562);
#47=CIRCLE('',#724,0.0051562);
#48=CIRCLE('',#726,0.010541);
#49=CIRCLE('',#728,0.010541);
#50=CIRCLE('',#734,0.01778);
#51=CIRCLE('',#741,0.00955675);
#52=ORIENTED_EDGE('',*,*,#228,.F.);
#53=ORIENTED_EDGE('',*,*,#229,.T.);
#54=ORIENTED_EDGE('',*,*,#230,.F.);
#55=ORIENTED_EDGE('',*,*,#231,.F.);
#56=ORIENTED_EDGE('',*,*,#232,.T.);
#57=ORIENTED_EDGE('',*,*,#233,.F.);
#58=ORIENTED_EDGE('',*,*,#234,.F.);
#59=ORIENTED_EDGE('',*,*,#235,.T.);
#60=ORIENTED_EDGE('',*,*,#236,.F.);
#61=ORIENTED_EDGE('',*,*,#237,.T.);
#62=ORIENTED_EDGE('',*,*,#238,.T.);
#63=ORIENTED_EDGE('',*,*,#239,.T.);
#64=ORIENTED_EDGE('',*,*,#240,.F.);
#65=ORIENTED_EDGE('',*,*,#241,.F.);
#66=ORIENTED_EDGE('',*,*,#242,.T.);
#67=ORIENTED_EDGE('',*,*,#243,.F.);
#68=ORIENTED_EDGE('',*,*,#244,.F.);
#69=ORIENTED_EDGE('',*,*,#245,.F.);
#70=ORIENTED_EDGE('',*,*,#246,.F.);
#71=ORIENTED_EDGE('',*,*,#244,.T.);
#72=ORIENTED_EDGE('',*,*,#247,.F.);
#73=ORIENTED_EDGE('',*,*,#243,.T.);
#74=ORIENTED_EDGE('',*,*,#248,.F.);
#75=ORIENTED_EDGE('',*,*,#249,.T.);
#76=ORIENTED_EDGE('',*,*,#248,.T.);
#77=ORIENTED_EDGE('',*,*,#250,.F.);
#78=ORIENTED_EDGE('',*,*,#251,.F.);
#79=ORIENTED_EDGE('',*,*,#252,.F.);
#80=ORIENTED_EDGE('',*,*,#250,.T.);
#81=ORIENTED_EDGE('',*,*,#253,.F.);
#82=ORIENTED_EDGE('',*,*,#254,.T.);
#83=ORIENTED_EDGE('',*,*,#253,.T.);
#84=ORIENTED_EDGE('',*,*,#255,.F.);
#85=ORIENTED_EDGE('',*,*,#256,.F.);
#86=ORIENTED_EDGE('',*,*,#257,.F.);
#87=ORIENTED_EDGE('',*,*,#255,.T.);
#88=ORIENTED_EDGE('',*,*,#258,.F.);
#89=ORIENTED_EDGE('',*,*,#259,.F.);
#90=ORIENTED_EDGE('',*,*,#258,.T.);
#91=ORIENTED_EDGE('',*,*,#260,.F.);
#92=ORIENTED_EDGE('',*,*,#261,.F.);
#93=ORIENTED_EDGE('',*,*,#262,.F.);
#94=ORIENTED_EDGE('',*,*,#260,.T.);
#95=ORIENTED_EDGE('',*,*,#263,.F.);
#96=ORIENTED_EDGE('',*,*,#264,.T.);
#97=ORIENTED_EDGE('',*,*,#265,.T.);
#98=ORIENTED_EDGE('',*,*,#266,.F.);
#99=ORIENTED_EDGE('',*,*,#265,.F.);
#100=ORIENTED_EDGE('',*,*,#267,.F.);
#101=ORIENTED_EDGE('',*,*,#268,.T.);
#102=ORIENTED_EDGE('',*,*,#228,.T.);
#103=ORIENTED_EDGE('',*,*,#269,.T.);
#104=ORIENTED_EDGE('',*,*,#235,.F.);
#105=ORIENTED_EDGE('',*,*,#270,.T.);
#106=ORIENTED_EDGE('',*,*,#238,.F.);
#107=ORIENTED_EDGE('',*,*,#271,.T.);
#108=ORIENTED_EDGE('',*,*,#272,.F.);
#109=ORIENTED_EDGE('',*,*,#273,.T.);
#110=ORIENTED_EDGE('',*,*,#274,.F.);
#111=ORIENTED_EDGE('',*,*,#230,.T.);
#112=ORIENTED_EDGE('',*,*,#275,.T.);
#113=ORIENTED_EDGE('',*,*,#276,.F.);
#114=ORIENTED_EDGE('',*,*,#277,.T.);
#115=ORIENTED_EDGE('',*,*,#278,.F.);
#116=ORIENTED_EDGE('',*,*,#279,.T.);
#117=ORIENTED_EDGE('',*,*,#280,.T.);
#118=ORIENTED_EDGE('',*,*,#281,.F.);
#119=ORIENTED_EDGE('',*,*,#240,.T.);
#120=ORIENTED_EDGE('',*,*,#282,.T.);
#121=ORIENTED_EDGE('',*,*,#233,.T.);
#122=ORIENTED_EDGE('',*,*,#283,.F.);
#123=ORIENTED_EDGE('',*,*,#271,.F.);
#124=ORIENTED_EDGE('',*,*,#241,.T.);
#125=ORIENTED_EDGE('',*,*,#281,.T.);
#126=ORIENTED_EDGE('',*,*,#284,.F.);
#127=ORIENTED_EDGE('',*,*,#285,.F.);
#128=ORIENTED_EDGE('',*,*,#286,.F.);
#129=ORIENTED_EDGE('',*,*,#287,.F.);
#130=ORIENTED_EDGE('',*,*,#288,.T.);
#131=ORIENTED_EDGE('',*,*,#231,.T.);
#132=ORIENTED_EDGE('',*,*,#283,.T.);
#133=ORIENTED_EDGE('',*,*,#236,.T.);
#134=ORIENTED_EDGE('',*,*,#269,.F.);
#135=ORIENTED_EDGE('',*,*,#275,.F.);
#136=ORIENTED_EDGE('',*,*,#229,.F.);
#137=ORIENTED_EDGE('',*,*,#268,.F.);
#138=ORIENTED_EDGE('',*,*,#289,.T.);
#139=ORIENTED_EDGE('',*,*,#290,.F.);
#140=ORIENTED_EDGE('',*,*,#273,.F.);
#141=ORIENTED_EDGE('',*,*,#291,.T.);
#142=ORIENTED_EDGE('',*,*,#279,.F.);
#143=ORIENTED_EDGE('',*,*,#292,.F.);
#144=ORIENTED_EDGE('',*,*,#293,.T.);
#145=ORIENTED_EDGE('',*,*,#270,.F.);
#146=ORIENTED_EDGE('',*,*,#234,.T.);
#147=ORIENTED_EDGE('',*,*,#282,.F.);
#148=ORIENTED_EDGE('',*,*,#239,.F.);
#149=ORIENTED_EDGE('',*,*,#294,.F.);
#150=ORIENTED_EDGE('',*,*,#280,.F.);
#151=ORIENTED_EDGE('',*,*,#291,.F.);
#152=ORIENTED_EDGE('',*,*,#272,.T.);
#153=ORIENTED_EDGE('',*,*,#284,.T.);
#154=ORIENTED_EDGE('',*,*,#295,.F.);
#155=ORIENTED_EDGE('',*,*,#288,.F.);
#156=ORIENTED_EDGE('',*,*,#296,.F.);
#157=ORIENTED_EDGE('',*,*,#297,.F.);
#158=ORIENTED_EDGE('',*,*,#289,.F.);
#159=ORIENTED_EDGE('',*,*,#267,.T.);
#160=ORIENTED_EDGE('',*,*,#264,.F.);
#161=ORIENTED_EDGE('',*,*,#298,.F.);
#162=ORIENTED_EDGE('',*,*,#299,.F.);
#163=ORIENTED_EDGE('',*,*,#300,.F.);
#164=ORIENTED_EDGE('',*,*,#301,.T.);
#165=ORIENTED_EDGE('',*,*,#302,.F.);
#166=ORIENTED_EDGE('',*,*,#301,.F.);
#167=ORIENTED_EDGE('',*,*,#303,.F.);
#168=ORIENTED_EDGE('',*,*,#304,.F.);
#169=ORIENTED_EDGE('',*,*,#277,.F.);
#170=ORIENTED_EDGE('',*,*,#305,.F.);
#171=ORIENTED_EDGE('',*,*,#306,.F.);
#172=ORIENTED_EDGE('',*,*,#286,.T.);
#173=ORIENTED_EDGE('',*,*,#307,.F.);
#174=ORIENTED_EDGE('',*,*,#266,.T.);
#175=ORIENTED_EDGE('',*,*,#274,.T.);
#176=ORIENTED_EDGE('',*,*,#293,.F.);
#177=ORIENTED_EDGE('',*,*,#308,.F.);
#178=ORIENTED_EDGE('',*,*,#309,.F.);
#179=ORIENTED_EDGE('',*,*,#299,.T.);
#180=ORIENTED_EDGE('',*,*,#310,.F.);
#181=ORIENTED_EDGE('',*,*,#257,.T.);
#182=ORIENTED_EDGE('',*,*,#311,.F.);
#183=ORIENTED_EDGE('',*,*,#262,.T.);
#184=ORIENTED_EDGE('',*,*,#312,.F.);
#185=ORIENTED_EDGE('',*,*,#305,.T.);
#186=ORIENTED_EDGE('',*,*,#276,.T.);
#187=ORIENTED_EDGE('',*,*,#290,.T.);
#188=ORIENTED_EDGE('',*,*,#297,.T.);
#189=ORIENTED_EDGE('',*,*,#311,.T.);
#190=ORIENTED_EDGE('',*,*,#256,.T.);
#191=ORIENTED_EDGE('',*,*,#310,.T.);
#192=ORIENTED_EDGE('',*,*,#296,.T.);
#193=ORIENTED_EDGE('',*,*,#287,.T.);
#194=ORIENTED_EDGE('',*,*,#306,.T.);
#195=ORIENTED_EDGE('',*,*,#312,.T.);
#196=ORIENTED_EDGE('',*,*,#261,.T.);
#197=ORIENTED_EDGE('',*,*,#313,.T.);
#198=ORIENTED_EDGE('',*,*,#246,.T.);
#199=ORIENTED_EDGE('',*,*,#314,.T.);
#200=ORIENTED_EDGE('',*,*,#308,.T.);
#201=ORIENTED_EDGE('',*,*,#292,.T.);
#202=ORIENTED_EDGE('',*,*,#278,.T.);
#203=ORIENTED_EDGE('',*,*,#304,.T.);
#204=ORIENTED_EDGE('',*,*,#315,.T.);
#205=ORIENTED_EDGE('',*,*,#252,.T.);
#206=ORIENTED_EDGE('',*,*,#314,.F.);
#207=ORIENTED_EDGE('',*,*,#245,.T.);
#208=ORIENTED_EDGE('',*,*,#313,.F.);
#209=ORIENTED_EDGE('',*,*,#251,.T.);
#210=ORIENTED_EDGE('',*,*,#315,.F.);
#211=ORIENTED_EDGE('',*,*,#303,.T.);
#212=ORIENTED_EDGE('',*,*,#300,.T.);
#213=ORIENTED_EDGE('',*,*,#309,.T.);
#214=ORIENTED_EDGE('',*,*,#247,.T.);
#215=ORIENTED_EDGE('',*,*,#249,.F.);
#216=ORIENTED_EDGE('',*,*,#254,.F.);
#217=ORIENTED_EDGE('',*,*,#259,.T.);
#218=ORIENTED_EDGE('',*,*,#307,.T.);
#219=ORIENTED_EDGE('',*,*,#298,.T.);
#220=ORIENTED_EDGE('',*,*,#302,.T.);
#221=ORIENTED_EDGE('',*,*,#285,.T.);
#222=ORIENTED_EDGE('',*,*,#295,.T.);
#223=ORIENTED_EDGE('',*,*,#263,.T.);
#224=ORIENTED_EDGE('',*,*,#294,.T.);
#225=ORIENTED_EDGE('',*,*,#242,.F.);
#226=ORIENTED_EDGE('',*,*,#232,.F.);
#227=ORIENTED_EDGE('',*,*,#237,.F.);
#228=EDGE_CURVE('',#316,#317,#380,.T.);
#229=EDGE_CURVE('',#316,#318,#381,.T.);
#230=EDGE_CURVE('',#319,#318,#382,.T.);
#231=EDGE_CURVE('',#317,#319,#28,.T.);
#232=EDGE_CURVE('',#320,#320,#29,.T.);
#233=EDGE_CURVE('',#321,#322,#383,.T.);
#234=EDGE_CURVE('',#323,#321,#384,.T.);
#235=EDGE_CURVE('',#323,#324,#385,.T.);
#236=EDGE_CURVE('',#322,#324,#30,.T.);
#237=EDGE_CURVE('',#325,#325,#31,.T.);
#238=EDGE_CURVE('',#326,#327,#386,.T.);
#239=EDGE_CURVE('',#327,#328,#387,.T.);
#240=EDGE_CURVE('',#329,#328,#388,.T.);
#241=EDGE_CURVE('',#326,#329,#32,.T.);
#242=EDGE_CURVE('',#330,#330,#33,.T.);
#243=EDGE_CURVE('',#331,#331,#34,.T.);
#244=EDGE_CURVE('',#332,#332,#35,.T.);
#245=EDGE_CURVE('',#333,#334,#36,.T.);
#246=EDGE_CURVE('',#334,#333,#12,.T.);
#247=EDGE_CURVE('',#335,#335,#37,.T.);
#248=EDGE_CURVE('',#336,#336,#38,.T.);
#249=EDGE_CURVE('',#337,#337,#39,.T.);
#250=EDGE_CURVE('',#338,#338,#40,.T.);
#251=EDGE_CURVE('',#339,#340,#41,.T.);
#252=EDGE_CURVE('',#340,#339,#13,.T.);
#253=EDGE_CURVE('',#341,#341,#42,.T.);
#254=EDGE_CURVE('',#342,#342,#43,.T.);
#255=EDGE_CURVE('',#343,#343,#44,.T.);
#256=EDGE_CURVE('',#344,#345,#45,.T.);
#257=EDGE_CURVE('',#345,#344,#14,.T.);
#258=EDGE_CURVE('',#346,#346,#46,.T.);
#259=EDGE_CURVE('',#347,#347,#47,.T.);
#260=EDGE_CURVE('',#348,#348,#48,.T.);
#261=EDGE_CURVE('',#349,#350,#49,.T.);
#262=EDGE_CURVE('',#350,#349,#15,.T.);
#263=EDGE_CURVE('',#351,#352,#389,.T.);
#264=EDGE_CURVE('',#351,#353,#390,.T.);
#265=EDGE_CURVE('',#353,#354,#391,.T.);
#266=EDGE_CURVE('',#352,#354,#392,.T.);
#267=EDGE_CURVE('',#355,#353,#393,.T.);
#268=EDGE_CURVE('',#355,#316,#394,.T.);
#269=EDGE_CURVE('',#317,#324,#395,.T.);
#270=EDGE_CURVE('',#323,#327,#396,.T.);
#271=EDGE_CURVE('',#326,#356,#397,.T.);
#272=EDGE_CURVE('',#357,#356,#398,.T.);
#273=EDGE_CURVE('',#357,#358,#399,.T.);
#274=EDGE_CURVE('',#354,#358,#400,.T.);
#275=EDGE_CURVE('',#318,#359,#401,.T.);
#276=EDGE_CURVE('',#360,#359,#402,.T.);
#277=EDGE_CURVE('',#360,#361,#403,.T.);
#278=EDGE_CURVE('',#362,#361,#404,.T.);
#279=EDGE_CURVE('',#362,#363,#405,.T.);
#280=EDGE_CURVE('',#363,#364,#406,.T.);
#281=EDGE_CURVE('',#329,#364,#407,.T.);
#282=EDGE_CURVE('',#328,#321,#408,.T.);
#283=EDGE_CURVE('',#319,#322,#409,.T.);
#284=EDGE_CURVE('',#356,#364,#50,.T.);
#285=EDGE_CURVE('',#365,#366,#410,.T.);
#286=EDGE_CURVE('',#367,#365,#411,.T.);
#287=EDGE_CURVE('',#368,#367,#412,.T.);
#288=EDGE_CURVE('',#368,#366,#413,.T.);
#289=EDGE_CURVE('',#355,#369,#414,.T.);
#290=EDGE_CURVE('',#359,#369,#415,.T.);
#291=EDGE_CURVE('',#357,#363,#416,.T.);
#292=EDGE_CURVE('',#370,#362,#417,.T.);
#293=EDGE_CURVE('',#370,#358,#418,.T.);
#294=EDGE_CURVE('',#371,#371,#51,.T.);
#295=EDGE_CURVE('',#366,#351,#419,.T.);
#296=EDGE_CURVE('',#372,#368,#420,.T.);
#297=EDGE_CURVE('',#369,#372,#421,.T.);
#298=EDGE_CURVE('',#373,#374,#422,.T.);
#299=EDGE_CURVE('',#375,#373,#423,.T.);
#300=EDGE_CURVE('',#376,#375,#424,.T.);
#301=EDGE_CURVE('',#376,#374,#425,.T.);
#302=EDGE_CURVE('',#374,#365,#426,.T.);
#303=EDGE_CURVE('',#377,#376,#427,.T.);
#304=EDGE_CURVE('',#361,#377,#428,.T.);
#305=EDGE_CURVE('',#378,#360,#429,.T.);
#306=EDGE_CURVE('',#367,#378,#430,.T.);
#307=EDGE_CURVE('',#352,#373,#431,.T.);
#308=EDGE_CURVE('',#379,#370,#432,.T.);
#309=EDGE_CURVE('',#375,#379,#433,.T.);
#310=EDGE_CURVE('',#345,#372,#434,.T.);
#311=EDGE_CURVE('',#350,#344,#435,.T.);
#312=EDGE_CURVE('',#378,#349,#436,.T.);
#313=EDGE_CURVE('',#339,#334,#437,.T.);
#314=EDGE_CURVE('',#333,#379,#438,.T.);
#315=EDGE_CURVE('',#377,#340,#439,.T.);
#316=VERTEX_POINT('',#946);
#317=VERTEX_POINT('',#947);
#318=VERTEX_POINT('',#949);
#319=VERTEX_POINT('',#951);
#320=VERTEX_POINT('',#954);
#321=VERTEX_POINT('',#957);
#322=VERTEX_POINT('',#958);
#323=VERTEX_POINT('',#960);
#324=VERTEX_POINT('',#962);
#325=VERTEX_POINT('',#965);
#326=VERTEX_POINT('',#968);
#327=VERTEX_POINT('',#969);
#328=VERTEX_POINT('',#971);
#329=VERTEX_POINT('',#973);
#330=VERTEX_POINT('',#976);
#331=VERTEX_POINT('',#979);
#332=VERTEX_POINT('',#981);
#333=VERTEX_POINT('',#984);
#334=VERTEX_POINT('',#985);
#335=VERTEX_POINT('',#989);
#336=VERTEX_POINT('',#992);
#337=VERTEX_POINT('',#994);
#338=VERTEX_POINT('',#997);
#339=VERTEX_POINT('',#1000);
#340=VERTEX_POINT('',#1001);
#341=VERTEX_POINT('',#1005);
#342=VERTEX_POINT('',#1007);
#343=VERTEX_POINT('',#1010);
#344=VERTEX_POINT('',#1013);
#345=VERTEX_POINT('',#1014);
#346=VERTEX_POINT('',#1018);
#347=VERTEX_POINT('',#1020);
#348=VERTEX_POINT('',#1023);
#349=VERTEX_POINT('',#1026);
#350=VERTEX_POINT('',#1027);
#351=VERTEX_POINT('',#1031);
#352=VERTEX_POINT('',#1032);
#353=VERTEX_POINT('',#1034);
#354=VERTEX_POINT('',#1036);
#355=VERTEX_POINT('',#1040);
#356=VERTEX_POINT('',#1045);
#357=VERTEX_POINT('',#1047);
#358=VERTEX_POINT('',#1049);
#359=VERTEX_POINT('',#1053);
#360=VERTEX_POINT('',#1055);
#361=VERTEX_POINT('',#1057);
#362=VERTEX_POINT('',#1059);
#363=VERTEX_POINT('',#1061);
#364=VERTEX_POINT('',#1063);
#365=VERTEX_POINT('',#1071);
#366=VERTEX_POINT('',#1072);
#367=VERTEX_POINT('',#1074);
#368=VERTEX_POINT('',#1076);
#369=VERTEX_POINT('',#1081);
#370=VERTEX_POINT('',#1086);
#371=VERTEX_POINT('',#1091);
#372=VERTEX_POINT('',#1095);
#373=VERTEX_POINT('',#1099);
#374=VERTEX_POINT('',#1100);
#375=VERTEX_POINT('',#1102);
#376=VERTEX_POINT('',#1104);
#377=VERTEX_POINT('',#1109);
#378=VERTEX_POINT('',#1112);
#379=VERTEX_POINT('',#1117);
#380=LINE('',#945,#440);
#381=LINE('',#948,#441);
#382=LINE('',#950,#442);
#383=LINE('',#956,#443);
#384=LINE('',#959,#444);
#385=LINE('',#961,#445);
#386=LINE('',#967,#446);
#387=LINE('',#970,#447);
#388=LINE('',#972,#448);
#389=LINE('',#1030,#449);
#390=LINE('',#1033,#450);
#391=LINE('',#1035,#451);
#392=LINE('',#1037,#452);
#393=LINE('',#1039,#453);
#394=LINE('',#1041,#454);
#395=LINE('',#1042,#455);
#396=LINE('',#1043,#456);
#397=LINE('',#1044,#457);
#398=LINE('',#1046,#458);
#399=LINE('',#1048,#459);
#400=LINE('',#1050,#460);
#401=LINE('',#1052,#461);
#402=LINE('',#1054,#462);
#403=LINE('',#1056,#463);
#404=LINE('',#1058,#464);
#405=LINE('',#1060,#465);
#406=LINE('',#1062,#466);
#407=LINE('',#1064,#467);
#408=LINE('',#1065,#468);
#409=LINE('',#1066,#469);
#410=LINE('',#1070,#470);
#411=LINE('',#1073,#471);
#412=LINE('',#1075,#472);
#413=LINE('',#1077,#473);
#414=LINE('',#1080,#474);
#415=LINE('',#1082,#475);
#416=LINE('',#1084,#476);
#417=LINE('',#1085,#477);
#418=LINE('',#1087,#478);
#419=LINE('',#1093,#479);
#420=LINE('',#1094,#480);
#421=LINE('',#1096,#481);
#422=LINE('',#1098,#482);
#423=LINE('',#1101,#483);
#424=LINE('',#1103,#484);
#425=LINE('',#1105,#485);
#426=LINE('',#1107,#486);
#427=LINE('',#1108,#487);
#428=LINE('',#1110,#488);
#429=LINE('',#1111,#489);
#430=LINE('',#1113,#490);
#431=LINE('',#1115,#491);
#432=LINE('',#1116,#492);
#433=LINE('',#1118,#493);
#434=LINE('',#1120,#494);
#435=LINE('',#1121,#495);
#436=LINE('',#1122,#496);
#437=LINE('',#1125,#497);
#438=LINE('',#1126,#498);
#439=LINE('',#1127,#499);
#440=VECTOR('',#757,1.);
#441=VECTOR('',#758,1.);
#442=VECTOR('',#759,1.);
#443=VECTOR('',#766,1.);
#444=VECTOR('',#767,1.);
#445=VECTOR('',#768,1.);
#446=VECTOR('',#775,1.);
#447=VECTOR('',#776,1.);
#448=VECTOR('',#777,1.);
#449=VECTOR('',#848,1.);
#450=VECTOR('',#849,1.);
#451=VECTOR('',#850,1.);
#452=VECTOR('',#851,1.);
#453=VECTOR('',#854,1.);
#454=VECTOR('',#855,1.);
#455=VECTOR('',#856,1.);
#456=VECTOR('',#857,1.);
#457=VECTOR('',#858,1.);
#458=VECTOR('',#859,1.);
#459=VECTOR('',#860,1.);
#460=VECTOR('',#861,1.);
#461=VECTOR('',#864,1.);
#462=VECTOR('',#865,1.);
#463=VECTOR('',#866,1.);
#464=VECTOR('',#867,1.);
#465=VECTOR('',#868,1.);
#466=VECTOR('',#869,1.);
#467=VECTOR('',#870,1.);
#468=VECTOR('',#871,1.);
#469=VECTOR('',#872,1.);
#470=VECTOR('',#879,1.);
#471=VECTOR('',#880,1.);
#472=VECTOR('',#881,1.);
#473=VECTOR('',#882,1.);
#474=VECTOR('',#887,1.);
#475=VECTOR('',#888,1.);
#476=VECTOR('',#891,1.);
#477=VECTOR('',#892,1.);
#478=VECTOR('',#893,1.);
#479=VECTOR('',#902,1.);
#480=VECTOR('',#903,1.);
#481=VECTOR('',#904,1.);
#482=VECTOR('',#907,1.);
#483=VECTOR('',#908,1.);
#484=VECTOR('',#909,1.);
#485=VECTOR('',#910,1.);
#486=VECTOR('',#913,1.);
#487=VECTOR('',#914,1.);
#488=VECTOR('',#915,1.);
#489=VECTOR('',#916,1.);
#490=VECTOR('',#917,1.);
#491=VECTOR('',#920,1.);
#492=VECTOR('',#921,1.);
#493=VECTOR('',#922,1.);
#494=VECTOR('',#925,1.);
#495=VECTOR('',#926,1.);
#496=VECTOR('',#927,1.);
#497=VECTOR('',#932,1.);
#498=VECTOR('',#933,1.);
#499=VECTOR('',#934,1.);
#500=EDGE_LOOP('',(#52,#53,#54,#55));
#501=EDGE_LOOP('',(#56));
#502=EDGE_LOOP('',(#57,#58,#59,#60));
#503=EDGE_LOOP('',(#61));
#504=EDGE_LOOP('',(#62,#63,#64,#65));
#505=EDGE_LOOP('',(#66));
#506=EDGE_LOOP('',(#67));
#507=EDGE_LOOP('',(#68));
#508=EDGE_LOOP('',(#69,#70));
#509=EDGE_LOOP('',(#71));
#510=EDGE_LOOP('',(#72));
#511=EDGE_LOOP('',(#73));
#512=EDGE_LOOP('',(#74));
#513=EDGE_LOOP('',(#75));
#514=EDGE_LOOP('',(#76));
#515=EDGE_LOOP('',(#77));
#516=EDGE_LOOP('',(#78,#79));
#517=EDGE_LOOP('',(#80));
#518=EDGE_LOOP('',(#81));
#519=EDGE_LOOP('',(#82));
#520=EDGE_LOOP('',(#83));
#521=EDGE_LOOP('',(#84));
#522=EDGE_LOOP('',(#85,#86));
#523=EDGE_LOOP('',(#87));
#524=EDGE_LOOP('',(#88));
#525=EDGE_LOOP('',(#89));
#526=EDGE_LOOP('',(#90));
#527=EDGE_LOOP('',(#91));
#528=EDGE_LOOP('',(#92,#93));
#529=EDGE_LOOP('',(#94));
#530=EDGE_LOOP('',(#95,#96,#97,#98));
#531=EDGE_LOOP('',(#99,#100,#101,#102,#103,#104,#105,#106,#107,#108,#109,
#110));
#532=EDGE_LOOP('',(#111,#112,#113,#114,#115,#116,#117,#118,#119,#120,#121,
#122));
#533=EDGE_LOOP('',(#123,#124,#125,#126));
#534=EDGE_LOOP('',(#127,#128,#129,#130));
#535=EDGE_LOOP('',(#131,#132,#133,#134));
#536=EDGE_LOOP('',(#135,#136,#137,#138,#139));
#537=EDGE_LOOP('',(#140,#141,#142,#143,#144));
#538=EDGE_LOOP('',(#145,#146,#147,#148));
#539=EDGE_LOOP('',(#149));
#540=EDGE_LOOP('',(#150,#151,#152,#153));
#541=EDGE_LOOP('',(#154,#155,#156,#157,#158,#159,#160));
#542=EDGE_LOOP('',(#161,#162,#163,#164));
#543=EDGE_LOOP('',(#165,#166,#167,#168,#169,#170,#171,#172));
#544=EDGE_LOOP('',(#173,#174,#175,#176,#177,#178,#179));
#545=EDGE_LOOP('',(#180,#181,#182,#183,#184,#185,#186,#187,#188));
#546=EDGE_LOOP('',(#189,#190,#191,#192,#193,#194,#195,#196));
#547=EDGE_LOOP('',(#197,#198,#199,#200,#201,#202,#203,#204,#205));
#548=EDGE_LOOP('',(#206,#207,#208,#209,#210,#211,#212,#213));
#549=EDGE_LOOP('',(#214));
#550=EDGE_LOOP('',(#215));
#551=EDGE_LOOP('',(#216));
#552=EDGE_LOOP('',(#217));
#553=EDGE_LOOP('',(#218,#219,#220,#221,#222,#223));
#554=EDGE_LOOP('',(#224));
#555=EDGE_LOOP('',(#225));
#556=EDGE_LOOP('',(#226));
#557=EDGE_LOOP('',(#227));
#558=FACE_BOUND('',#500,.T.);
#559=FACE_BOUND('',#501,.T.);
#560=FACE_BOUND('',#502,.T.);
#561=FACE_BOUND('',#503,.T.);
#562=FACE_BOUND('',#504,.T.);
#563=FACE_BOUND('',#505,.T.);
#564=FACE_BOUND('',#506,.T.);
#565=FACE_BOUND('',#507,.T.);
#566=FACE_BOUND('',#508,.T.);
#567=FACE_BOUND('',#509,.T.);
#568=FACE_BOUND('',#510,.T.);
#569=FACE_BOUND('',#511,.T.);
#570=FACE_BOUND('',#512,.T.);
#571=FACE_BOUND('',#513,.T.);
#572=FACE_BOUND('',#514,.T.);
#573=FACE_BOUND('',#515,.T.);
#574=FACE_BOUND('',#516,.T.);
#575=FACE_BOUND('',#517,.T.);
#576=FACE_BOUND('',#518,.T.);
#577=FACE_BOUND('',#519,.T.);
#578=FACE_BOUND('',#520,.T.);
#579=FACE_BOUND('',#521,.T.);
#580=FACE_BOUND('',#522,.T.);
#581=FACE_BOUND('',#523,.T.);
#582=FACE_BOUND('',#524,.T.);
#583=FACE_BOUND('',#525,.T.);
#584=FACE_BOUND('',#526,.T.);
#585=FACE_BOUND('',#527,.T.);
#586=FACE_BOUND('',#528,.T.);
#587=FACE_BOUND('',#529,.T.);
#588=FACE_BOUND('',#530,.T.);
#589=FACE_BOUND('',#531,.T.);
#590=FACE_BOUND('',#532,.T.);
#591=FACE_BOUND('',#533,.T.);
#592=FACE_BOUND('',#534,.T.);
#593=FACE_BOUND('',#535,.T.);
#594=FACE_BOUND('',#536,.T.);
#595=FACE_BOUND('',#537,.T.);
#596=FACE_BOUND('',#538,.T.);
#597=FACE_BOUND('',#539,.T.);
#598=FACE_BOUND('',#540,.T.);
#599=FACE_BOUND('',#541,.T.);
#600=FACE_BOUND('',#542,.T.);
#601=FACE_BOUND('',#543,.T.);
#602=FACE_BOUND('',#544,.T.);
#603=FACE_BOUND('',#545,.T.);
#604=FACE_BOUND('',#546,.T.);
#605=FACE_BOUND('',#547,.T.);
#606=FACE_BOUND('',#548,.T.);
#607=FACE_BOUND('',#549,.T.);
#608=FACE_BOUND('',#550,.T.);
#609=FACE_BOUND('',#551,.T.);
#610=FACE_BOUND('',#552,.T.);
#611=FACE_BOUND('',#553,.T.);
#612=FACE_BOUND('',#554,.T.);
#613=FACE_BOUND('',#555,.T.);
#614=FACE_BOUND('',#556,.T.);
#615=FACE_BOUND('',#557,.T.);
#616=PLANE('',#689);
#617=PLANE('',#692);
#618=PLANE('',#695);
#619=PLANE('',#698);
#620=PLANE('',#709);
#621=PLANE('',#717);
#622=PLANE('',#725);
#623=PLANE('',#730);
#624=PLANE('',#731);
#625=PLANE('',#732);
#626=PLANE('',#735);
#627=PLANE('',#737);
#628=PLANE('',#738);
#629=PLANE('',#739);
#630=PLANE('',#740);
#631=PLANE('',#742);
#632=PLANE('',#743);
#633=PLANE('',#744);
#634=PLANE('',#745);
#635=PLANE('',#746);
#636=PLANE('',#747);
#637=PLANE('',#748);
#638=PLANE('',#749);
#639=PLANE('',#750);
#640=ADVANCED_FACE('',(#558,#559),#616,.F.);
#641=ADVANCED_FACE('',(#560,#561),#617,.F.);
#642=ADVANCED_FACE('',(#562,#563),#618,.F.);
#643=ADVANCED_FACE('',(#564,#565),#619,.F.);
#644=ADVANCED_FACE('',(#566,#567),#16,.F.);
#645=ADVANCED_FACE('',(#568,#569),#17,.F.);
#646=ADVANCED_FACE('',(#570,#571),#18,.F.);
#647=ADVANCED_FACE('',(#572,#573),#620,.F.);
#648=ADVANCED_FACE('',(#574,#575),#19,.F.);
#649=ADVANCED_FACE('',(#576,#577),#20,.F.);
#650=ADVANCED_FACE('',(#578,#579),#621,.F.);
#651=ADVANCED_FACE('',(#580,#581),#21,.F.);
#652=ADVANCED_FACE('',(#582,#583),#22,.F.);
#653=ADVANCED_FACE('',(#584,#585),#622,.F.);
#654=ADVANCED_FACE('',(#586,#587),#23,.F.);
#655=ADVANCED_FACE('',(#588),#623,.T.);
#656=ADVANCED_FACE('',(#589),#624,.T.);
#657=ADVANCED_FACE('',(#590),#625,.F.);
#658=ADVANCED_FACE('',(#591),#24,.T.);
#659=ADVANCED_FACE('',(#592),#626,.T.);
#660=ADVANCED_FACE('',(#593),#25,.T.);
#661=ADVANCED_FACE('',(#594),#627,.F.);
#662=ADVANCED_FACE('',(#595),#628,.F.);
#663=ADVANCED_FACE('',(#596),#629,.F.);
#664=ADVANCED_FACE('',(#597,#598),#630,.T.);
#665=ADVANCED_FACE('',(#599),#631,.T.);
#666=ADVANCED_FACE('',(#600),#632,.T.);
#667=ADVANCED_FACE('',(#601),#633,.T.);
#668=ADVANCED_FACE('',(#602),#634,.T.);
#669=ADVANCED_FACE('',(#603),#635,.F.);
#670=ADVANCED_FACE('',(#604),#636,.F.);
#671=ADVANCED_FACE('',(#605),#637,.F.);
#672=ADVANCED_FACE('',(#606),#638,.F.);
#673=ADVANCED_FACE('',(#607,#608,#609,#610,#611),#639,.T.);
#674=ADVANCED_FACE('',(#612,#613),#26,.F.);
#675=ADVANCED_FACE('',(#614,#615),#27,.F.);
#676=CLOSED_SHELL('',(#640,#641,#642,#643,#644,#645,#646,#647,#648,#649,
#650,#651,#652,#653,#654,#655,#656,#657,#658,#659,#660,#661,#662,#663,#664,
#665,#666,#667,#668,#669,#670,#671,#672,#673,#674,#675));
#677=STYLED_ITEM('',(#678),#685);
#678=PRESENTATION_STYLE_ASSIGNMENT((#679));
#679=SURFACE_STYLE_USAGE(.BOTH.,#680);
#680=SURFACE_SIDE_STYLE('',(#681));
#681=SURFACE_STYLE_FILL_AREA(#682);
#682=FILL_AREA_STYLE('',(#683));
#683=FILL_AREA_STYLE_COLOUR('',#684);
#684=COLOUR_RGB('',0.980392156862745,0.713725490196078,0.00392156862745098);
#685=MANIFOLD_SOLID_BREP('a279837B8p1l',#676);
#686=SHAPE_DEFINITION_REPRESENTATION(#1138,#687);
#687=SHAPE_REPRESENTATION('a279837B8p1l',(#688),#1133);
#688=AXIS2_PLACEMENT_3D('',#943,#753,#754);
#689=AXIS2_PLACEMENT_3D('',#944,#755,#756);
#690=AXIS2_PLACEMENT_3D('',#952,#760,#761);
#691=AXIS2_PLACEMENT_3D('',#953,#762,#763);
#692=AXIS2_PLACEMENT_3D('',#955,#764,#765);
#693=AXIS2_PLACEMENT_3D('',#963,#769,#770);
#694=AXIS2_PLACEMENT_3D('',#964,#771,#772);
#695=AXIS2_PLACEMENT_3D('',#966,#773,#774);
#696=AXIS2_PLACEMENT_3D('',#974,#778,#779);
#697=AXIS2_PLACEMENT_3D('',#975,#780,#781);
#698=AXIS2_PLACEMENT_3D('',#977,#782,#783);
#699=AXIS2_PLACEMENT_3D('',#978,#784,#785);
#700=AXIS2_PLACEMENT_3D('',#980,#786,#787);
#701=AXIS2_PLACEMENT_3D('',#982,#788,#789);
#702=AXIS2_PLACEMENT_3D('',#983,#790,#791);
#703=AXIS2_PLACEMENT_3D('',#986,#792,#793);
#704=AXIS2_PLACEMENT_3D('',#987,#794,#795);
#705=AXIS2_PLACEMENT_3D('',#988,#796,#797);
#706=AXIS2_PLACEMENT_3D('',#990,#798,#799);
#707=AXIS2_PLACEMENT_3D('',#991,#800,#801);
#708=AXIS2_PLACEMENT_3D('',#993,#802,#803);
#709=AXIS2_PLACEMENT_3D('',#995,#804,#805);
#710=AXIS2_PLACEMENT_3D('',#996,#806,#807);
#711=AXIS2_PLACEMENT_3D('',#998,#808,#809);
#712=AXIS2_PLACEMENT_3D('',#999,#810,#811);
#713=AXIS2_PLACEMENT_3D('',#1002,#812,#813);
#714=AXIS2_PLACEMENT_3D('',#1003,#814,#815);
#715=AXIS2_PLACEMENT_3D('',#1004,#816,#817);
#716=AXIS2_PLACEMENT_3D('',#1006,#818,#819);
#717=AXIS2_PLACEMENT_3D('',#1008,#820,#821);
#718=AXIS2_PLACEMENT_3D('',#1009,#822,#823);
#719=AXIS2_PLACEMENT_3D('',#1011,#824,#825);
#720=AXIS2_PLACEMENT_3D('',#1012,#826,#827);
#721=AXIS2_PLACEMENT_3D('',#1015,#828,#829);
#722=AXIS2_PLACEMENT_3D('',#1016,#830,#831);
#723=AXIS2_PLACEMENT_3D('',#1017,#832,#833);
#724=AXIS2_PLACEMENT_3D('',#1019,#834,#835);
#725=AXIS2_PLACEMENT_3D('',#1021,#836,#837);
#726=AXIS2_PLACEMENT_3D('',#1022,#838,#839);
#727=AXIS2_PLACEMENT_3D('',#1024,#840,#841);
#728=AXIS2_PLACEMENT_3D('',#1025,#842,#843);
#729=AXIS2_PLACEMENT_3D('',#1028,#844,#845);
#730=AXIS2_PLACEMENT_3D('',#1029,#846,#847);
#731=AXIS2_PLACEMENT_3D('',#1038,#852,#853);
#732=AXIS2_PLACEMENT_3D('',#1051,#862,#863);
#733=AXIS2_PLACEMENT_3D('',#1067,#873,#874);
#734=AXIS2_PLACEMENT_3D('',#1068,#875,#876);
#735=AXIS2_PLACEMENT_3D('',#1069,#877,#878);
#736=AXIS2_PLACEMENT_3D('',#1078,#883,#884);
#737=AXIS2_PLACEMENT_3D('',#1079,#885,#886);
#738=AXIS2_PLACEMENT_3D('',#1083,#889,#890);
#739=AXIS2_PLACEMENT_3D('',#1088,#894,#895);
#740=AXIS2_PLACEMENT_3D('',#1089,#896,#897);
#741=AXIS2_PLACEMENT_3D('',#1090,#898,#899);
#742=AXIS2_PLACEMENT_3D('',#1092,#900,#901);
#743=AXIS2_PLACEMENT_3D('',#1097,#905,#906);
#744=AXIS2_PLACEMENT_3D('',#1106,#911,#912);
#745=AXIS2_PLACEMENT_3D('',#1114,#918,#919);
#746=AXIS2_PLACEMENT_3D('',#1119,#923,#924);
#747=AXIS2_PLACEMENT_3D('',#1123,#928,#929);
#748=AXIS2_PLACEMENT_3D('',#1124,#930,#931);
#749=AXIS2_PLACEMENT_3D('',#1128,#935,#936);
#750=AXIS2_PLACEMENT_3D('',#1129,#937,#938);
#751=AXIS2_PLACEMENT_3D('',#1130,#939,#940);
#752=AXIS2_PLACEMENT_3D('',#1131,#941,#942);
#753=DIRECTION('',(0.,0.,1.));
#754=DIRECTION('',(1.,0.,0.));
#755=DIRECTION('',(-1.,0.,0.));
#756=DIRECTION('',(0.,-0.662620048215737,0.748955720789003));
#757=DIRECTION('',(0.,-0.468586515696604,0.883417612065391));
#758=DIRECTION('',(0.,0.906296119207101,0.422643282580179));
#759=DIRECTION('',(0.,0.961269305263231,-0.275610817564814));
#760=DIRECTION('',(-1.,0.,0.));
#761=DIRECTION('',(0.,0.748955720789003,0.662620048215737));
#762=DIRECTION('',(-1.,0.,0.));
#763=DIRECTION('',(0.,0.,1.));
#764=DIRECTION('',(1.,0.,0.));
#765=DIRECTION('',(0.,0.662620048215737,-0.748955720789003));
#766=DIRECTION('',(0.,-0.961269305263231,0.275610817564814));
#767=DIRECTION('',(0.,0.906296119207101,0.422643282580179));
#768=DIRECTION('',(0.,-0.468586515696604,0.883417612065391));
#769=DIRECTION('',(1.,0.,0.));
#770=DIRECTION('',(0.,0.662620048215737,-0.748955720789003));
#771=DIRECTION('',(1.,0.,0.));
#772=DIRECTION('',(0.,0.,-1.));
#773=DIRECTION('',(-1.,0.,0.));
#774=DIRECTION('',(0.,-0.662620048215737,0.748955720789003));
#775=DIRECTION('',(0.,0.468586515696604,-0.883417612065391));
#776=DIRECTION('',(0.,0.906296119207101,0.422643282580179));
#777=DIRECTION('',(0.,0.961269305263231,-0.275610817564814));
#778=DIRECTION('',(-1.,0.,0.));
#779=DIRECTION('',(0.,-0.662620048215737,0.748955720789003));
#780=DIRECTION('',(-1.,0.,0.));
#781=DIRECTION('',(0.,0.,1.));
#782=DIRECTION('',(4.77569372936415E-15,2.7607619487946E-5,-0.99999999961891));
#783=DIRECTION('',(0.,0.99999999961891,2.76076194872244E-5));
#784=DIRECTION('',(-4.77569372936415E-15,-2.7607619487946E-5,0.99999999961891));
#785=DIRECTION('',(0.,0.99999999961891,2.76076194872244E-5));
#786=DIRECTION('',(4.77569372936415E-15,2.7607619487946E-5,-0.99999999961891));
#787=DIRECTION('',(0.,0.99999999961891,2.7607619487946E-5));
#788=DIRECTION('',(-4.77569372936415E-15,-2.7607619487946E-5,0.99999999961891));
#789=DIRECTION('',(0.,-0.99999999961891,-2.76076194872244E-5));
#790=DIRECTION('',(-2.51693220908285E-16,2.76076194999919E-5,-0.99999999961891));
#791=DIRECTION('',(0.,0.99999999961891,2.76076194999919E-5));
#792=DIRECTION('',(0.5,2.39088998256199E-5,-0.866025403454404));
#793=DIRECTION('',(0.866025403784438,-1.3803809724322E-5,0.499999999809457));
#794=DIRECTION('',(-4.77569372936415E-15,-2.7607619487946E-5,0.99999999961891));
#795=DIRECTION('',(0.,-0.99999999961891,-2.76076194872244E-5));
#796=DIRECTION('',(-4.77569372936415E-15,-2.7607619487946E-5,0.99999999961891));
#797=DIRECTION('',(0.,-0.99999999961891,-2.76076194872244E-5));
#798=DIRECTION('',(4.77569372936415E-15,2.7607619487946E-5,-0.99999999961891));
#799=DIRECTION('',(0.,0.99999999961891,2.76076194872244E-5));
#800=DIRECTION('',(4.77569372936415E-15,2.7607619487946E-5,-0.99999999961891));
#801=DIRECTION('',(0.,0.99999999961891,2.7607619487946E-5));
#802=DIRECTION('',(4.77569372936415E-15,2.7607619487946E-5,-0.99999999961891));
#803=DIRECTION('',(0.,0.99999999961891,2.76076194872244E-5));
#804=DIRECTION('',(4.77569372936415E-15,2.7607619487946E-5,-0.99999999961891));
#805=DIRECTION('',(0.,0.99999999961891,2.76076194872244E-5));
#806=DIRECTION('',(4.77569372936415E-15,2.7607619487946E-5,-0.99999999961891));
#807=DIRECTION('',(0.,0.99999999961891,2.7607619487946E-5));
#808=DIRECTION('',(-4.77569372936415E-15,-2.7607619487946E-5,0.99999999961891));
#809=DIRECTION('',(0.,-0.99999999961891,-2.76076194872244E-5));
#810=DIRECTION('',(-2.51693220908285E-16,2.76076194999919E-5,-0.99999999961891));
#811=DIRECTION('',(0.,0.99999999961891,2.76076194999919E-5));
#812=DIRECTION('',(0.5,2.39088998256199E-5,-0.866025403454404));
#813=DIRECTION('',(0.866025403784438,-1.3803809724322E-5,0.499999999809457));
#814=DIRECTION('',(4.77569372936415E-15,2.7607619487946E-5,-0.99999999961891));
#815=DIRECTION('',(0.,0.99999999961891,2.76076194872244E-5));
#816=DIRECTION('',(4.77569372936415E-15,2.7607619487946E-5,-0.99999999961891));
#817=DIRECTION('',(0.,0.99999999961891,2.7607619487946E-5));
#818=DIRECTION('',(4.77569372936415E-15,2.76076194872244E-5,-0.99999999961891));
#819=DIRECTION('',(0.,0.99999999961891,2.76076194872244E-5));
#820=DIRECTION('',(4.77569372936415E-15,2.7607619487946E-5,-0.99999999961891));
#821=DIRECTION('',(0.,0.99999999961891,2.76076194872244E-5));
#822=DIRECTION('',(4.77569372936415E-15,2.7607619487946E-5,-0.99999999961891));
#823=DIRECTION('',(0.,0.99999999961891,2.7607619487946E-5));
#824=DIRECTION('',(-4.77569372936415E-15,-2.7607619487946E-5,0.99999999961891));
#825=DIRECTION('',(0.,-0.99999999961891,-2.76076194872244E-5));
#826=DIRECTION('',(-2.51693220908285E-16,2.76076194999919E-5,-0.99999999961891));
#827=DIRECTION('',(0.,0.99999999961891,2.76076194999919E-5));
#828=DIRECTION('',(-0.5,2.39088998249537E-5,-0.866025403454403));
#829=DIRECTION('',(-0.866025403784436,-1.38038097241555E-5,0.49999999980946));
#830=DIRECTION('',(-4.77569372936415E-15,-2.7607619487946E-5,0.99999999961891));
#831=DIRECTION('',(0.,-0.99999999961891,-2.76076194872244E-5));
#832=DIRECTION('',(4.77569372936415E-15,2.7607619487946E-5,-0.99999999961891));
#833=DIRECTION('',(0.,0.99999999961891,2.7607619487946E-5));
#834=DIRECTION('',(-4.77569372936415E-15,-2.7607619487946E-5,0.99999999961891));
#835=DIRECTION('',(0.,-0.99999999961891,-2.76076194872244E-5));
#836=DIRECTION('',(4.77569372936415E-15,2.7607619487946E-5,-0.99999999961891));
#837=DIRECTION('',(0.,0.99999999961891,2.76076194872244E-5));
#838=DIRECTION('',(4.77569372936415E-15,2.7607619487946E-5,-0.99999999961891));
#839=DIRECTION('',(0.,0.99999999961891,2.7607619487946E-5));
#840=DIRECTION('',(-4.77569372936415E-15,-2.7607619487946E-5,0.99999999961891));
#841=DIRECTION('',(0.,-0.99999999961891,-2.76076194872244E-5));
#842=DIRECTION('',(-2.51693220908285E-16,2.76076194999919E-5,-0.99999999961891));
#843=DIRECTION('',(0.,0.99999999961891,2.76076194999919E-5));
#844=DIRECTION('',(-0.5,2.39088998249537E-5,-0.866025403454403));
#845=DIRECTION('',(-0.866025403784436,-1.38038097241555E-5,0.49999999980946));
#846=DIRECTION('',(-1.31512079454678E-15,-0.99999999961891,-2.7607619487946E-5));
#847=DIRECTION('',(0.,2.7607619487946E-5,-0.99999999961891));
#848=DIRECTION('',(-1.,-1.97044369562055E-16,-3.22164696471875E-15));
#849=DIRECTION('',(0.,-2.7607619487946E-5,0.99999999961891));
#850=DIRECTION('',(-1.,2.53310878712108E-15,-4.77562379808058E-15));
#851=DIRECTION('',(0.,-2.7607619487946E-5,0.99999999961891));
#852=DIRECTION('',(0.,-0.883417612065391,-0.468586515696604));
#853=DIRECTION('',(0.,0.468586515696604,-0.883417612065391));
#854=DIRECTION('',(0.882880824589632,0.220046875477741,-0.414850361171851));
#855=DIRECTION('',(-1.,-9.17286635758591E-16,1.72934376512453E-15));
#856=DIRECTION('',(-1.,0.,0.));
#857=DIRECTION('',(-1.,0.,0.));
#858=DIRECTION('',(-1.,0.,0.));
#859=DIRECTION('',(0.,-0.468586515696604,0.883417612065391));
#860=DIRECTION('',(-1.,-9.17286635758591E-16,1.72934376512453E-15));
#861=DIRECTION('',(0.809033383355241,-0.275417672901144,0.519239915713816));
#862=DIRECTION('',(0.,-0.275610817564814,-0.961269305263231));
#863=DIRECTION('',(0.,0.961269305263231,-0.275610817564814));
#864=DIRECTION('',(1.,2.86447508749661E-15,-8.21289431001639E-16));
#865=DIRECTION('',(-0.430836289233119,-0.867478358734243,0.248719498647735));
#866=DIRECTION('',(-0.991687246134805,0.123688153696302,-0.0354633118697006));
#867=DIRECTION('',(-0.430836289233121,0.867478358734242,-0.248719498647736));
#868=DIRECTION('',(1.,2.8644750874966E-15,-8.21289431001638E-16));
#869=DIRECTION('',(0.,-0.961269305263231,0.275610817564814));
#870=DIRECTION('',(-1.,0.,0.));
#871=DIRECTION('',(1.,0.,0.));
#872=DIRECTION('',(-1.,0.,0.));
#873=DIRECTION('',(-1.,0.,0.));
#874=DIRECTION('',(0.,-0.662620048215737,0.748955720789003));
#875=DIRECTION('',(-1.,0.,0.));
#876=DIRECTION('',(0.,0.748955720789003,0.662620048215737));
#877=DIRECTION('',(1.,0.,0.));
#878=DIRECTION('',(0.,0.662620048215737,-0.748955720789003));
#879=DIRECTION('',(0.,-0.99999999961891,-2.76076194907771E-5));
#880=DIRECTION('',(0.,2.76076195001914E-5,-0.99999999961891));
#881=DIRECTION('',(0.,0.99999999961891,2.76076194999919E-5));
#882=DIRECTION('',(0.,2.76076195000409E-5,-0.99999999961891));
#883=DIRECTION('',(-1.,0.,0.));
#884=DIRECTION('',(0.,-0.662620048215737,0.748955720789003));
#885=DIRECTION('',(-1.9549825779113E-15,0.422643282580178,-0.906296119207101));
#886=DIRECTION('',(0.,0.906296119207101,0.422643282580178));
#887=DIRECTION('',(0.964208185006007,0.240301089311304,0.112062315000282));
#888=DIRECTION('',(0.590661858214399,-0.731307724828908,-0.341038972635503));
#889=DIRECTION('',(-1.9549825779113E-15,0.422643282580178,-0.906296119207101));
#890=DIRECTION('',(0.,0.906296119207101,0.422643282580178));
#891=DIRECTION('',(0.,0.906296119207101,0.422643282580179));
#892=DIRECTION('',(0.5906618582144,0.731307724828909,0.3410389726355));
#893=DIRECTION('',(0.93614399435076,-0.318669002888929,-0.148608507289387));
#894=DIRECTION('',(0.,0.422643282580178,-0.906296119207101));
#895=DIRECTION('',(0.,0.906296119207101,0.422643282580178));
#896=DIRECTION('',(-1.,0.,0.));
#897=DIRECTION('',(0.,-0.662620048215737,0.748955720789003));
#898=DIRECTION('',(-1.,0.,0.));
#899=DIRECTION('',(0.,0.,1.));
#900=DIRECTION('',(0.241827227959921,-0.970319324294643,-2.6788206708872E-5));
#901=DIRECTION('',(0.,2.76076194999919E-5,-0.99999999961891));
#902=DIRECTION('',(-0.970319324664422,-0.241827227867765,-6.67627410091964E-6));
#903=DIRECTION('',(0.970319324664422,0.241827227867763,6.67627409396687E-6));
#904=DIRECTION('',(0.846532163116805,0.210989942919728,-0.48873974750936));
#905=DIRECTION('',(-1.,0.,0.));
#906=DIRECTION('',(0.,-0.662620048215737,0.748955720789003));
#907=DIRECTION('',(0.,0.99999999961891,2.76076194907771E-5));
#908=DIRECTION('',(0.,2.76076194992871E-5,-0.99999999961891));
#909=DIRECTION('',(0.,-0.99999999961891,-2.76076194999919E-5));
#910=DIRECTION('',(0.,2.76076195001914E-5,-0.99999999961891));
#911=DIRECTION('',(0.123765040408474,0.992311550886204,2.73953597329512E-5));
#912=DIRECTION('',(0.,-2.76076194999919E-5,0.99999999961891));
#913=DIRECTION('',(0.992311551264364,-0.123765040361309,-3.41685813608217E-6));
#914=DIRECTION('',(-0.992311551264364,0.123765040361308,3.41685814326393E-6));
#915=DIRECTION('',(-0.861017202782088,0.107403211405602,-0.497105548845588));
#916=DIRECTION('',(-0.861017202782086,0.107375763440204,0.497111478381806));
#917=DIRECTION('',(-0.992311551264364,0.123765040361308,3.41685814320147E-6));
#918=DIRECTION('',(-0.322250919000301,-0.946654289865329,-2.61348714419296E-5));
#919=DIRECTION('',(0.,2.76076194999919E-5,-0.99999999961891));
#920=DIRECTION('',(-0.946654290226086,0.322250918877505,8.89658074790245E-6));
#921=DIRECTION('',(0.830680390333025,-0.282785443385138,0.479585740119162));
#922=DIRECTION('',(0.94665429022609,-0.322250918877494,-8.89658075567401E-6));
#923=DIRECTION('',(-0.5,2.39088998248982E-5,-0.866025403454405));
#924=DIRECTION('',(0.,0.99999999961891,2.76076194999919E-5));
#925=DIRECTION('',(2.18886866097667E-16,-0.99999999961891,-2.76076194999919E-5));
#926=DIRECTION('',(2.18886866097667E-16,-0.99999999961891,-2.76076194999919E-5));
#927=DIRECTION('',(2.18886866097667E-16,-0.99999999961891,-2.76076194999919E-5));
#928=DIRECTION('',(-2.51693220908285E-16,2.76076194999919E-5,-0.99999999961891));
#929=DIRECTION('',(0.,0.99999999961891,2.76076194999919E-5));
#930=DIRECTION('',(0.5,2.39088998255643E-5,-0.866025403454405));
#931=DIRECTION('',(0.,0.99999999961891,2.76076194999919E-5));
#932=DIRECTION('',(1.11334010587105E-15,-0.99999999961891,-2.76076194999919E-5));
#933=DIRECTION('',(1.11334010587105E-15,-0.99999999961891,-2.76076194999919E-5));
#934=DIRECTION('',(1.11334010587105E-15,-0.99999999961891,-2.76076194999919E-5));
#935=DIRECTION('',(-2.51693220908285E-16,2.76076194999919E-5,-0.99999999961891));
#936=DIRECTION('',(0.,0.99999999961891,2.76076194999919E-5));
#937=DIRECTION('',(4.77569372936415E-15,2.7607619487946E-5,-0.99999999961891));
#938=DIRECTION('',(0.,0.99999999961891,2.76076194872244E-5));
#939=DIRECTION('',(1.,0.,0.));
#940=DIRECTION('',(0.,0.662620048215737,-0.748955720789003));
#941=DIRECTION('',(1.,0.,0.));
#942=DIRECTION('',(0.,0.662620048215737,-0.748955720789003));
#943=CARTESIAN_POINT('',(0.,0.,0.));
#944=CARTESIAN_POINT('',(-0.0559308,-0.0567873884777377,0.0447230261234139));
#945=CARTESIAN_POINT('',(-0.0559308,-0.0566397768116965,0.00650083631306242));
#946=CARTESIAN_POINT('',(-0.0559308,-0.064580129073125,0.0214706376171421));
#947=CARTESIAN_POINT('',(-0.0559308,-0.0724945536202601,0.0363915578743283));
#948=CARTESIAN_POINT('',(-0.0559308,-0.118332555197044,-0.00359633700869772));
#949=CARTESIAN_POINT('',(-0.0559308,-0.006174087265839,0.0487077852875335));
#950=CARTESIAN_POINT('',(-0.0559308,0.045777933273309,0.0338123353064092));
#951=CARTESIAN_POINT('',(-0.0559308,-0.0518870281414353,0.0618143943709941));
#952=CARTESIAN_POINT('',(-0.0559308,-0.0567873884777377,0.0447230261234139));
#953=CARTESIAN_POINT('',(-0.0559308,-0.0567873884777377,0.0447230261234139));
#954=CARTESIAN_POINT('',(-0.0559308,-0.0567873884777377,0.0542797761234139));
#955=CARTESIAN_POINT('',(-0.0635508,-0.136582292138856,0.0355375294186647));
#956=CARTESIAN_POINT('',(-0.0635508,0.045777933273309,0.0338123353064092));
#957=CARTESIAN_POINT('',(-0.0635508,-0.00245243429335313,0.0476407296634506));
#958=CARTESIAN_POINT('',(-0.0635508,-0.0518870281414353,0.0618143943709941));
#959=CARTESIAN_POINT('',(-0.0635508,-0.11725904125929,-0.00589832915148389));
#960=CARTESIAN_POINT('',(-0.0635508,-0.0633883496265193,0.0192237975618667));
#961=CARTESIAN_POINT('',(-0.0635508,-0.0566397768116965,0.00650083631306242));
#962=CARTESIAN_POINT('',(-0.0635508,-0.0724945536202601,0.0363915578743283));
#963=CARTESIAN_POINT('',(-0.0635508,-0.0567873884777379,0.0447230261234141));
#964=CARTESIAN_POINT('',(-0.0635508,-0.0567873884777377,0.0447230261234139));
#965=CARTESIAN_POINT('',(-0.0635508,-0.0567873884777377,0.0351662761234139));
#966=CARTESIAN_POINT('',(-0.0845058,-0.118332555197044,-0.00359633700869777));
#967=CARTESIAN_POINT('',(-0.0845058,-0.0566397768116965,0.00650083631306242));
#968=CARTESIAN_POINT('',(-0.0845058,-0.0724945536202601,0.0363915578743283));
#969=CARTESIAN_POINT('',(-0.0845058,-0.0633883496265193,0.0192237975618667));
#970=CARTESIAN_POINT('',(-0.0845058,-0.11725904125929,-0.00589832915148391));
#971=CARTESIAN_POINT('',(-0.0845058,-0.00245243429335313,0.0476407296634506));
#972=CARTESIAN_POINT('',(-0.0845058,0.045777933273309,0.0338123353064092));
#973=CARTESIAN_POINT('',(-0.0845058,-0.0518870281414353,0.0618143943709941));
#974=CARTESIAN_POINT('',(-0.0845058,-0.0567873884777379,0.0447230261234141));
#975=CARTESIAN_POINT('',(-0.0845058,-0.0567873884777377,0.0447230261234139));
#976=CARTESIAN_POINT('',(-0.0845058,-0.0567873884777377,0.0542797761234139));
#977=CARTESIAN_POINT('',(-0.148056600000015,-0.033605158370954,0.00784767224455662));
#978=CARTESIAN_POINT('',(-0.148056600000015,-0.0336051583708988,0.00784767224455655));
#979=CARTESIAN_POINT('',(-0.148056600000015,-0.0282711583729315,0.0078478195035989));
#980=CARTESIAN_POINT('',(-0.148056600000015,-0.033605158370954,0.00784767224455662));
#981=CARTESIAN_POINT('',(-0.148056600000015,-0.023064158374971,0.00784796325647364));
#982=CARTESIAN_POINT('',(-0.148056600000015,-0.033605158370954,0.00784767224455662));
#983=CARTESIAN_POINT('',(-0.148056600000015,-0.0336055839301912,0.0232622297125286));
#984=CARTESIAN_POINT('',(-0.140981742214881,-0.0414196141498406,0.0232620139857554));
#985=CARTESIAN_POINT('',(-0.140981742214881,-0.025791553710542,0.0232624454393017));
#986=CARTESIAN_POINT('',(-0.148056600000015,-0.0336054711621473,0.0191775586673598));
#987=CARTESIAN_POINT('',(-0.148056600000015,-0.0336049416897366,-9.27752452448832E-7));
#988=CARTESIAN_POINT('',(-0.148056600000015,-0.0336049416897366,-9.27752452448832E-7));
#989=CARTESIAN_POINT('',(-0.148056600000015,-0.0389389416877039,-1.07501149479369E-6));
#990=CARTESIAN_POINT('',(-0.148056600000015,0.0184659908837643,0.00784910980503207));
#991=CARTESIAN_POINT('',(-0.148056600000015,0.0184659908837642,0.00784910980503207));
#992=CARTESIAN_POINT('',(-0.148056600000015,0.0236221908817992,0.00784925215543967));
#993=CARTESIAN_POINT('',(-0.148056600000015,0.0184662075649265,5.09808022967212E-7));
#994=CARTESIAN_POINT('',(-0.148056600000015,0.0236224075629615,6.52158430567238E-7));
#995=CARTESIAN_POINT('',(-0.148056600000015,-0.033605158370954,0.00784767224455662));
#996=CARTESIAN_POINT('',(-0.148056600000015,0.0184659908837643,0.0078491098050321));
#997=CARTESIAN_POINT('',(-0.148056600000015,0.0290069908797472,0.00784940081694912));
#998=CARTESIAN_POINT('',(-0.148056600000015,0.0184659908837643,0.00784910980503207));
#999=CARTESIAN_POINT('',(-0.148056600000015,0.018465565324527,0.0232636672730048));
#1000=CARTESIAN_POINT('',(-0.140981742214881,0.0106515351048778,0.0232634515462314));
#1001=CARTESIAN_POINT('',(-0.140981742214881,0.0262795955441761,0.0232638829997777));
#1002=CARTESIAN_POINT('',(-0.148056600000015,0.0184656780925709,0.0191789962278356));
#1003=CARTESIAN_POINT('',(-1.49308381569794E-14,-0.0381010575991658,0.00784754812348211));
#1004=CARTESIAN_POINT('',(-1.49308381569794E-14,-0.0381010575991658,0.00784754812348211));
#1005=CARTESIAN_POINT('',(-1.49308381569794E-14,-0.0329448576011308,0.00784769047388971));
#1006=CARTESIAN_POINT('',(-1.48933556471751E-14,-0.0381008409180035,-1.05187352681876E-6));
#1007=CARTESIAN_POINT('',(-1.48933556471751E-14,-0.0329446409199685,-9.09523119218738E-7));
#1008=CARTESIAN_POINT('',(-0.148056600000015,-0.033605158370954,0.00784767224455662));
#1009=CARTESIAN_POINT('',(-1.49308381569794E-14,-0.0381010575991658,0.00784754812348213));
#1010=CARTESIAN_POINT('',(-1.49308381569794E-14,-0.0275600576031829,0.00784783913539915));
#1011=CARTESIAN_POINT('',(-1.49308381569794E-14,-0.0381010575991658,0.00784754812348211));
#1012=CARTESIAN_POINT('',(-1.50044533624482E-14,-0.0381014831584032,0.0232621055914532));
#1013=CARTESIAN_POINT('',(-0.00707485778511873,-0.0302874529387265,0.0232623213182264));
#1014=CARTESIAN_POINT('',(-0.00707485778511877,-0.0459155133780797,0.0232618898646801));
#1015=CARTESIAN_POINT('',(-1.49849462245438E-14,-0.0381013703903592,0.0191774345463015));
#1016=CARTESIAN_POINT('',(-1.50990331349022E-14,8.610287274676E-15,-8.23954876977557E-15));
#1017=CARTESIAN_POINT('',(-1.51365156447065E-14,-2.16681153703252E-7,0.00784859999700077));
#1018=CARTESIAN_POINT('',(-1.51365156447065E-14,0.00515598331688132,0.00784874234740837));
#1019=CARTESIAN_POINT('',(-1.50990331349022E-14,8.610287274676E-15,-8.23954876977557E-15));
#1020=CARTESIAN_POINT('',(-1.50990331349022E-14,-0.00515619999802641,-1.42350415839575E-7));
#1021=CARTESIAN_POINT('',(-0.148056600000015,-0.033605158370954,0.00784767224455662));
#1022=CARTESIAN_POINT('',(-1.51365156447064E-14,-2.16681153704553E-7,0.00784859999700077));
#1023=CARTESIAN_POINT('',(-1.51365156447064E-14,0.0105407833148292,0.00784889100891779));
#1024=CARTESIAN_POINT('',(-1.51365156447064E-14,-2.16681153704553E-7,0.00784859999700074));
#1025=CARTESIAN_POINT('',(-1.52101308501752E-14,-6.42240391013002E-7,0.0232631574649723));
#1026=CARTESIAN_POINT('',(-0.00707485778511874,0.00781338797928576,0.0232633731917455));
#1027=CARTESIAN_POINT('',(-0.00707485778511873,-0.0078146724600678,0.0232629417381991));
#1028=CARTESIAN_POINT('',(-1.51906237122709E-14,-5.29472347011312E-7,0.0191784864198207));
#1029=CARTESIAN_POINT('',(-0.119639620783945,-0.059330788627755,-0.11541923802583));
#1030=CARTESIAN_POINT('',(-0.0223500085505428,-0.0593339750329368,-1.63806981426026E-6));
#1031=CARTESIAN_POINT('',(-0.0223500085505428,-0.0593339750329379,-1.63806981422903E-6));
#1032=CARTESIAN_POINT('',(-0.119639620783945,-0.0593339750329369,-1.63806981461067E-6));
#1033=CARTESIAN_POINT('',(-0.0223500085505428,-0.0593307886277552,-0.11541923802583));
#1034=CARTESIAN_POINT('',(-0.0223500085505428,-0.0593342947954303,0.0115807619257719));
#1035=CARTESIAN_POINT('',(-0.0559308,-0.0593342947954303,0.0115807619257719));
#1036=CARTESIAN_POINT('',(-0.119639620783945,-0.0593342947954304,0.0115807619257716));
#1037=CARTESIAN_POINT('',(-0.119639620783945,-0.0593307886277553,-0.11541923802583));
#1038=CARTESIAN_POINT('',(-0.0559308,-0.0566397768116965,0.00650083631306242));
#1039=CARTESIAN_POINT('',(-0.0203321849511599,-0.0588313777924301,0.0106326216721045));
#1040=CARTESIAN_POINT('',(-0.0433975534552163,-0.0645801290731248,0.0214706376171421));
#1041=CARTESIAN_POINT('',(0.0529717,-0.064580129073125,0.0214706376171419));
#1042=CARTESIAN_POINT('',(-0.0559308,-0.0724945536202601,0.0363915578743283));
#1043=CARTESIAN_POINT('',(-0.0635508,-0.0633883496265193,0.0192237975618666));
#1044=CARTESIAN_POINT('',(-0.0559308,-0.0724945536202601,0.0363915578743283));
#1045=CARTESIAN_POINT('',(-0.0921258,-0.0724945536202601,0.0363915578743283));
#1046=CARTESIAN_POINT('',(-0.0921258,-0.0566397768116965,0.00650083631306242));
#1047=CARTESIAN_POINT('',(-0.0921258,-0.064580129073125,0.0214706376171422));
#1048=CARTESIAN_POINT('',(-0.0559308,-0.064580129073125,0.0214706376171421));
#1049=CARTESIAN_POINT('',(-0.104230097460699,-0.0645801290731248,0.0214706376171421));
#1050=CARTESIAN_POINT('',(-0.0747598056902783,-0.0746126436097507,0.0403847543022576));
#1051=CARTESIAN_POINT('',(0.00217169999999989,0.045777933273309,0.0338123353064092));
#1052=CARTESIAN_POINT('',(0.00217169999999989,-0.00617408726583885,0.0487077852875335));
#1053=CARTESIAN_POINT('',(-0.0511465411372374,-0.0061740872658392,0.0487077852875335));
#1054=CARTESIAN_POINT('',(-0.018599113379767,0.0593593645757608,0.0299183283257701));
#1055=CARTESIAN_POINT('',(-0.0380731903609277,0.0201487856165187,0.0411606094066033));
#1056=CARTESIAN_POINT('',(-0.145198679602152,0.033510008148828,0.037329739695449));
#1057=CARTESIAN_POINT('',(-0.114732050950145,0.0297100590600348,0.0384192440303242));
#1058=CARTESIAN_POINT('',(-0.140263024957352,0.0811160524318559,0.0236803485060786));
#1059=CARTESIAN_POINT('',(-0.0969100588627628,-0.00617408726583916,0.0487077852875335));
#1060=CARTESIAN_POINT('',(0.00217170000000005,-0.00617408726583877,0.0487077852875335));
#1061=CARTESIAN_POINT('',(-0.0921258,-0.0061740872658391,0.0487077852875335));
#1062=CARTESIAN_POINT('',(-0.0921258,0.045777933273309,0.0338123353064092));
#1063=CARTESIAN_POINT('',(-0.0921258,-0.0518870281414353,0.0618143943709941));
#1064=CARTESIAN_POINT('',(0.00217169999999989,-0.0518870281414353,0.0618143943709941));
#1065=CARTESIAN_POINT('',(0.00217169999999989,-0.00245243429335333,0.0476407296634507));
#1066=CARTESIAN_POINT('',(0.00217169999999989,-0.0518870281414353,0.0618143943709941));
#1067=CARTESIAN_POINT('',(0.00217169999999989,-0.0567873884777379,0.0447230261234141));
#1068=CARTESIAN_POINT('',(-0.0921258,-0.0567873884777377,0.0447230261234139));
#1069=CARTESIAN_POINT('',(0.0152399999999995,4.14101773091868E-5,0.0649224011679697));
#1070=CARTESIAN_POINT('',(0.0152399999999995,4.32025302265117E-5,1.19271126512005E-9));
#1071=CARTESIAN_POINT('',(0.0152399999999995,0.013500488966195,3.72716354130399E-7));
#1072=CARTESIAN_POINT('',(0.0152399999999995,-0.0499656286213623,-1.37943207127185E-6));
#1073=CARTESIAN_POINT('',(0.0152399999999995,0.0134986966132788,0.0649227726916146));
#1074=CARTESIAN_POINT('',(0.0152399999999995,0.0134998467257951,0.0232635301813349));
#1075=CARTESIAN_POINT('',(0.0152399999999995,0.0825916851997559,0.0232654376425228));
#1076=CARTESIAN_POINT('',(0.0152399999999995,-0.0499662708617622,0.0232617780329087));
#1077=CARTESIAN_POINT('',(0.0152399999999995,-0.0499674209742786,0.0649210205431871));
#1078=CARTESIAN_POINT('',(0.00217169999999989,-0.0567873884777379,0.0447230261234141));
#1079=CARTESIAN_POINT('',(0.0529717,-0.118332555197043,-0.00359633700869791));
#1080=CARTESIAN_POINT('',(0.00778880364257972,-0.0518234054114177,0.0274196243214756));
#1081=CARTESIAN_POINT('',(-0.0105792328404641,-0.0564011089032808,0.0252848522646643));
#1082=CARTESIAN_POINT('',(-0.0906689609721675,0.0427592415537862,0.0715274159596756));
#1083=CARTESIAN_POINT('',(0.0529717,-0.118332555197043,-0.00359633700869791));
#1084=CARTESIAN_POINT('',(-0.0921258,-0.118332555197044,-0.00359633700869766));
#1085=CARTESIAN_POINT('',(-0.0776971613912932,0.017613702891641,0.059801013543086));
#1086=CARTESIAN_POINT('',(-0.135489083493216,-0.0539393836638575,0.026432856337451));
#1087=CARTESIAN_POINT('',(0.0530588658373173,-0.118122230931476,-0.00349825412373171));
#1088=CARTESIAN_POINT('',(-0.0635508,-0.11725904125929,-0.00589832915148391));
#1089=CARTESIAN_POINT('',(-0.0921258,-0.0567873884777377,0.0447230261234139));
#1090=CARTESIAN_POINT('',(-0.0921258,-0.0567873884777377,0.0447230261234139));
#1091=CARTESIAN_POINT('',(-0.0921258,-0.0567873884777377,0.0542797761234139));
#1092=CARTESIAN_POINT('',(0.0036854469541039,-0.0528470972430227,0.06492094104218));
#1093=CARTESIAN_POINT('',(0.0036854469541039,-0.0528453048901056,-1.45893307760409E-6));
#1094=CARTESIAN_POINT('',(-0.175688896731782,-0.0975504059427216,0.0232604643482127));
#1095=CARTESIAN_POINT('',(-0.00707485778511872,-0.0555276773609112,0.0232616244957141));
#1096=CARTESIAN_POINT('',(-0.0161209380303005,-0.0577823252499542,0.0284843191169099));
#1097=CARTESIAN_POINT('',(-0.1632966,-0.0335635315124374,0.0649214734155259));
#1098=CARTESIAN_POINT('',(-0.1632966,-0.03356173915952,-9.2655973331357E-7));
#1099=CARTESIAN_POINT('',(-0.1632966,-0.0444726874298055,-1.22778504178052E-6));
#1100=CARTESIAN_POINT('',(-0.1632966,0.0357682832660962,9.87477145379567E-7));
#1101=CARTESIAN_POINT('',(-0.1632966,-0.0444744797827216,0.0649211721902169));
#1102=CARTESIAN_POINT('',(-0.1632966,-0.0444733296702053,0.0232619296799393));
#1103=CARTESIAN_POINT('',(-0.1632966,-0.0335623813999209,0.0232622309052476));
#1104=CARTESIAN_POINT('',(-0.1632966,0.0357676410256965,0.0232641449421274));
#1105=CARTESIAN_POINT('',(-0.1632966,0.03576649091318,0.0649233874524057));
#1106=CARTESIAN_POINT('',(-0.146170420784175,0.0336304457777778,0.0649233284812857));
#1107=CARTESIAN_POINT('',(-0.146170420784175,0.0336322381306954,9.28506024445303E-7));
#1108=CARTESIAN_POINT('',(-0.146170420784175,0.0336315958902943,0.0232640859710061));
#1109=CARTESIAN_POINT('',(-0.140981742214881,0.0329844432780603,0.0232640681046629));
#1110=CARTESIAN_POINT('',(-0.127057264175018,0.0312475050916969,0.0313033212996374));
#1111=CARTESIAN_POINT('',(-0.129628506577998,0.031566469193632,0.0940204111054782));
#1112=CARTESIAN_POINT('',(-0.0070748577851195,0.0162830444734312,0.0232636070187993));
#1113=CARTESIAN_POINT('',(-0.225457793972741,0.0435206321816903,0.0232643589837573));
#1114=CARTESIAN_POINT('',(-0.0888717623774182,-0.0698094648546821,0.0649204727515888));
#1115=CARTESIAN_POINT('',(-0.119639620783945,-0.0593339750329374,-1.63806981443374E-6));
#1116=CARTESIAN_POINT('',(-0.0842609952042288,-0.071378771699449,0.0560089254524497));
#1117=CARTESIAN_POINT('',(-0.140981742214881,-0.052069538233479,0.0232617199667034));
#1118=CARTESIAN_POINT('',(-0.0888717623774182,-0.0698083147421657,0.0232612302413109));
#1119=CARTESIAN_POINT('',(-0.053681841433156,0.0825909423186206,0.050173992187579));
#1120=CARTESIAN_POINT('',(-0.00707485778511875,0.0825916851997561,0.0232654376425228));
#1121=CARTESIAN_POINT('',(-0.00707485778511875,0.0825916851997561,0.0232654376425228));
#1122=CARTESIAN_POINT('',(-0.00707485778511875,0.0825916851997561,0.0232654376425228));
#1123=CARTESIAN_POINT('',(-0.22058469695874,0.0825916851997558,0.0232654376425228));
#1124=CARTESIAN_POINT('',(-0.138034696958756,0.0825916382260164,0.0249669150138125));
#1125=CARTESIAN_POINT('',(-0.140981742214881,0.0825916851997559,0.0232654376425228));
#1126=CARTESIAN_POINT('',(-0.140981742214881,0.0825916851997559,0.0232654376425228));
#1127=CARTESIAN_POINT('',(-0.140981742214881,0.0825916851997559,0.0232654376425228));
#1128=CARTESIAN_POINT('',(-0.22058469695874,0.0825916851997558,0.0232654376425228));
#1129=CARTESIAN_POINT('',(-0.148056600000016,0.0184662075649708,5.09808022962008E-7));
#1130=CARTESIAN_POINT('',(-0.0921258,-0.0567873884777377,0.0447230261234139));
#1131=CARTESIAN_POINT('',(-0.0921258,-0.0567873884777377,0.0447230261234139));
#1132=MECHANICAL_DESIGN_GEOMETRIC_PRESENTATION_REPRESENTATION('',(#677),
#1133);
#1133=(
GEOMETRIC_REPRESENTATION_CONTEXT(3)
GLOBAL_UNCERTAINTY_ASSIGNED_CONTEXT((#1134))
GLOBAL_UNIT_ASSIGNED_CONTEXT((#1137,#1136,#1135))
REPRESENTATION_CONTEXT('a279837B8p1l','TOP_LEVEL_ASSEMBLY_PART')
);
#1134=UNCERTAINTY_MEASURE_WITH_UNIT(LENGTH_MEASURE(1.E-8),#1137,
'DISTANCE_ACCURACY_VALUE','Maximum Tolerance applied to model');
#1135=(
NAMED_UNIT(*)
SI_UNIT($,.STERADIAN.)
SOLID_ANGLE_UNIT()
);
#1136=(
NAMED_UNIT(*)
PLANE_ANGLE_UNIT()
SI_UNIT($,.RADIAN.)
);
#1137=(
LENGTH_UNIT()
NAMED_UNIT(*)
SI_UNIT($,.METRE.)
);
#1138=PRODUCT_DEFINITION_SHAPE('','',#1139);
#1139=PRODUCT_DEFINITION('','',#1141,#1140);
#1140=PRODUCT_DEFINITION_CONTEXT('',#1147,'design');
#1141=PRODUCT_DEFINITION_FORMATION_WITH_SPECIFIED_SOURCE('','',#1143,
 .NOT_KNOWN.);
#1142=PRODUCT_RELATED_PRODUCT_CATEGORY('','',(#1143));
#1143=PRODUCT('a279837B8p1l','a279837B8p1l','a279837B8p1l',(#1145));
#1144=PRODUCT_CATEGORY('','');
#1145=PRODUCT_CONTEXT('',#1147,'mechanical');
#1146=APPLICATION_PROTOCOL_DEFINITION('international standard',
'ap242_managed_model_based_3d_engineering',2011,#1147);
#1147=APPLICATION_CONTEXT('managed model based 3d engineering');
ENDSEC;
END-ISO-10303-21;
