ISO-10303-21;
HEADER;
/* Generated by software containing ST-Developer
 * from STEP Tools, Inc. (www.steptools.com) 
 */
/* OPTION: using custom renumber hook */

FILE_DESCRIPTION(
/* description */ ('STEP AP242',
'CAx-IF Rec.Pracs.---Representation and Presentation of Product Manufa
cturing Information (PMI)---4.0---2014-10-13',
'CAx-IF Rec.Pracs.---3D Tessellated Geometry---0.4---2014-09-14','2;1'),

/* implementation_level */ '2;1');

FILE_NAME(
/* name */ '688b68af7efd45717e253322',
/* time_stamp */ '2025-07-31T12:59:28Z',
/* author */ (''),
/* organization */ (''),
/* preprocessor_version */ 'ST-DEVELOPER v20',
/* originating_system */ 'ONSHAPE BY PTC INC, 1.201',
/* authorisation */ '  ');

FILE_SCHEMA (('AP242_MANAGED_MODEL_BASED_3D_ENGINEERING_MIM_LF { 1 0 10303 442 1 1 4 }'));
ENDSEC;

DATA;
#10=SHAPE_REPRESENTATION_RELATIONSHIP('','',#1041,#11);
#11=ADVANCED_BREP_SHAPE_REPRESENTATION('',(#1039),#1795);
#12=CONICAL_SURFACE('',#1084,0.01019175,0.78539816339745);
#13=CONICAL_SURFACE('',#1087,0.01019175,0.78539816339745);
#14=CONICAL_SURFACE('',#1090,0.01019175,0.78539816339745);
#15=CONICAL_SURFACE('',#1093,0.01019175,0.78539816339745);
#16=LINE('',#1579,#90);
#17=LINE('',#1582,#91);
#18=LINE('',#1584,#92);
#19=LINE('',#1586,#93);
#20=LINE('',#1613,#94);
#21=LINE('',#1617,#95);
#22=LINE('',#1622,#96);
#23=LINE('',#1626,#97);
#24=LINE('',#1631,#98);
#25=LINE('',#1635,#99);
#26=LINE('',#1640,#100);
#27=LINE('',#1644,#101);
#28=LINE('',#1646,#102);
#29=LINE('',#1648,#103);
#30=LINE('',#1649,#104);
#31=LINE('',#1651,#105);
#32=LINE('',#1653,#106);
#33=LINE('',#1654,#107);
#34=LINE('',#1655,#108);
#35=LINE('',#1657,#109);
#36=LINE('',#1659,#110);
#37=LINE('',#1660,#111);
#38=LINE('',#1662,#112);
#39=LINE('',#1664,#113);
#40=LINE('',#1666,#114);
#41=LINE('',#1668,#115);
#42=LINE('',#1670,#116);
#43=LINE('',#1672,#117);
#44=LINE('',#1674,#118);
#45=LINE('',#1675,#119);
#46=LINE('',#1677,#120);
#47=LINE('',#1679,#121);
#48=LINE('',#1680,#122);
#49=LINE('',#1681,#123);
#50=LINE('',#1683,#124);
#51=LINE('',#1688,#125);
#52=LINE('',#1691,#126);
#53=LINE('',#1693,#127);
#54=LINE('',#1695,#128);
#55=LINE('',#1700,#129);
#56=LINE('',#1702,#130);
#57=LINE('',#1704,#131);
#58=LINE('',#1706,#132);
#59=LINE('',#1713,#133);
#60=LINE('',#1715,#134);
#61=LINE('',#1717,#135);
#62=LINE('',#1721,#136);
#63=LINE('',#1723,#137);
#64=LINE('',#1726,#138);
#65=LINE('',#1728,#139);
#66=LINE('',#1730,#140);
#67=LINE('',#1732,#141);
#68=LINE('',#1735,#142);
#69=LINE('',#1737,#143);
#70=LINE('',#1741,#144);
#71=LINE('',#1742,#145);
#72=LINE('',#1746,#146);
#73=LINE('',#1748,#147);
#74=LINE('',#1750,#148);
#75=LINE('',#1752,#149);
#76=LINE('',#1756,#150);
#77=LINE('',#1758,#151);
#78=LINE('',#1760,#152);
#79=LINE('',#1761,#153);
#80=LINE('',#1763,#154);
#81=LINE('',#1764,#155);
#82=LINE('',#1766,#156);
#83=LINE('',#1768,#157);
#84=LINE('',#1773,#158);
#85=LINE('',#1774,#159);
#86=LINE('',#1776,#160);
#87=LINE('',#1777,#161);
#88=LINE('',#1779,#162);
#89=LINE('',#1781,#163);
#90=VECTOR('',#1241,1.);
#91=VECTOR('',#1242,1.);
#92=VECTOR('',#1243,1.);
#93=VECTOR('',#1244,1.);
#94=VECTOR('',#1277,1.);
#95=VECTOR('',#1280,1.);
#96=VECTOR('',#1285,1.);
#97=VECTOR('',#1288,1.);
#98=VECTOR('',#1293,1.);
#99=VECTOR('',#1296,1.);
#100=VECTOR('',#1301,1.);
#101=VECTOR('',#1304,1.);
#102=VECTOR('',#1307,1.);
#103=VECTOR('',#1308,1.);
#104=VECTOR('',#1309,1.);
#105=VECTOR('',#1310,1.);
#106=VECTOR('',#1311,1.);
#107=VECTOR('',#1312,1.);
#108=VECTOR('',#1313,1.);
#109=VECTOR('',#1314,1.);
#110=VECTOR('',#1315,1.);
#111=VECTOR('',#1316,1.);
#112=VECTOR('',#1317,1.);
#113=VECTOR('',#1320,1.);
#114=VECTOR('',#1321,1.);
#115=VECTOR('',#1322,1.);
#116=VECTOR('',#1323,1.);
#117=VECTOR('',#1324,1.);
#118=VECTOR('',#1325,1.);
#119=VECTOR('',#1326,1.);
#120=VECTOR('',#1327,1.);
#121=VECTOR('',#1328,1.);
#122=VECTOR('',#1329,1.);
#123=VECTOR('',#1330,1.);
#124=VECTOR('',#1331,1.);
#125=VECTOR('',#1340,1.);
#126=VECTOR('',#1341,1.);
#127=VECTOR('',#1342,1.);
#128=VECTOR('',#1343,1.);
#129=VECTOR('',#1352,1.);
#130=VECTOR('',#1353,1.);
#131=VECTOR('',#1356,1.);
#132=VECTOR('',#1357,1.);
#133=VECTOR('',#1370,1.);
#134=VECTOR('',#1371,1.);
#135=VECTOR('',#1372,1.);
#136=VECTOR('',#1375,1.);
#137=VECTOR('',#1378,1.);
#138=VECTOR('',#1379,1.);
#139=VECTOR('',#1380,1.);
#140=VECTOR('',#1381,1.);
#141=VECTOR('',#1384,1.);
#142=VECTOR('',#1385,1.);
#143=VECTOR('',#1386,1.);
#144=VECTOR('',#1389,1.);
#145=VECTOR('',#1390,1.);
#146=VECTOR('',#1393,1.);
#147=VECTOR('',#1394,1.);
#148=VECTOR('',#1397,1.);
#149=VECTOR('',#1398,1.);
#150=VECTOR('',#1401,1.);
#151=VECTOR('',#1402,1.);
#152=VECTOR('',#1405,1.);
#153=VECTOR('',#1406,1.);
#154=VECTOR('',#1409,1.);
#155=VECTOR('',#1410,1.);
#156=VECTOR('',#1413,1.);
#157=VECTOR('',#1416,1.);
#158=VECTOR('',#1425,1.);
#159=VECTOR('',#1426,1.);
#160=VECTOR('',#1429,1.);
#161=VECTOR('',#1430,1.);
#162=VECTOR('',#1433,1.);
#163=VECTOR('',#1436,1.);
#164=ELLIPSE('',#1049,0.0121716983750557,0.010541);
#165=ELLIPSE('',#1061,0.0121716983750557,0.010541);
#166=ELLIPSE('',#1071,0.0121716983750558,0.010541);
#167=ELLIPSE('',#1081,0.0121716983750558,0.010541);
#168=ELLIPSE('',#1099,0.00317918731835984,0.003175);
#169=ELLIPSE('',#1100,0.00483950355029097,0.003175);
#170=ELLIPSE('',#1102,0.00317918731835984,0.003175);
#171=ELLIPSE('',#1103,0.00483950355029097,0.003175);
#172=ELLIPSE('',#1105,0.00317918731835984,0.003175);
#173=ELLIPSE('',#1106,0.00483950355029097,0.003175);
#174=ELLIPSE('',#1108,0.00317918731835984,0.003175);
#175=ELLIPSE('',#1109,0.00483950355029097,0.003175);
#176=ELLIPSE('',#1127,0.0130884747702954,0.0127000000000004);
#177=ELLIPSE('',#1130,0.0127983998410761,0.0126999999999999);
#178=ELLIPSE('',#1131,0.0127983998410767,0.0127000000000004);
#179=ELLIPSE('',#1133,0.0134156683502345,0.0126999999999999);
#180=B_SPLINE_CURVE_WITH_KNOTS('',3,(#1471,#1472,#1473,#1474,#1475,#1476),
 .UNSPECIFIED.,.F.,.F.,(4,1,1,4),(7.44283304472518E-16,0.00239998673938666,
0.00479997347877258,0.00959994695754442),.UNSPECIFIED.);
#181=B_SPLINE_CURVE_WITH_KNOTS('',3,(#1481,#1482,#1483,#1484,#1485),
 .UNSPECIFIED.,.F.,.F.,(4,1,4),(3.52861688065784E-16,0.00479659161682952,
0.00959318323365869),.UNSPECIFIED.);
#182=B_SPLINE_CURVE_WITH_KNOTS('',3,(#1503,#1504,#1505,#1506,#1507,#1508),
 .UNSPECIFIED.,.F.,.F.,(4,1,1,4),(7.67210752826985E-17,0.00239998673938683,
0.00479997347877359,0.0095999469575471),.UNSPECIFIED.);
#183=B_SPLINE_CURVE_WITH_KNOTS('',3,(#1513,#1514,#1515,#1516,#1517),
 .UNSPECIFIED.,.F.,.F.,(4,1,4),(7.6808885567649E-16,0.00479659161683052,
0.00959318323366028),.UNSPECIFIED.);
#184=B_SPLINE_CURVE_WITH_KNOTS('',3,(#1532,#1533,#1534,#1535,#1536,#1537),
 .UNSPECIFIED.,.F.,.F.,(4,1,1,4),(2.50786063700509E-17,0.00239998673936983,
0.00479997347873964,0.00959994695747926),.UNSPECIFIED.);
#185=B_SPLINE_CURVE_WITH_KNOTS('',3,(#1542,#1543,#1544,#1545,#1546),
 .UNSPECIFIED.,.F.,.F.,(4,1,4),(3.32977493881652E-15,0.00479659161679564,
0.00959318323358795),.UNSPECIFIED.);
#186=B_SPLINE_CURVE_WITH_KNOTS('',3,(#1561,#1562,#1563,#1564,#1565,#1566),
 .UNSPECIFIED.,.F.,.F.,(4,1,1,4),(3.40819086570654E-17,0.00239998673936975,
0.00479997347873947,0.0095999469574789),.UNSPECIFIED.);
#187=B_SPLINE_CURVE_WITH_KNOTS('',3,(#1571,#1572,#1573,#1574,#1575),
 .UNSPECIFIED.,.F.,.F.,(4,1,4),(3.30150521573496E-15,0.00479659161679536,
0.00959318323358743),.UNSPECIFIED.);
#188=CYLINDRICAL_SURFACE('',#1048,0.010541);
#189=CYLINDRICAL_SURFACE('',#1051,0.005334);
#190=CYLINDRICAL_SURFACE('',#1056,0.0051562);
#191=CYLINDRICAL_SURFACE('',#1060,0.010541);
#192=CYLINDRICAL_SURFACE('',#1066,0.0051562);
#193=CYLINDRICAL_SURFACE('',#1070,0.010541);
#194=CYLINDRICAL_SURFACE('',#1076,0.0051562);
#195=CYLINDRICAL_SURFACE('',#1080,0.010541);
#196=CYLINDRICAL_SURFACE('',#1096,0.00955675);
#197=CYLINDRICAL_SURFACE('',#1097,0.00955675);
#198=CYLINDRICAL_SURFACE('',#1098,0.003175);
#199=CYLINDRICAL_SURFACE('',#1101,0.003175);
#200=CYLINDRICAL_SURFACE('',#1104,0.003175);
#201=CYLINDRICAL_SURFACE('',#1107,0.003175);
#202=CYLINDRICAL_SURFACE('',#1112,0.01778);
#203=CYLINDRICAL_SURFACE('',#1116,0.01778);
#204=CYLINDRICAL_SURFACE('',#1134,0.0127000000000004);
#205=CYLINDRICAL_SURFACE('',#1136,0.0127000000000004);
#206=CYLINDRICAL_SURFACE('',#1137,0.0127000000000004);
#207=CYLINDRICAL_SURFACE('',#1141,0.0126999999999999);
#208=CYLINDRICAL_SURFACE('',#1143,0.0126999999999999);
#209=CYLINDRICAL_SURFACE('',#1144,0.0126999999999999);
#210=CYLINDRICAL_SURFACE('',#1148,0.0152399999999997);
#211=CYLINDRICAL_SURFACE('',#1150,0.01524);
#212=CYLINDRICAL_SURFACE('',#1152,0.0152400000000002);
#213=CYLINDRICAL_SURFACE('',#1154,0.01524);
#214=PLANE('',#1046);
#215=PLANE('',#1059);
#216=PLANE('',#1069);
#217=PLANE('',#1079);
#218=PLANE('',#1083);
#219=PLANE('',#1110);
#220=PLANE('',#1111);
#221=PLANE('',#1115);
#222=PLANE('',#1119);
#223=PLANE('',#1120);
#224=PLANE('',#1121);
#225=PLANE('',#1122);
#226=PLANE('',#1123);
#227=PLANE('',#1124);
#228=PLANE('',#1125);
#229=PLANE('',#1126);
#230=PLANE('',#1128);
#231=PLANE('',#1129);
#232=PLANE('',#1132);
#233=PLANE('',#1135);
#234=PLANE('',#1138);
#235=PLANE('',#1142);
#236=PLANE('',#1145);
#237=PLANE('',#1156);
#238=ORIENTED_EDGE('',*,*,#514,.F.);
#239=ORIENTED_EDGE('',*,*,#515,.F.);
#240=ORIENTED_EDGE('',*,*,#516,.F.);
#241=ORIENTED_EDGE('',*,*,#514,.T.);
#242=ORIENTED_EDGE('',*,*,#517,.F.);
#243=ORIENTED_EDGE('',*,*,#518,.F.);
#244=ORIENTED_EDGE('',*,*,#519,.F.);
#245=ORIENTED_EDGE('',*,*,#520,.F.);
#246=ORIENTED_EDGE('',*,*,#515,.T.);
#247=ORIENTED_EDGE('',*,*,#521,.F.);
#248=ORIENTED_EDGE('',*,*,#516,.T.);
#249=ORIENTED_EDGE('',*,*,#522,.F.);
#250=ORIENTED_EDGE('',*,*,#523,.F.);
#251=ORIENTED_EDGE('',*,*,#524,.F.);
#252=ORIENTED_EDGE('',*,*,#525,.T.);
#253=ORIENTED_EDGE('',*,*,#524,.T.);
#254=ORIENTED_EDGE('',*,*,#522,.T.);
#255=ORIENTED_EDGE('',*,*,#526,.F.);
#256=ORIENTED_EDGE('',*,*,#527,.F.);
#257=ORIENTED_EDGE('',*,*,#528,.F.);
#258=ORIENTED_EDGE('',*,*,#529,.F.);
#259=ORIENTED_EDGE('',*,*,#523,.T.);
#260=ORIENTED_EDGE('',*,*,#530,.F.);
#261=ORIENTED_EDGE('',*,*,#531,.F.);
#262=ORIENTED_EDGE('',*,*,#532,.F.);
#263=ORIENTED_EDGE('',*,*,#533,.T.);
#264=ORIENTED_EDGE('',*,*,#532,.T.);
#265=ORIENTED_EDGE('',*,*,#530,.T.);
#266=ORIENTED_EDGE('',*,*,#534,.F.);
#267=ORIENTED_EDGE('',*,*,#535,.F.);
#268=ORIENTED_EDGE('',*,*,#536,.F.);
#269=ORIENTED_EDGE('',*,*,#537,.F.);
#270=ORIENTED_EDGE('',*,*,#531,.T.);
#271=ORIENTED_EDGE('',*,*,#538,.F.);
#272=ORIENTED_EDGE('',*,*,#539,.F.);
#273=ORIENTED_EDGE('',*,*,#540,.F.);
#274=ORIENTED_EDGE('',*,*,#541,.F.);
#275=ORIENTED_EDGE('',*,*,#540,.T.);
#276=ORIENTED_EDGE('',*,*,#538,.T.);
#277=ORIENTED_EDGE('',*,*,#542,.F.);
#278=ORIENTED_EDGE('',*,*,#543,.F.);
#279=ORIENTED_EDGE('',*,*,#544,.F.);
#280=ORIENTED_EDGE('',*,*,#545,.F.);
#281=ORIENTED_EDGE('',*,*,#539,.T.);
#282=ORIENTED_EDGE('',*,*,#546,.F.);
#283=ORIENTED_EDGE('',*,*,#547,.T.);
#284=ORIENTED_EDGE('',*,*,#548,.T.);
#285=ORIENTED_EDGE('',*,*,#549,.F.);
#286=ORIENTED_EDGE('',*,*,#550,.F.);
#287=ORIENTED_EDGE('',*,*,#551,.F.);
#288=ORIENTED_EDGE('',*,*,#552,.F.);
#289=ORIENTED_EDGE('',*,*,#553,.F.);
#290=ORIENTED_EDGE('',*,*,#554,.F.);
#291=ORIENTED_EDGE('',*,*,#555,.F.);
#292=ORIENTED_EDGE('',*,*,#556,.F.);
#293=ORIENTED_EDGE('',*,*,#557,.F.);
#294=ORIENTED_EDGE('',*,*,#551,.T.);
#295=ORIENTED_EDGE('',*,*,#553,.T.);
#296=ORIENTED_EDGE('',*,*,#555,.T.);
#297=ORIENTED_EDGE('',*,*,#557,.T.);
#298=ORIENTED_EDGE('',*,*,#558,.F.);
#299=ORIENTED_EDGE('',*,*,#559,.F.);
#300=ORIENTED_EDGE('',*,*,#560,.F.);
#301=ORIENTED_EDGE('',*,*,#561,.F.);
#302=ORIENTED_EDGE('',*,*,#562,.F.);
#303=ORIENTED_EDGE('',*,*,#563,.F.);
#304=ORIENTED_EDGE('',*,*,#564,.F.);
#305=ORIENTED_EDGE('',*,*,#565,.F.);
#306=ORIENTED_EDGE('',*,*,#566,.F.);
#307=ORIENTED_EDGE('',*,*,#567,.F.);
#308=ORIENTED_EDGE('',*,*,#568,.F.);
#309=ORIENTED_EDGE('',*,*,#569,.F.);
#310=ORIENTED_EDGE('',*,*,#570,.F.);
#311=ORIENTED_EDGE('',*,*,#571,.F.);
#312=ORIENTED_EDGE('',*,*,#572,.F.);
#313=ORIENTED_EDGE('',*,*,#573,.F.);
#314=ORIENTED_EDGE('',*,*,#548,.F.);
#315=ORIENTED_EDGE('',*,*,#574,.F.);
#316=ORIENTED_EDGE('',*,*,#575,.T.);
#317=ORIENTED_EDGE('',*,*,#570,.T.);
#318=ORIENTED_EDGE('',*,*,#576,.T.);
#319=ORIENTED_EDGE('',*,*,#577,.T.);
#320=ORIENTED_EDGE('',*,*,#578,.F.);
#321=ORIENTED_EDGE('',*,*,#562,.T.);
#322=ORIENTED_EDGE('',*,*,#579,.T.);
#323=ORIENTED_EDGE('',*,*,#558,.T.);
#324=ORIENTED_EDGE('',*,*,#580,.F.);
#325=ORIENTED_EDGE('',*,*,#581,.T.);
#326=ORIENTED_EDGE('',*,*,#582,.F.);
#327=ORIENTED_EDGE('',*,*,#566,.T.);
#328=ORIENTED_EDGE('',*,*,#583,.T.);
#329=ORIENTED_EDGE('',*,*,#584,.F.);
#330=ORIENTED_EDGE('',*,*,#585,.T.);
#331=ORIENTED_EDGE('',*,*,#572,.T.);
#332=ORIENTED_EDGE('',*,*,#586,.T.);
#333=ORIENTED_EDGE('',*,*,#587,.F.);
#334=ORIENTED_EDGE('',*,*,#588,.T.);
#335=ORIENTED_EDGE('',*,*,#589,.F.);
#336=ORIENTED_EDGE('',*,*,#590,.T.);
#337=ORIENTED_EDGE('',*,*,#568,.T.);
#338=ORIENTED_EDGE('',*,*,#591,.T.);
#339=ORIENTED_EDGE('',*,*,#592,.F.);
#340=ORIENTED_EDGE('',*,*,#593,.T.);
#341=ORIENTED_EDGE('',*,*,#560,.T.);
#342=ORIENTED_EDGE('',*,*,#594,.T.);
#343=ORIENTED_EDGE('',*,*,#564,.T.);
#344=ORIENTED_EDGE('',*,*,#595,.T.);
#345=ORIENTED_EDGE('',*,*,#596,.F.);
#346=ORIENTED_EDGE('',*,*,#581,.F.);
#347=ORIENTED_EDGE('',*,*,#597,.T.);
#348=ORIENTED_EDGE('',*,*,#592,.T.);
#349=ORIENTED_EDGE('',*,*,#598,.F.);
#350=ORIENTED_EDGE('',*,*,#599,.F.);
#351=ORIENTED_EDGE('',*,*,#600,.F.);
#352=ORIENTED_EDGE('',*,*,#601,.F.);
#353=ORIENTED_EDGE('',*,*,#602,.T.);
#354=ORIENTED_EDGE('',*,*,#603,.T.);
#355=ORIENTED_EDGE('',*,*,#596,.T.);
#356=ORIENTED_EDGE('',*,*,#604,.T.);
#357=ORIENTED_EDGE('',*,*,#577,.F.);
#358=ORIENTED_EDGE('',*,*,#586,.F.);
#359=ORIENTED_EDGE('',*,*,#571,.T.);
#360=ORIENTED_EDGE('',*,*,#575,.F.);
#361=ORIENTED_EDGE('',*,*,#605,.T.);
#362=ORIENTED_EDGE('',*,*,#606,.F.);
#363=ORIENTED_EDGE('',*,*,#583,.F.);
#364=ORIENTED_EDGE('',*,*,#569,.T.);
#365=ORIENTED_EDGE('',*,*,#590,.F.);
#366=ORIENTED_EDGE('',*,*,#607,.F.);
#367=ORIENTED_EDGE('',*,*,#608,.T.);
#368=ORIENTED_EDGE('',*,*,#579,.F.);
#369=ORIENTED_EDGE('',*,*,#565,.T.);
#370=ORIENTED_EDGE('',*,*,#594,.F.);
#371=ORIENTED_EDGE('',*,*,#559,.T.);
#372=ORIENTED_EDGE('',*,*,#580,.T.);
#373=ORIENTED_EDGE('',*,*,#561,.T.);
#374=ORIENTED_EDGE('',*,*,#593,.F.);
#375=ORIENTED_EDGE('',*,*,#597,.F.);
#376=ORIENTED_EDGE('',*,*,#552,.T.);
#377=ORIENTED_EDGE('',*,*,#595,.F.);
#378=ORIENTED_EDGE('',*,*,#563,.T.);
#379=ORIENTED_EDGE('',*,*,#578,.T.);
#380=ORIENTED_EDGE('',*,*,#604,.F.);
#381=ORIENTED_EDGE('',*,*,#554,.T.);
#382=ORIENTED_EDGE('',*,*,#591,.F.);
#383=ORIENTED_EDGE('',*,*,#567,.T.);
#384=ORIENTED_EDGE('',*,*,#582,.T.);
#385=ORIENTED_EDGE('',*,*,#598,.T.);
#386=ORIENTED_EDGE('',*,*,#550,.T.);
#387=ORIENTED_EDGE('',*,*,#576,.F.);
#388=ORIENTED_EDGE('',*,*,#573,.T.);
#389=ORIENTED_EDGE('',*,*,#585,.F.);
#390=ORIENTED_EDGE('',*,*,#603,.F.);
#391=ORIENTED_EDGE('',*,*,#556,.T.);
#392=ORIENTED_EDGE('',*,*,#609,.F.);
#393=ORIENTED_EDGE('',*,*,#610,.F.);
#394=ORIENTED_EDGE('',*,*,#611,.F.);
#395=ORIENTED_EDGE('',*,*,#612,.F.);
#396=ORIENTED_EDGE('',*,*,#613,.F.);
#397=ORIENTED_EDGE('',*,*,#605,.F.);
#398=ORIENTED_EDGE('',*,*,#574,.T.);
#399=ORIENTED_EDGE('',*,*,#547,.F.);
#400=ORIENTED_EDGE('',*,*,#614,.F.);
#401=ORIENTED_EDGE('',*,*,#615,.F.);
#402=ORIENTED_EDGE('',*,*,#616,.F.);
#403=ORIENTED_EDGE('',*,*,#617,.T.);
#404=ORIENTED_EDGE('',*,*,#618,.F.);
#405=ORIENTED_EDGE('',*,*,#619,.F.);
#406=ORIENTED_EDGE('',*,*,#620,.F.);
#407=ORIENTED_EDGE('',*,*,#621,.F.);
#408=ORIENTED_EDGE('',*,*,#622,.F.);
#409=ORIENTED_EDGE('',*,*,#588,.F.);
#410=ORIENTED_EDGE('',*,*,#623,.F.);
#411=ORIENTED_EDGE('',*,*,#624,.F.);
#412=ORIENTED_EDGE('',*,*,#625,.F.);
#413=ORIENTED_EDGE('',*,*,#626,.T.);
#414=ORIENTED_EDGE('',*,*,#627,.F.);
#415=ORIENTED_EDGE('',*,*,#549,.T.);
#416=ORIENTED_EDGE('',*,*,#584,.T.);
#417=ORIENTED_EDGE('',*,*,#608,.F.);
#418=ORIENTED_EDGE('',*,*,#628,.F.);
#419=ORIENTED_EDGE('',*,*,#629,.F.);
#420=ORIENTED_EDGE('',*,*,#630,.F.);
#421=ORIENTED_EDGE('',*,*,#631,.T.);
#422=ORIENTED_EDGE('',*,*,#632,.F.);
#423=ORIENTED_EDGE('',*,*,#536,.T.);
#424=ORIENTED_EDGE('',*,*,#633,.T.);
#425=ORIENTED_EDGE('',*,*,#612,.T.);
#426=ORIENTED_EDGE('',*,*,#633,.F.);
#427=ORIENTED_EDGE('',*,*,#535,.T.);
#428=ORIENTED_EDGE('',*,*,#634,.F.);
#429=ORIENTED_EDGE('',*,*,#543,.T.);
#430=ORIENTED_EDGE('',*,*,#635,.F.);
#431=ORIENTED_EDGE('',*,*,#623,.T.);
#432=ORIENTED_EDGE('',*,*,#587,.T.);
#433=ORIENTED_EDGE('',*,*,#606,.T.);
#434=ORIENTED_EDGE('',*,*,#613,.T.);
#435=ORIENTED_EDGE('',*,*,#634,.T.);
#436=ORIENTED_EDGE('',*,*,#534,.T.);
#437=ORIENTED_EDGE('',*,*,#636,.F.);
#438=ORIENTED_EDGE('',*,*,#544,.T.);
#439=ORIENTED_EDGE('',*,*,#635,.T.);
#440=ORIENTED_EDGE('',*,*,#542,.T.);
#441=ORIENTED_EDGE('',*,*,#637,.F.);
#442=ORIENTED_EDGE('',*,*,#624,.T.);
#443=ORIENTED_EDGE('',*,*,#636,.T.);
#444=ORIENTED_EDGE('',*,*,#537,.T.);
#445=ORIENTED_EDGE('',*,*,#632,.T.);
#446=ORIENTED_EDGE('',*,*,#611,.T.);
#447=ORIENTED_EDGE('',*,*,#638,.T.);
#448=ORIENTED_EDGE('',*,*,#601,.T.);
#449=ORIENTED_EDGE('',*,*,#639,.T.);
#450=ORIENTED_EDGE('',*,*,#625,.T.);
#451=ORIENTED_EDGE('',*,*,#637,.T.);
#452=ORIENTED_EDGE('',*,*,#545,.T.);
#453=ORIENTED_EDGE('',*,*,#640,.F.);
#454=ORIENTED_EDGE('',*,*,#517,.T.);
#455=ORIENTED_EDGE('',*,*,#641,.T.);
#456=ORIENTED_EDGE('',*,*,#629,.T.);
#457=ORIENTED_EDGE('',*,*,#642,.T.);
#458=ORIENTED_EDGE('',*,*,#518,.T.);
#459=ORIENTED_EDGE('',*,*,#640,.T.);
#460=ORIENTED_EDGE('',*,*,#628,.T.);
#461=ORIENTED_EDGE('',*,*,#607,.T.);
#462=ORIENTED_EDGE('',*,*,#589,.T.);
#463=ORIENTED_EDGE('',*,*,#622,.T.);
#464=ORIENTED_EDGE('',*,*,#643,.T.);
#465=ORIENTED_EDGE('',*,*,#527,.T.);
#466=ORIENTED_EDGE('',*,*,#644,.T.);
#467=ORIENTED_EDGE('',*,*,#519,.T.);
#468=ORIENTED_EDGE('',*,*,#642,.F.);
#469=ORIENTED_EDGE('',*,*,#526,.T.);
#470=ORIENTED_EDGE('',*,*,#645,.T.);
#471=ORIENTED_EDGE('',*,*,#528,.T.);
#472=ORIENTED_EDGE('',*,*,#643,.F.);
#473=ORIENTED_EDGE('',*,*,#621,.T.);
#474=ORIENTED_EDGE('',*,*,#641,.F.);
#475=ORIENTED_EDGE('',*,*,#520,.T.);
#476=ORIENTED_EDGE('',*,*,#644,.F.);
#477=ORIENTED_EDGE('',*,*,#529,.T.);
#478=ORIENTED_EDGE('',*,*,#645,.F.);
#479=ORIENTED_EDGE('',*,*,#620,.T.);
#480=ORIENTED_EDGE('',*,*,#646,.T.);
#481=ORIENTED_EDGE('',*,*,#616,.T.);
#482=ORIENTED_EDGE('',*,*,#647,.T.);
#483=ORIENTED_EDGE('',*,*,#630,.T.);
#484=ORIENTED_EDGE('',*,*,#610,.T.);
#485=ORIENTED_EDGE('',*,*,#648,.F.);
#486=ORIENTED_EDGE('',*,*,#602,.F.);
#487=ORIENTED_EDGE('',*,*,#638,.F.);
#488=ORIENTED_EDGE('',*,*,#600,.T.);
#489=ORIENTED_EDGE('',*,*,#649,.F.);
#490=ORIENTED_EDGE('',*,*,#626,.F.);
#491=ORIENTED_EDGE('',*,*,#639,.F.);
#492=ORIENTED_EDGE('',*,*,#619,.T.);
#493=ORIENTED_EDGE('',*,*,#650,.F.);
#494=ORIENTED_EDGE('',*,*,#617,.F.);
#495=ORIENTED_EDGE('',*,*,#646,.F.);
#496=ORIENTED_EDGE('',*,*,#615,.T.);
#497=ORIENTED_EDGE('',*,*,#651,.F.);
#498=ORIENTED_EDGE('',*,*,#631,.F.);
#499=ORIENTED_EDGE('',*,*,#647,.F.);
#500=ORIENTED_EDGE('',*,*,#521,.T.);
#501=ORIENTED_EDGE('',*,*,#525,.F.);
#502=ORIENTED_EDGE('',*,*,#533,.F.);
#503=ORIENTED_EDGE('',*,*,#541,.T.);
#504=ORIENTED_EDGE('',*,*,#651,.T.);
#505=ORIENTED_EDGE('',*,*,#614,.T.);
#506=ORIENTED_EDGE('',*,*,#650,.T.);
#507=ORIENTED_EDGE('',*,*,#618,.T.);
#508=ORIENTED_EDGE('',*,*,#649,.T.);
#509=ORIENTED_EDGE('',*,*,#599,.T.);
#510=ORIENTED_EDGE('',*,*,#648,.T.);
#511=ORIENTED_EDGE('',*,*,#609,.T.);
#512=ORIENTED_EDGE('',*,*,#546,.T.);
#513=ORIENTED_EDGE('',*,*,#627,.T.);
#514=EDGE_CURVE('',#652,#652,#752,.T.);
#515=EDGE_CURVE('',#653,#653,#753,.T.);
#516=EDGE_CURVE('',#654,#654,#754,.T.);
#517=EDGE_CURVE('',#655,#656,#180,.T.);
#518=EDGE_CURVE('',#657,#655,#164,.T.);
#519=EDGE_CURVE('',#658,#657,#181,.T.);
#520=EDGE_CURVE('',#656,#658,#755,.T.);
#521=EDGE_CURVE('',#659,#659,#756,.T.);
#522=EDGE_CURVE('',#660,#660,#757,.T.);
#523=EDGE_CURVE('',#661,#661,#758,.T.);
#524=EDGE_CURVE('',#662,#662,#759,.T.);
#525=EDGE_CURVE('',#663,#663,#760,.T.);
#526=EDGE_CURVE('',#664,#665,#182,.T.);
#527=EDGE_CURVE('',#666,#664,#165,.T.);
#528=EDGE_CURVE('',#667,#666,#183,.T.);
#529=EDGE_CURVE('',#665,#667,#761,.T.);
#530=EDGE_CURVE('',#668,#668,#762,.T.);
#531=EDGE_CURVE('',#669,#669,#763,.T.);
#532=EDGE_CURVE('',#670,#670,#764,.T.);
#533=EDGE_CURVE('',#671,#671,#765,.T.);
#534=EDGE_CURVE('',#672,#673,#184,.T.);
#535=EDGE_CURVE('',#674,#672,#166,.T.);
#536=EDGE_CURVE('',#675,#674,#185,.T.);
#537=EDGE_CURVE('',#673,#675,#766,.T.);
#538=EDGE_CURVE('',#676,#676,#767,.T.);
#539=EDGE_CURVE('',#677,#677,#768,.T.);
#540=EDGE_CURVE('',#678,#678,#769,.T.);
#541=EDGE_CURVE('',#679,#679,#770,.T.);
#542=EDGE_CURVE('',#680,#681,#186,.T.);
#543=EDGE_CURVE('',#682,#680,#167,.T.);
#544=EDGE_CURVE('',#683,#682,#187,.T.);
#545=EDGE_CURVE('',#681,#683,#771,.T.);
#546=EDGE_CURVE('',#684,#685,#16,.T.);
#547=EDGE_CURVE('',#684,#686,#17,.T.);
#548=EDGE_CURVE('',#686,#687,#18,.T.);
#549=EDGE_CURVE('',#685,#687,#19,.T.);
#550=EDGE_CURVE('',#688,#688,#772,.T.);
#551=EDGE_CURVE('',#689,#689,#773,.T.);
#552=EDGE_CURVE('',#690,#690,#774,.T.);
#553=EDGE_CURVE('',#691,#691,#775,.T.);
#554=EDGE_CURVE('',#692,#692,#776,.T.);
#555=EDGE_CURVE('',#693,#693,#777,.T.);
#556=EDGE_CURVE('',#694,#694,#778,.T.);
#557=EDGE_CURVE('',#695,#695,#779,.T.);
#558=EDGE_CURVE('',#696,#697,#168,.T.);
#559=EDGE_CURVE('',#698,#696,#20,.T.);
#560=EDGE_CURVE('',#699,#698,#169,.T.);
#561=EDGE_CURVE('',#697,#699,#21,.T.);
#562=EDGE_CURVE('',#700,#701,#170,.T.);
#563=EDGE_CURVE('',#702,#700,#22,.T.);
#564=EDGE_CURVE('',#703,#702,#171,.T.);
#565=EDGE_CURVE('',#701,#703,#23,.T.);
#566=EDGE_CURVE('',#704,#705,#172,.T.);
#567=EDGE_CURVE('',#706,#704,#24,.T.);
#568=EDGE_CURVE('',#707,#706,#173,.T.);
#569=EDGE_CURVE('',#705,#707,#25,.T.);
#570=EDGE_CURVE('',#708,#709,#174,.T.);
#571=EDGE_CURVE('',#710,#708,#26,.T.);
#572=EDGE_CURVE('',#711,#710,#175,.T.);
#573=EDGE_CURVE('',#709,#711,#27,.T.);
#574=EDGE_CURVE('',#712,#686,#28,.T.);
#575=EDGE_CURVE('',#712,#708,#29,.T.);
#576=EDGE_CURVE('',#709,#713,#30,.T.);
#577=EDGE_CURVE('',#713,#714,#31,.T.);
#578=EDGE_CURVE('',#700,#714,#32,.T.);
#579=EDGE_CURVE('',#701,#696,#33,.T.);
#580=EDGE_CURVE('',#715,#697,#34,.T.);
#581=EDGE_CURVE('',#715,#716,#35,.T.);
#582=EDGE_CURVE('',#704,#716,#36,.T.);
#583=EDGE_CURVE('',#705,#717,#37,.T.);
#584=EDGE_CURVE('',#687,#717,#38,.T.);
#585=EDGE_CURVE('',#718,#711,#39,.T.);
#586=EDGE_CURVE('',#710,#719,#40,.T.);
#587=EDGE_CURVE('',#720,#719,#41,.T.);
#588=EDGE_CURVE('',#720,#721,#42,.T.);
#589=EDGE_CURVE('',#722,#721,#43,.T.);
#590=EDGE_CURVE('',#722,#707,#44,.T.);
#591=EDGE_CURVE('',#706,#723,#45,.T.);
#592=EDGE_CURVE('',#724,#723,#46,.T.);
#593=EDGE_CURVE('',#724,#699,#47,.T.);
#594=EDGE_CURVE('',#698,#703,#48,.T.);
#595=EDGE_CURVE('',#702,#725,#49,.T.);
#596=EDGE_CURVE('',#718,#725,#50,.T.);
#597=EDGE_CURVE('',#715,#724,#780,.T.);
#598=EDGE_CURVE('',#716,#723,#781,.T.);
#599=EDGE_CURVE('',#726,#727,#51,.T.);
#600=EDGE_CURVE('',#728,#726,#52,.T.);
#601=EDGE_CURVE('',#729,#728,#53,.T.);
#602=EDGE_CURVE('',#729,#727,#54,.T.);
#603=EDGE_CURVE('',#713,#718,#782,.T.);
#604=EDGE_CURVE('',#725,#714,#783,.T.);
#605=EDGE_CURVE('',#712,#730,#55,.T.);
#606=EDGE_CURVE('',#719,#730,#56,.T.);
#607=EDGE_CURVE('',#731,#722,#57,.T.);
#608=EDGE_CURVE('',#731,#717,#58,.T.);
#609=EDGE_CURVE('',#732,#684,#59,.T.);
#610=EDGE_CURVE('',#733,#732,#60,.T.);
#611=EDGE_CURVE('',#734,#733,#61,.T.);
#612=EDGE_CURVE('',#735,#734,#176,.T.);
#613=EDGE_CURVE('',#730,#735,#62,.T.);
#614=EDGE_CURVE('',#736,#737,#63,.T.);
#615=EDGE_CURVE('',#738,#736,#64,.T.);
#616=EDGE_CURVE('',#739,#738,#65,.T.);
#617=EDGE_CURVE('',#739,#737,#66,.T.);
#618=EDGE_CURVE('',#740,#741,#67,.T.);
#619=EDGE_CURVE('',#742,#740,#68,.T.);
#620=EDGE_CURVE('',#743,#742,#69,.T.);
#621=EDGE_CURVE('',#744,#743,#177,.T.);
#622=EDGE_CURVE('',#721,#744,#70,.T.);
#623=EDGE_CURVE('',#745,#720,#71,.T.);
#624=EDGE_CURVE('',#746,#745,#178,.T.);
#625=EDGE_CURVE('',#747,#746,#72,.T.);
#626=EDGE_CURVE('',#747,#741,#73,.T.);
#627=EDGE_CURVE('',#685,#748,#74,.T.);
#628=EDGE_CURVE('',#749,#731,#75,.T.);
#629=EDGE_CURVE('',#750,#749,#179,.T.);
#630=EDGE_CURVE('',#751,#750,#76,.T.);
#631=EDGE_CURVE('',#751,#748,#77,.T.);
#632=EDGE_CURVE('',#675,#734,#78,.T.);
#633=EDGE_CURVE('',#674,#735,#79,.T.);
#634=EDGE_CURVE('',#682,#672,#80,.T.);
#635=EDGE_CURVE('',#745,#680,#81,.T.);
#636=EDGE_CURVE('',#683,#673,#82,.T.);
#637=EDGE_CURVE('',#746,#681,#83,.T.);
#638=EDGE_CURVE('',#733,#729,#784,.T.);
#639=EDGE_CURVE('',#728,#747,#785,.T.);
#640=EDGE_CURVE('',#655,#749,#84,.T.);
#641=EDGE_CURVE('',#656,#750,#85,.T.);
#642=EDGE_CURVE('',#664,#657,#86,.T.);
#643=EDGE_CURVE('',#744,#666,#87,.T.);
#644=EDGE_CURVE('',#665,#658,#88,.T.);
#645=EDGE_CURVE('',#743,#667,#89,.T.);
#646=EDGE_CURVE('',#742,#739,#786,.T.);
#647=EDGE_CURVE('',#738,#751,#787,.T.);
#648=EDGE_CURVE('',#727,#732,#788,.T.);
#649=EDGE_CURVE('',#741,#726,#789,.T.);
#650=EDGE_CURVE('',#737,#740,#790,.T.);
#651=EDGE_CURVE('',#748,#736,#791,.T.);
#652=VERTEX_POINT('',#1464);
#653=VERTEX_POINT('',#1466);
#654=VERTEX_POINT('',#1469);
#655=VERTEX_POINT('',#1477);
#656=VERTEX_POINT('',#1478);
#657=VERTEX_POINT('',#1480);
#658=VERTEX_POINT('',#1486);
#659=VERTEX_POINT('',#1490);
#660=VERTEX_POINT('',#1493);
#661=VERTEX_POINT('',#1495);
#662=VERTEX_POINT('',#1498);
#663=VERTEX_POINT('',#1500);
#664=VERTEX_POINT('',#1509);
#665=VERTEX_POINT('',#1510);
#666=VERTEX_POINT('',#1512);
#667=VERTEX_POINT('',#1518);
#668=VERTEX_POINT('',#1522);
#669=VERTEX_POINT('',#1524);
#670=VERTEX_POINT('',#1527);
#671=VERTEX_POINT('',#1529);
#672=VERTEX_POINT('',#1538);
#673=VERTEX_POINT('',#1539);
#674=VERTEX_POINT('',#1541);
#675=VERTEX_POINT('',#1547);
#676=VERTEX_POINT('',#1551);
#677=VERTEX_POINT('',#1553);
#678=VERTEX_POINT('',#1556);
#679=VERTEX_POINT('',#1558);
#680=VERTEX_POINT('',#1567);
#681=VERTEX_POINT('',#1568);
#682=VERTEX_POINT('',#1570);
#683=VERTEX_POINT('',#1576);
#684=VERTEX_POINT('',#1580);
#685=VERTEX_POINT('',#1581);
#686=VERTEX_POINT('',#1583);
#687=VERTEX_POINT('',#1585);
#688=VERTEX_POINT('',#1589);
#689=VERTEX_POINT('',#1591);
#690=VERTEX_POINT('',#1594);
#691=VERTEX_POINT('',#1596);
#692=VERTEX_POINT('',#1599);
#693=VERTEX_POINT('',#1601);
#694=VERTEX_POINT('',#1604);
#695=VERTEX_POINT('',#1606);
#696=VERTEX_POINT('',#1611);
#697=VERTEX_POINT('',#1612);
#698=VERTEX_POINT('',#1614);
#699=VERTEX_POINT('',#1616);
#700=VERTEX_POINT('',#1620);
#701=VERTEX_POINT('',#1621);
#702=VERTEX_POINT('',#1623);
#703=VERTEX_POINT('',#1625);
#704=VERTEX_POINT('',#1629);
#705=VERTEX_POINT('',#1630);
#706=VERTEX_POINT('',#1632);
#707=VERTEX_POINT('',#1634);
#708=VERTEX_POINT('',#1638);
#709=VERTEX_POINT('',#1639);
#710=VERTEX_POINT('',#1641);
#711=VERTEX_POINT('',#1643);
#712=VERTEX_POINT('',#1647);
#713=VERTEX_POINT('',#1650);
#714=VERTEX_POINT('',#1652);
#715=VERTEX_POINT('',#1656);
#716=VERTEX_POINT('',#1658);
#717=VERTEX_POINT('',#1661);
#718=VERTEX_POINT('',#1665);
#719=VERTEX_POINT('',#1667);
#720=VERTEX_POINT('',#1669);
#721=VERTEX_POINT('',#1671);
#722=VERTEX_POINT('',#1673);
#723=VERTEX_POINT('',#1676);
#724=VERTEX_POINT('',#1678);
#725=VERTEX_POINT('',#1682);
#726=VERTEX_POINT('',#1689);
#727=VERTEX_POINT('',#1690);
#728=VERTEX_POINT('',#1692);
#729=VERTEX_POINT('',#1694);
#730=VERTEX_POINT('',#1701);
#731=VERTEX_POINT('',#1705);
#732=VERTEX_POINT('',#1714);
#733=VERTEX_POINT('',#1716);
#734=VERTEX_POINT('',#1718);
#735=VERTEX_POINT('',#1720);
#736=VERTEX_POINT('',#1724);
#737=VERTEX_POINT('',#1725);
#738=VERTEX_POINT('',#1727);
#739=VERTEX_POINT('',#1729);
#740=VERTEX_POINT('',#1733);
#741=VERTEX_POINT('',#1734);
#742=VERTEX_POINT('',#1736);
#743=VERTEX_POINT('',#1738);
#744=VERTEX_POINT('',#1740);
#745=VERTEX_POINT('',#1743);
#746=VERTEX_POINT('',#1745);
#747=VERTEX_POINT('',#1747);
#748=VERTEX_POINT('',#1751);
#749=VERTEX_POINT('',#1753);
#750=VERTEX_POINT('',#1755);
#751=VERTEX_POINT('',#1757);
#752=CIRCLE('',#1044,0.008001);
#753=CIRCLE('',#1045,0.010541);
#754=CIRCLE('',#1047,0.005334);
#755=CIRCLE('',#1050,0.010541);
#756=CIRCLE('',#1052,0.005334);
#757=CIRCLE('',#1054,0.008001);
#758=CIRCLE('',#1055,0.010541);
#759=CIRCLE('',#1057,0.0051562);
#760=CIRCLE('',#1058,0.0051562);
#761=CIRCLE('',#1062,0.010541);
#762=CIRCLE('',#1064,0.008001);
#763=CIRCLE('',#1065,0.010541);
#764=CIRCLE('',#1067,0.0051562);
#765=CIRCLE('',#1068,0.0051562);
#766=CIRCLE('',#1072,0.010541);
#767=CIRCLE('',#1074,0.008001);
#768=CIRCLE('',#1075,0.010541);
#769=CIRCLE('',#1077,0.0051562);
#770=CIRCLE('',#1078,0.0051562);
#771=CIRCLE('',#1082,0.010541);
#772=CIRCLE('',#1085,0.01019175);
#773=CIRCLE('',#1086,0.00955675);
#774=CIRCLE('',#1088,0.01019175);
#775=CIRCLE('',#1089,0.00955675);
#776=CIRCLE('',#1091,0.01019175);
#777=CIRCLE('',#1092,0.00955675);
#778=CIRCLE('',#1094,0.01019175);
#779=CIRCLE('',#1095,0.00955675);
#780=CIRCLE('',#1113,0.01778);
#781=CIRCLE('',#1114,0.01778);
#782=CIRCLE('',#1117,0.01778);
#783=CIRCLE('',#1118,0.01778);
#784=CIRCLE('',#1139,0.0152399999999997);
#785=CIRCLE('',#1140,0.01524);
#786=CIRCLE('',#1146,0.0152400000000002);
#787=CIRCLE('',#1147,0.01524);
#788=CIRCLE('',#1149,0.0152399999999997);
#789=CIRCLE('',#1151,0.01524);
#790=CIRCLE('',#1153,0.0152400000000002);
#791=CIRCLE('',#1155,0.01524);
#792=EDGE_LOOP('',(#238));
#793=EDGE_LOOP('',(#239));
#794=EDGE_LOOP('',(#240));
#795=EDGE_LOOP('',(#241));
#796=EDGE_LOOP('',(#242,#243,#244,#245));
#797=EDGE_LOOP('',(#246));
#798=EDGE_LOOP('',(#247));
#799=EDGE_LOOP('',(#248));
#800=EDGE_LOOP('',(#249));
#801=EDGE_LOOP('',(#250));
#802=EDGE_LOOP('',(#251));
#803=EDGE_LOOP('',(#252));
#804=EDGE_LOOP('',(#253));
#805=EDGE_LOOP('',(#254));
#806=EDGE_LOOP('',(#255,#256,#257,#258));
#807=EDGE_LOOP('',(#259));
#808=EDGE_LOOP('',(#260));
#809=EDGE_LOOP('',(#261));
#810=EDGE_LOOP('',(#262));
#811=EDGE_LOOP('',(#263));
#812=EDGE_LOOP('',(#264));
#813=EDGE_LOOP('',(#265));
#814=EDGE_LOOP('',(#266,#267,#268,#269));
#815=EDGE_LOOP('',(#270));
#816=EDGE_LOOP('',(#271));
#817=EDGE_LOOP('',(#272));
#818=EDGE_LOOP('',(#273));
#819=EDGE_LOOP('',(#274));
#820=EDGE_LOOP('',(#275));
#821=EDGE_LOOP('',(#276));
#822=EDGE_LOOP('',(#277,#278,#279,#280));
#823=EDGE_LOOP('',(#281));
#824=EDGE_LOOP('',(#282,#283,#284,#285));
#825=EDGE_LOOP('',(#286));
#826=EDGE_LOOP('',(#287));
#827=EDGE_LOOP('',(#288));
#828=EDGE_LOOP('',(#289));
#829=EDGE_LOOP('',(#290));
#830=EDGE_LOOP('',(#291));
#831=EDGE_LOOP('',(#292));
#832=EDGE_LOOP('',(#293));
#833=EDGE_LOOP('',(#294));
#834=EDGE_LOOP('',(#295));
#835=EDGE_LOOP('',(#296));
#836=EDGE_LOOP('',(#297));
#837=EDGE_LOOP('',(#298,#299,#300,#301));
#838=EDGE_LOOP('',(#302,#303,#304,#305));
#839=EDGE_LOOP('',(#306,#307,#308,#309));
#840=EDGE_LOOP('',(#310,#311,#312,#313));
#841=EDGE_LOOP('',(#314,#315,#316,#317,#318,#319,#320,#321,#322,#323,#324,
#325,#326,#327,#328,#329));
#842=EDGE_LOOP('',(#330,#331,#332,#333,#334,#335,#336,#337,#338,#339,#340,
#341,#342,#343,#344,#345));
#843=EDGE_LOOP('',(#346,#347,#348,#349));
#844=EDGE_LOOP('',(#350,#351,#352,#353));
#845=EDGE_LOOP('',(#354,#355,#356,#357));
#846=EDGE_LOOP('',(#358,#359,#360,#361,#362));
#847=EDGE_LOOP('',(#363,#364,#365,#366,#367));
#848=EDGE_LOOP('',(#368,#369,#370,#371));
#849=EDGE_LOOP('',(#372,#373,#374,#375));
#850=EDGE_LOOP('',(#376));
#851=EDGE_LOOP('',(#377,#378,#379,#380));
#852=EDGE_LOOP('',(#381));
#853=EDGE_LOOP('',(#382,#383,#384,#385));
#854=EDGE_LOOP('',(#386));
#855=EDGE_LOOP('',(#387,#388,#389,#390));
#856=EDGE_LOOP('',(#391));
#857=EDGE_LOOP('',(#392,#393,#394,#395,#396,#397,#398,#399));
#858=EDGE_LOOP('',(#400,#401,#402,#403));
#859=EDGE_LOOP('',(#404,#405,#406,#407,#408,#409,#410,#411,#412,#413));
#860=EDGE_LOOP('',(#414,#415,#416,#417,#418,#419,#420,#421));
#861=EDGE_LOOP('',(#422,#423,#424,#425));
#862=EDGE_LOOP('',(#426,#427,#428,#429,#430,#431,#432,#433,#434));
#863=EDGE_LOOP('',(#435,#436,#437,#438));
#864=EDGE_LOOP('',(#439,#440,#441,#442));
#865=EDGE_LOOP('',(#443,#444,#445,#446,#447,#448,#449,#450,#451,#452));
#866=EDGE_LOOP('',(#453,#454,#455,#456));
#867=EDGE_LOOP('',(#457,#458,#459,#460,#461,#462,#463,#464,#465));
#868=EDGE_LOOP('',(#466,#467,#468,#469));
#869=EDGE_LOOP('',(#470,#471,#472,#473));
#870=EDGE_LOOP('',(#474,#475,#476,#477,#478,#479,#480,#481,#482,#483));
#871=EDGE_LOOP('',(#484,#485,#486,#487));
#872=EDGE_LOOP('',(#488,#489,#490,#491));
#873=EDGE_LOOP('',(#492,#493,#494,#495));
#874=EDGE_LOOP('',(#496,#497,#498,#499));
#875=EDGE_LOOP('',(#500));
#876=EDGE_LOOP('',(#501));
#877=EDGE_LOOP('',(#502));
#878=EDGE_LOOP('',(#503));
#879=EDGE_LOOP('',(#504,#505,#506,#507,#508,#509,#510,#511,#512,#513));
#880=FACE_BOUND('',#792,.T.);
#881=FACE_BOUND('',#793,.T.);
#882=FACE_BOUND('',#794,.T.);
#883=FACE_BOUND('',#795,.T.);
#884=FACE_BOUND('',#796,.T.);
#885=FACE_BOUND('',#797,.T.);
#886=FACE_BOUND('',#798,.T.);
#887=FACE_BOUND('',#799,.T.);
#888=FACE_BOUND('',#800,.T.);
#889=FACE_BOUND('',#801,.T.);
#890=FACE_BOUND('',#802,.T.);
#891=FACE_BOUND('',#803,.T.);
#892=FACE_BOUND('',#804,.T.);
#893=FACE_BOUND('',#805,.T.);
#894=FACE_BOUND('',#806,.T.);
#895=FACE_BOUND('',#807,.T.);
#896=FACE_BOUND('',#808,.T.);
#897=FACE_BOUND('',#809,.T.);
#898=FACE_BOUND('',#810,.T.);
#899=FACE_BOUND('',#811,.T.);
#900=FACE_BOUND('',#812,.T.);
#901=FACE_BOUND('',#813,.T.);
#902=FACE_BOUND('',#814,.T.);
#903=FACE_BOUND('',#815,.T.);
#904=FACE_BOUND('',#816,.T.);
#905=FACE_BOUND('',#817,.T.);
#906=FACE_BOUND('',#818,.T.);
#907=FACE_BOUND('',#819,.T.);
#908=FACE_BOUND('',#820,.T.);
#909=FACE_BOUND('',#821,.T.);
#910=FACE_BOUND('',#822,.T.);
#911=FACE_BOUND('',#823,.T.);
#912=FACE_BOUND('',#824,.T.);
#913=FACE_BOUND('',#825,.T.);
#914=FACE_BOUND('',#826,.T.);
#915=FACE_BOUND('',#827,.T.);
#916=FACE_BOUND('',#828,.T.);
#917=FACE_BOUND('',#829,.T.);
#918=FACE_BOUND('',#830,.T.);
#919=FACE_BOUND('',#831,.T.);
#920=FACE_BOUND('',#832,.T.);
#921=FACE_BOUND('',#833,.T.);
#922=FACE_BOUND('',#834,.T.);
#923=FACE_BOUND('',#835,.T.);
#924=FACE_BOUND('',#836,.T.);
#925=FACE_BOUND('',#837,.T.);
#926=FACE_BOUND('',#838,.T.);
#927=FACE_BOUND('',#839,.T.);
#928=FACE_BOUND('',#840,.T.);
#929=FACE_BOUND('',#841,.T.);
#930=FACE_BOUND('',#842,.T.);
#931=FACE_BOUND('',#843,.T.);
#932=FACE_BOUND('',#844,.T.);
#933=FACE_BOUND('',#845,.T.);
#934=FACE_BOUND('',#846,.T.);
#935=FACE_BOUND('',#847,.T.);
#936=FACE_BOUND('',#848,.T.);
#937=FACE_BOUND('',#849,.T.);
#938=FACE_BOUND('',#850,.T.);
#939=FACE_BOUND('',#851,.T.);
#940=FACE_BOUND('',#852,.T.);
#941=FACE_BOUND('',#853,.T.);
#942=FACE_BOUND('',#854,.T.);
#943=FACE_BOUND('',#855,.T.);
#944=FACE_BOUND('',#856,.T.);
#945=FACE_BOUND('',#857,.T.);
#946=FACE_BOUND('',#858,.T.);
#947=FACE_BOUND('',#859,.T.);
#948=FACE_BOUND('',#860,.T.);
#949=FACE_BOUND('',#861,.T.);
#950=FACE_BOUND('',#862,.T.);
#951=FACE_BOUND('',#863,.T.);
#952=FACE_BOUND('',#864,.T.);
#953=FACE_BOUND('',#865,.T.);
#954=FACE_BOUND('',#866,.T.);
#955=FACE_BOUND('',#867,.T.);
#956=FACE_BOUND('',#868,.T.);
#957=FACE_BOUND('',#869,.T.);
#958=FACE_BOUND('',#870,.T.);
#959=FACE_BOUND('',#871,.T.);
#960=FACE_BOUND('',#872,.T.);
#961=FACE_BOUND('',#873,.T.);
#962=FACE_BOUND('',#874,.T.);
#963=FACE_BOUND('',#875,.T.);
#964=FACE_BOUND('',#876,.T.);
#965=FACE_BOUND('',#877,.T.);
#966=FACE_BOUND('',#878,.T.);
#967=FACE_BOUND('',#879,.T.);
#968=TOROIDAL_SURFACE('',#1043,0.008001,0.00254);
#969=TOROIDAL_SURFACE('',#1053,0.008001,0.00254);
#970=TOROIDAL_SURFACE('',#1063,0.008001,0.00254);
#971=TOROIDAL_SURFACE('',#1073,0.008001,0.00254);
#972=ADVANCED_FACE('',(#880,#881),#968,.F.);
#973=ADVANCED_FACE('',(#882,#883),#214,.F.);
#974=ADVANCED_FACE('',(#884,#885),#188,.F.);
#975=ADVANCED_FACE('',(#886,#887),#189,.F.);
#976=ADVANCED_FACE('',(#888,#889),#969,.F.);
#977=ADVANCED_FACE('',(#890,#891),#190,.F.);
#978=ADVANCED_FACE('',(#892,#893),#215,.F.);
#979=ADVANCED_FACE('',(#894,#895),#191,.F.);
#980=ADVANCED_FACE('',(#896,#897),#970,.F.);
#981=ADVANCED_FACE('',(#898,#899),#192,.F.);
#982=ADVANCED_FACE('',(#900,#901),#216,.F.);
#983=ADVANCED_FACE('',(#902,#903),#193,.F.);
#984=ADVANCED_FACE('',(#904,#905),#971,.F.);
#985=ADVANCED_FACE('',(#906,#907),#194,.F.);
#986=ADVANCED_FACE('',(#908,#909),#217,.F.);
#987=ADVANCED_FACE('',(#910,#911),#195,.F.);
#988=ADVANCED_FACE('',(#912),#218,.T.);
#989=ADVANCED_FACE('',(#913,#914),#12,.F.);
#990=ADVANCED_FACE('',(#915,#916),#13,.F.);
#991=ADVANCED_FACE('',(#917,#918),#14,.F.);
#992=ADVANCED_FACE('',(#919,#920),#15,.F.);
#993=ADVANCED_FACE('',(#921,#922),#196,.F.);
#994=ADVANCED_FACE('',(#923,#924),#197,.F.);
#995=ADVANCED_FACE('',(#925),#198,.F.);
#996=ADVANCED_FACE('',(#926),#199,.F.);
#997=ADVANCED_FACE('',(#927),#200,.F.);
#998=ADVANCED_FACE('',(#928),#201,.F.);
#999=ADVANCED_FACE('',(#929),#219,.T.);
#1000=ADVANCED_FACE('',(#930),#220,.F.);
#1001=ADVANCED_FACE('',(#931),#202,.T.);
#1002=ADVANCED_FACE('',(#932),#221,.T.);
#1003=ADVANCED_FACE('',(#933),#203,.T.);
#1004=ADVANCED_FACE('',(#934),#222,.F.);
#1005=ADVANCED_FACE('',(#935),#223,.F.);
#1006=ADVANCED_FACE('',(#936),#224,.F.);
#1007=ADVANCED_FACE('',(#937,#938),#225,.F.);
#1008=ADVANCED_FACE('',(#939,#940),#226,.F.);
#1009=ADVANCED_FACE('',(#941,#942),#227,.T.);
#1010=ADVANCED_FACE('',(#943,#944),#228,.F.);
#1011=ADVANCED_FACE('',(#945),#229,.T.);
#1012=ADVANCED_FACE('',(#946),#230,.T.);
#1013=ADVANCED_FACE('',(#947),#231,.T.);
#1014=ADVANCED_FACE('',(#948),#232,.T.);
#1015=ADVANCED_FACE('',(#949),#204,.F.);
#1016=ADVANCED_FACE('',(#950),#233,.F.);
#1017=ADVANCED_FACE('',(#951),#205,.F.);
#1018=ADVANCED_FACE('',(#952),#206,.F.);
#1019=ADVANCED_FACE('',(#953),#234,.F.);
#1020=ADVANCED_FACE('',(#954),#207,.F.);
#1021=ADVANCED_FACE('',(#955),#235,.F.);
#1022=ADVANCED_FACE('',(#956),#208,.F.);
#1023=ADVANCED_FACE('',(#957),#209,.F.);
#1024=ADVANCED_FACE('',(#958),#236,.F.);
#1025=ADVANCED_FACE('',(#959),#210,.T.);
#1026=ADVANCED_FACE('',(#960),#211,.T.);
#1027=ADVANCED_FACE('',(#961),#212,.T.);
#1028=ADVANCED_FACE('',(#962),#213,.T.);
#1029=ADVANCED_FACE('',(#963,#964,#965,#966,#967),#237,.T.);
#1030=CLOSED_SHELL('',(#972,#973,#974,#975,#976,#977,#978,#979,#980,#981,
#982,#983,#984,#985,#986,#987,#988,#989,#990,#991,#992,#993,#994,#995,#996,
#997,#998,#999,#1000,#1001,#1002,#1003,#1004,#1005,#1006,#1007,#1008,#1009,
#1010,#1011,#1012,#1013,#1014,#1015,#1016,#1017,#1018,#1019,#1020,#1021,
#1022,#1023,#1024,#1025,#1026,#1027,#1028,#1029));
#1031=STYLED_ITEM('',(#1032),#1039);
#1032=PRESENTATION_STYLE_ASSIGNMENT((#1033));
#1033=SURFACE_STYLE_USAGE(.BOTH.,#1034);
#1034=SURFACE_SIDE_STYLE('',(#1035));
#1035=SURFACE_STYLE_FILL_AREA(#1036);
#1036=FILL_AREA_STYLE('',(#1037));
#1037=FILL_AREA_STYLE_COLOUR('',#1038);
#1038=COLOUR_RGB('',0.980392156862745,0.713725490196078,0.00392156862745098);
#1039=MANIFOLD_SOLID_BREP('a279837B8p1l',#1030);
#1040=SHAPE_DEFINITION_REPRESENTATION(#1800,#1041);
#1041=SHAPE_REPRESENTATION('a279837B8p1l',(#1042),#1795);
#1042=AXIS2_PLACEMENT_3D('',#1461,#1157,#1158);
#1043=AXIS2_PLACEMENT_3D('',#1462,#1159,#1160);
#1044=AXIS2_PLACEMENT_3D('',#1463,#1161,#1162);
#1045=AXIS2_PLACEMENT_3D('',#1465,#1163,#1164);
#1046=AXIS2_PLACEMENT_3D('',#1467,#1165,#1166);
#1047=AXIS2_PLACEMENT_3D('',#1468,#1167,#1168);
#1048=AXIS2_PLACEMENT_3D('',#1470,#1169,#1170);
#1049=AXIS2_PLACEMENT_3D('',#1479,#1171,#1172);
#1050=AXIS2_PLACEMENT_3D('',#1487,#1173,#1174);
#1051=AXIS2_PLACEMENT_3D('',#1488,#1175,#1176);
#1052=AXIS2_PLACEMENT_3D('',#1489,#1177,#1178);
#1053=AXIS2_PLACEMENT_3D('',#1491,#1179,#1180);
#1054=AXIS2_PLACEMENT_3D('',#1492,#1181,#1182);
#1055=AXIS2_PLACEMENT_3D('',#1494,#1183,#1184);
#1056=AXIS2_PLACEMENT_3D('',#1496,#1185,#1186);
#1057=AXIS2_PLACEMENT_3D('',#1497,#1187,#1188);
#1058=AXIS2_PLACEMENT_3D('',#1499,#1189,#1190);
#1059=AXIS2_PLACEMENT_3D('',#1501,#1191,#1192);
#1060=AXIS2_PLACEMENT_3D('',#1502,#1193,#1194);
#1061=AXIS2_PLACEMENT_3D('',#1511,#1195,#1196);
#1062=AXIS2_PLACEMENT_3D('',#1519,#1197,#1198);
#1063=AXIS2_PLACEMENT_3D('',#1520,#1199,#1200);
#1064=AXIS2_PLACEMENT_3D('',#1521,#1201,#1202);
#1065=AXIS2_PLACEMENT_3D('',#1523,#1203,#1204);
#1066=AXIS2_PLACEMENT_3D('',#1525,#1205,#1206);
#1067=AXIS2_PLACEMENT_3D('',#1526,#1207,#1208);
#1068=AXIS2_PLACEMENT_3D('',#1528,#1209,#1210);
#1069=AXIS2_PLACEMENT_3D('',#1530,#1211,#1212);
#1070=AXIS2_PLACEMENT_3D('',#1531,#1213,#1214);
#1071=AXIS2_PLACEMENT_3D('',#1540,#1215,#1216);
#1072=AXIS2_PLACEMENT_3D('',#1548,#1217,#1218);
#1073=AXIS2_PLACEMENT_3D('',#1549,#1219,#1220);
#1074=AXIS2_PLACEMENT_3D('',#1550,#1221,#1222);
#1075=AXIS2_PLACEMENT_3D('',#1552,#1223,#1224);
#1076=AXIS2_PLACEMENT_3D('',#1554,#1225,#1226);
#1077=AXIS2_PLACEMENT_3D('',#1555,#1227,#1228);
#1078=AXIS2_PLACEMENT_3D('',#1557,#1229,#1230);
#1079=AXIS2_PLACEMENT_3D('',#1559,#1231,#1232);
#1080=AXIS2_PLACEMENT_3D('',#1560,#1233,#1234);
#1081=AXIS2_PLACEMENT_3D('',#1569,#1235,#1236);
#1082=AXIS2_PLACEMENT_3D('',#1577,#1237,#1238);
#1083=AXIS2_PLACEMENT_3D('',#1578,#1239,#1240);
#1084=AXIS2_PLACEMENT_3D('',#1587,#1245,#1246);
#1085=AXIS2_PLACEMENT_3D('',#1588,#1247,#1248);
#1086=AXIS2_PLACEMENT_3D('',#1590,#1249,#1250);
#1087=AXIS2_PLACEMENT_3D('',#1592,#1251,#1252);
#1088=AXIS2_PLACEMENT_3D('',#1593,#1253,#1254);
#1089=AXIS2_PLACEMENT_3D('',#1595,#1255,#1256);
#1090=AXIS2_PLACEMENT_3D('',#1597,#1257,#1258);
#1091=AXIS2_PLACEMENT_3D('',#1598,#1259,#1260);
#1092=AXIS2_PLACEMENT_3D('',#1600,#1261,#1262);
#1093=AXIS2_PLACEMENT_3D('',#1602,#1263,#1264);
#1094=AXIS2_PLACEMENT_3D('',#1603,#1265,#1266);
#1095=AXIS2_PLACEMENT_3D('',#1605,#1267,#1268);
#1096=AXIS2_PLACEMENT_3D('',#1607,#1269,#1270);
#1097=AXIS2_PLACEMENT_3D('',#1608,#1271,#1272);
#1098=AXIS2_PLACEMENT_3D('',#1609,#1273,#1274);
#1099=AXIS2_PLACEMENT_3D('',#1610,#1275,#1276);
#1100=AXIS2_PLACEMENT_3D('',#1615,#1278,#1279);
#1101=AXIS2_PLACEMENT_3D('',#1618,#1281,#1282);
#1102=AXIS2_PLACEMENT_3D('',#1619,#1283,#1284);
#1103=AXIS2_PLACEMENT_3D('',#1624,#1286,#1287);
#1104=AXIS2_PLACEMENT_3D('',#1627,#1289,#1290);
#1105=AXIS2_PLACEMENT_3D('',#1628,#1291,#1292);
#1106=AXIS2_PLACEMENT_3D('',#1633,#1294,#1295);
#1107=AXIS2_PLACEMENT_3D('',#1636,#1297,#1298);
#1108=AXIS2_PLACEMENT_3D('',#1637,#1299,#1300);
#1109=AXIS2_PLACEMENT_3D('',#1642,#1302,#1303);
#1110=AXIS2_PLACEMENT_3D('',#1645,#1305,#1306);
#1111=AXIS2_PLACEMENT_3D('',#1663,#1318,#1319);
#1112=AXIS2_PLACEMENT_3D('',#1684,#1332,#1333);
#1113=AXIS2_PLACEMENT_3D('',#1685,#1334,#1335);
#1114=AXIS2_PLACEMENT_3D('',#1686,#1336,#1337);
#1115=AXIS2_PLACEMENT_3D('',#1687,#1338,#1339);
#1116=AXIS2_PLACEMENT_3D('',#1696,#1344,#1345);
#1117=AXIS2_PLACEMENT_3D('',#1697,#1346,#1347);
#1118=AXIS2_PLACEMENT_3D('',#1698,#1348,#1349);
#1119=AXIS2_PLACEMENT_3D('',#1699,#1350,#1351);
#1120=AXIS2_PLACEMENT_3D('',#1703,#1354,#1355);
#1121=AXIS2_PLACEMENT_3D('',#1707,#1358,#1359);
#1122=AXIS2_PLACEMENT_3D('',#1708,#1360,#1361);
#1123=AXIS2_PLACEMENT_3D('',#1709,#1362,#1363);
#1124=AXIS2_PLACEMENT_3D('',#1710,#1364,#1365);
#1125=AXIS2_PLACEMENT_3D('',#1711,#1366,#1367);
#1126=AXIS2_PLACEMENT_3D('',#1712,#1368,#1369);
#1127=AXIS2_PLACEMENT_3D('',#1719,#1373,#1374);
#1128=AXIS2_PLACEMENT_3D('',#1722,#1376,#1377);
#1129=AXIS2_PLACEMENT_3D('',#1731,#1382,#1383);
#1130=AXIS2_PLACEMENT_3D('',#1739,#1387,#1388);
#1131=AXIS2_PLACEMENT_3D('',#1744,#1391,#1392);
#1132=AXIS2_PLACEMENT_3D('',#1749,#1395,#1396);
#1133=AXIS2_PLACEMENT_3D('',#1754,#1399,#1400);
#1134=AXIS2_PLACEMENT_3D('',#1759,#1403,#1404);
#1135=AXIS2_PLACEMENT_3D('',#1762,#1407,#1408);
#1136=AXIS2_PLACEMENT_3D('',#1765,#1411,#1412);
#1137=AXIS2_PLACEMENT_3D('',#1767,#1414,#1415);
#1138=AXIS2_PLACEMENT_3D('',#1769,#1417,#1418);
#1139=AXIS2_PLACEMENT_3D('',#1770,#1419,#1420);
#1140=AXIS2_PLACEMENT_3D('',#1771,#1421,#1422);
#1141=AXIS2_PLACEMENT_3D('',#1772,#1423,#1424);
#1142=AXIS2_PLACEMENT_3D('',#1775,#1427,#1428);
#1143=AXIS2_PLACEMENT_3D('',#1778,#1431,#1432);
#1144=AXIS2_PLACEMENT_3D('',#1780,#1434,#1435);
#1145=AXIS2_PLACEMENT_3D('',#1782,#1437,#1438);
#1146=AXIS2_PLACEMENT_3D('',#1783,#1439,#1440);
#1147=AXIS2_PLACEMENT_3D('',#1784,#1441,#1442);
#1148=AXIS2_PLACEMENT_3D('',#1785,#1443,#1444);
#1149=AXIS2_PLACEMENT_3D('',#1786,#1445,#1446);
#1150=AXIS2_PLACEMENT_3D('',#1787,#1447,#1448);
#1151=AXIS2_PLACEMENT_3D('',#1788,#1449,#1450);
#1152=AXIS2_PLACEMENT_3D('',#1789,#1451,#1452);
#1153=AXIS2_PLACEMENT_3D('',#1790,#1453,#1454);
#1154=AXIS2_PLACEMENT_3D('',#1791,#1455,#1456);
#1155=AXIS2_PLACEMENT_3D('',#1792,#1457,#1458);
#1156=AXIS2_PLACEMENT_3D('',#1793,#1459,#1460);
#1157=DIRECTION('',(0.,0.,1.));
#1158=DIRECTION('',(1.,0.,0.));
#1159=DIRECTION('',(4.77569372936415E-15,2.7607619487946E-5,-0.99999999961891));
#1160=DIRECTION('',(0.,0.99999999961891,2.76076194872244E-5));
#1161=DIRECTION('',(-4.77569372936415E-15,-2.7607619487946E-5,0.99999999961891));
#1162=DIRECTION('',(0.,0.99999999961891,2.76076194872244E-5));
#1163=DIRECTION('',(4.77569372936415E-15,2.7607619487946E-5,-0.99999999961891));
#1164=DIRECTION('',(0.,0.99999999961891,2.76076194872244E-5));
#1165=DIRECTION('',(4.77569372936415E-15,2.7607619487946E-5,-0.99999999961891));
#1166=DIRECTION('',(0.,0.99999999961891,2.76076194872244E-5));
#1167=DIRECTION('',(-4.77569372936415E-15,-2.7607619487946E-5,0.99999999961891));
#1168=DIRECTION('',(0.,0.99999999961891,2.76076194872244E-5));
#1169=DIRECTION('',(-4.77569372936415E-15,-2.7607619487946E-5,0.99999999961891));
#1170=DIRECTION('',(0.,-0.99999999961891,-2.76076194872244E-5));
#1171=DIRECTION('',(0.5,2.39088998256199E-5,-0.866025403454404));
#1172=DIRECTION('',(0.866025403784438,-1.3803809724322E-5,0.499999999809457));
#1173=DIRECTION('',(-2.51693220908285E-16,2.76076194999919E-5,-0.99999999961891));
#1174=DIRECTION('',(0.,0.99999999961891,2.76076194999919E-5));
#1175=DIRECTION('',(-4.77569372936415E-15,-2.7607619487946E-5,0.99999999961891));
#1176=DIRECTION('',(0.,-0.99999999961891,-2.76076194872244E-5));
#1177=DIRECTION('',(-4.77569372936415E-15,-2.7607619487946E-5,0.99999999961891));
#1178=DIRECTION('',(0.,-0.99999999961891,-2.76076194872244E-5));
#1179=DIRECTION('',(4.77569372936415E-15,2.7607619487946E-5,-0.99999999961891));
#1180=DIRECTION('',(0.,0.99999999961891,2.76076194872244E-5));
#1181=DIRECTION('',(-4.77569372936415E-15,-2.7607619487946E-5,0.99999999961891));
#1182=DIRECTION('',(0.,0.99999999961891,2.7607619487946E-5));
#1183=DIRECTION('',(4.77569372936415E-15,2.7607619487946E-5,-0.99999999961891));
#1184=DIRECTION('',(0.,0.99999999961891,2.76076194872244E-5));
#1185=DIRECTION('',(4.77569372936415E-15,2.7607619487946E-5,-0.99999999961891));
#1186=DIRECTION('',(0.,0.99999999961891,2.76076194872244E-5));
#1187=DIRECTION('',(4.77569372936415E-15,2.7607619487946E-5,-0.99999999961891));
#1188=DIRECTION('',(0.,0.99999999961891,2.7607619487946E-5));
#1189=DIRECTION('',(4.77569372936415E-15,2.7607619487946E-5,-0.99999999961891));
#1190=DIRECTION('',(0.,0.99999999961891,2.76076194872244E-5));
#1191=DIRECTION('',(4.77569372936415E-15,2.7607619487946E-5,-0.99999999961891));
#1192=DIRECTION('',(0.,0.99999999961891,2.76076194872244E-5));
#1193=DIRECTION('',(-4.77569372936415E-15,-2.7607619487946E-5,0.99999999961891));
#1194=DIRECTION('',(0.,-0.99999999961891,-2.76076194872244E-5));
#1195=DIRECTION('',(0.5,2.39088998256199E-5,-0.866025403454404));
#1196=DIRECTION('',(0.866025403784438,-1.3803809724322E-5,0.499999999809457));
#1197=DIRECTION('',(-2.51693220908285E-16,2.76076194999919E-5,-0.99999999961891));
#1198=DIRECTION('',(0.,0.99999999961891,2.76076194999919E-5));
#1199=DIRECTION('',(4.77569372936415E-15,2.7607619487946E-5,-0.99999999961891));
#1200=DIRECTION('',(0.,0.99999999961891,2.76076194872244E-5));
#1201=DIRECTION('',(-4.77569372936415E-15,-2.7607619487946E-5,0.99999999961891));
#1202=DIRECTION('',(0.,0.99999999961891,2.7607619487946E-5));
#1203=DIRECTION('',(4.77569372936415E-15,2.7607619487946E-5,-0.99999999961891));
#1204=DIRECTION('',(0.,0.99999999961891,2.76076194872244E-5));
#1205=DIRECTION('',(4.77569372936415E-15,2.7607619487946E-5,-0.99999999961891));
#1206=DIRECTION('',(0.,0.99999999961891,2.76076194872244E-5));
#1207=DIRECTION('',(4.77569372936415E-15,2.7607619487946E-5,-0.99999999961891));
#1208=DIRECTION('',(0.,0.99999999961891,2.7607619487946E-5));
#1209=DIRECTION('',(4.77569372936415E-15,2.76076194872244E-5,-0.99999999961891));
#1210=DIRECTION('',(0.,0.99999999961891,2.76076194872244E-5));
#1211=DIRECTION('',(4.77569372936415E-15,2.7607619487946E-5,-0.99999999961891));
#1212=DIRECTION('',(0.,0.99999999961891,2.76076194872244E-5));
#1213=DIRECTION('',(-4.77569372936415E-15,-2.7607619487946E-5,0.99999999961891));
#1214=DIRECTION('',(0.,-0.99999999961891,-2.76076194872244E-5));
#1215=DIRECTION('',(-0.5,2.39088998249537E-5,-0.866025403454403));
#1216=DIRECTION('',(-0.866025403784436,-1.38038097241555E-5,0.49999999980946));
#1217=DIRECTION('',(-2.51693220908285E-16,2.76076194999919E-5,-0.99999999961891));
#1218=DIRECTION('',(0.,0.99999999961891,2.76076194999919E-5));
#1219=DIRECTION('',(4.77569372936415E-15,2.7607619487946E-5,-0.99999999961891));
#1220=DIRECTION('',(0.,0.99999999961891,2.76076194872244E-5));
#1221=DIRECTION('',(-4.77569372936415E-15,-2.7607619487946E-5,0.99999999961891));
#1222=DIRECTION('',(0.,0.99999999961891,2.7607619487946E-5));
#1223=DIRECTION('',(4.77569372936415E-15,2.7607619487946E-5,-0.99999999961891));
#1224=DIRECTION('',(0.,0.99999999961891,2.76076194872244E-5));
#1225=DIRECTION('',(-4.77569372936415E-15,-2.7607619487946E-5,0.99999999961891));
#1226=DIRECTION('',(0.,-0.99999999961891,-2.76076194872244E-5));
#1227=DIRECTION('',(4.77569372936415E-15,2.7607619487946E-5,-0.99999999961891));
#1228=DIRECTION('',(0.,0.99999999961891,2.7607619487946E-5));
#1229=DIRECTION('',(-4.77569372936415E-15,-2.7607619487946E-5,0.99999999961891));
#1230=DIRECTION('',(0.,-0.99999999961891,-2.76076194872244E-5));
#1231=DIRECTION('',(4.77569372936415E-15,2.7607619487946E-5,-0.99999999961891));
#1232=DIRECTION('',(0.,0.99999999961891,2.76076194872244E-5));
#1233=DIRECTION('',(-4.77569372936415E-15,-2.7607619487946E-5,0.99999999961891));
#1234=DIRECTION('',(0.,-0.99999999961891,-2.76076194872244E-5));
#1235=DIRECTION('',(-0.5,2.39088998249537E-5,-0.866025403454403));
#1236=DIRECTION('',(-0.866025403784436,-1.38038097241555E-5,0.49999999980946));
#1237=DIRECTION('',(-2.51693220908285E-16,2.76076194999919E-5,-0.99999999961891));
#1238=DIRECTION('',(0.,0.99999999961891,2.76076194999919E-5));
#1239=DIRECTION('',(-1.31512079454678E-15,-0.99999999961891,-2.7607619487946E-5));
#1240=DIRECTION('',(0.,2.7607619487946E-5,-0.99999999961891));
#1241=DIRECTION('',(-1.,-1.97044369562055E-16,-3.22164696471875E-15));
#1242=DIRECTION('',(0.,-2.7607619487946E-5,0.99999999961891));
#1243=DIRECTION('',(-1.,2.53310878712108E-15,-4.77562379808058E-15));
#1244=DIRECTION('',(0.,-2.7607619487946E-5,0.99999999961891));
#1245=DIRECTION('',(-1.,0.,0.));
#1246=DIRECTION('',(-4.12133274929668E-17,-0.662620048215737,0.748955720789003));
#1247=DIRECTION('',(1.,0.,0.));
#1248=DIRECTION('',(0.,-0.662620048215737,0.748955720789003));
#1249=DIRECTION('',(-1.,0.,0.));
#1250=DIRECTION('',(0.,-0.662620048215737,0.748955720789003));
#1251=DIRECTION('',(1.,0.,0.));
#1252=DIRECTION('',(4.12133274929668E-17,0.662620048215737,-0.748955720789003));
#1253=DIRECTION('',(-1.,0.,0.));
#1254=DIRECTION('',(0.,-0.662620048215737,0.748955720789003));
#1255=DIRECTION('',(1.,0.,0.));
#1256=DIRECTION('',(0.,-0.662620048215737,0.748955720789003));
#1257=DIRECTION('',(-1.,0.,0.));
#1258=DIRECTION('',(-1.37377758309889E-17,-0.662620048215737,0.748955720789003));
#1259=DIRECTION('',(1.,0.,0.));
#1260=DIRECTION('',(0.,0.662620048215737,-0.748955720789003));
#1261=DIRECTION('',(-1.,0.,0.));
#1262=DIRECTION('',(0.,0.662620048215737,-0.748955720789003));
#1263=DIRECTION('',(1.,0.,0.));
#1264=DIRECTION('',(-5.49511033239557E-17,0.662620048215737,-0.748955720789003));
#1265=DIRECTION('',(-1.,0.,0.));
#1266=DIRECTION('',(0.,-0.662620048215737,0.748955720789003));
#1267=DIRECTION('',(1.,0.,0.));
#1268=DIRECTION('',(0.,-0.662620048215737,0.748955720789003));
#1269=DIRECTION('',(1.,0.,0.));
#1270=DIRECTION('',(0.,0.662620048215737,-0.748955720789003));
#1271=DIRECTION('',(1.,0.,0.));
#1272=DIRECTION('',(0.,0.662620048215737,-0.748955720789003));
#1273=DIRECTION('',(0.,-0.906296119207101,-0.422643282580178));
#1274=DIRECTION('',(0.,0.422643282580178,-0.906296119207101));
#1275=DIRECTION('',(0.,0.88341761206539,0.468586515696604));
#1276=DIRECTION('',(0.,-0.468586515696604,0.883417612065391));
#1277=DIRECTION('',(0.,-0.906296119207101,-0.422643282580178));
#1278=DIRECTION('',(0.,-0.275610817564814,-0.961269305263231));
#1279=DIRECTION('',(0.,-0.961269305263231,0.275610817564814));
#1280=DIRECTION('',(0.,0.906296119207101,0.422643282580178));
#1281=DIRECTION('',(0.,-0.906296119207101,-0.422643282580178));
#1282=DIRECTION('',(0.,0.422643282580178,-0.906296119207101));
#1283=DIRECTION('',(0.,0.88341761206539,0.468586515696604));
#1284=DIRECTION('',(0.,-0.468586515696604,0.883417612065391));
#1285=DIRECTION('',(0.,-0.906296119207101,-0.422643282580178));
#1286=DIRECTION('',(0.,-0.275610817564814,-0.961269305263231));
#1287=DIRECTION('',(0.,-0.961269305263231,0.275610817564814));
#1288=DIRECTION('',(0.,0.906296119207101,0.422643282580178));
#1289=DIRECTION('',(0.,0.906296119207101,0.422643282580178));
#1290=DIRECTION('',(0.,-0.422643282580178,0.906296119207101));
#1291=DIRECTION('',(0.,0.88341761206539,0.468586515696604));
#1292=DIRECTION('',(0.,0.468586515696604,-0.883417612065391));
#1293=DIRECTION('',(0.,-0.906296119207101,-0.422643282580178));
#1294=DIRECTION('',(0.,-0.275610817564814,-0.961269305263231));
#1295=DIRECTION('',(0.,0.961269305263231,-0.275610817564814));
#1296=DIRECTION('',(0.,0.906296119207101,0.422643282580178));
#1297=DIRECTION('',(0.,-0.906296119207101,-0.422643282580178));
#1298=DIRECTION('',(0.,0.422643282580178,-0.906296119207101));
#1299=DIRECTION('',(0.,0.88341761206539,0.468586515696604));
#1300=DIRECTION('',(0.,-0.468586515696604,0.883417612065391));
#1301=DIRECTION('',(0.,-0.906296119207101,-0.422643282580178));
#1302=DIRECTION('',(0.,-0.275610817564814,-0.961269305263231));
#1303=DIRECTION('',(0.,-0.961269305263231,0.275610817564814));
#1304=DIRECTION('',(0.,0.906296119207101,0.422643282580178));
#1305=DIRECTION('',(0.,-0.883417612065391,-0.468586515696604));
#1306=DIRECTION('',(0.,0.468586515696604,-0.883417612065391));
#1307=DIRECTION('',(0.882880824589632,0.220046875477741,-0.414850361171851));
#1308=DIRECTION('',(-1.,-9.17286635758591E-16,1.72934376512453E-15));
#1309=DIRECTION('',(0.,-0.468586515696604,0.883417612065391));
#1310=DIRECTION('',(-1.,0.,0.));
#1311=DIRECTION('',(0.,-0.468586515696604,0.883417612065391));
#1312=DIRECTION('',(-1.,0.,0.));
#1313=DIRECTION('',(0.,0.468586515696604,-0.883417612065391));
#1314=DIRECTION('',(-1.,0.,0.));
#1315=DIRECTION('',(0.,-0.468586515696604,0.883417612065391));
#1316=DIRECTION('',(-1.,-9.17286635758591E-16,1.72934376512453E-15));
#1317=DIRECTION('',(0.809033383355241,-0.275417672901144,0.519239915713816));
#1318=DIRECTION('',(0.,-0.275610817564814,-0.961269305263231));
#1319=DIRECTION('',(0.,0.961269305263231,-0.275610817564814));
#1320=DIRECTION('',(0.,0.961269305263231,-0.275610817564814));
#1321=DIRECTION('',(1.,2.86447508749661E-15,-8.21289431001639E-16));
#1322=DIRECTION('',(-0.430836289233119,-0.867478358734243,0.248719498647735));
#1323=DIRECTION('',(-0.991687246134805,0.123688153696302,-0.0354633118697006));
#1324=DIRECTION('',(-0.430836289233121,0.867478358734242,-0.248719498647736));
#1325=DIRECTION('',(1.,2.8644750874966E-15,-8.21289431001638E-16));
#1326=DIRECTION('',(0.,-0.961269305263231,0.275610817564814));
#1327=DIRECTION('',(-1.,0.,0.));
#1328=DIRECTION('',(0.,0.961269305263231,-0.275610817564814));
#1329=DIRECTION('',(1.,0.,0.));
#1330=DIRECTION('',(0.,-0.961269305263231,0.275610817564814));
#1331=DIRECTION('',(-1.,0.,0.));
#1332=DIRECTION('',(-1.,0.,0.));
#1333=DIRECTION('',(0.,-0.662620048215737,0.748955720789003));
#1334=DIRECTION('',(-1.,0.,0.));
#1335=DIRECTION('',(0.,-0.662620048215737,0.748955720789003));
#1336=DIRECTION('',(-1.,0.,0.));
#1337=DIRECTION('',(0.,0.748955720789003,0.662620048215737));
#1338=DIRECTION('',(1.,0.,0.));
#1339=DIRECTION('',(0.,0.662620048215737,-0.748955720789003));
#1340=DIRECTION('',(0.,-0.99999999961891,-2.76076194907771E-5));
#1341=DIRECTION('',(0.,2.76076194999919E-5,-0.99999999961891));
#1342=DIRECTION('',(0.,0.99999999961891,2.76076194999919E-5));
#1343=DIRECTION('',(0.,2.76076194999919E-5,-0.99999999961891));
#1344=DIRECTION('',(-1.,0.,0.));
#1345=DIRECTION('',(0.,-0.662620048215737,0.748955720789003));
#1346=DIRECTION('',(-1.,0.,0.));
#1347=DIRECTION('',(0.,0.748955720789003,0.662620048215737));
#1348=DIRECTION('',(1.,0.,0.));
#1349=DIRECTION('',(0.,0.662620048215737,-0.748955720789003));
#1350=DIRECTION('',(-1.9549825779113E-15,0.422643282580178,-0.906296119207101));
#1351=DIRECTION('',(0.,0.906296119207101,0.422643282580178));
#1352=DIRECTION('',(0.964208185006007,0.240301089311304,0.112062315000282));
#1353=DIRECTION('',(0.590661858214399,-0.731307724828908,-0.341038972635503));
#1354=DIRECTION('',(-1.9549825779113E-15,0.422643282580178,-0.906296119207101));
#1355=DIRECTION('',(0.,0.906296119207101,0.422643282580178));
#1356=DIRECTION('',(0.5906618582144,0.731307724828909,0.3410389726355));
#1357=DIRECTION('',(0.93614399435076,-0.318669002888929,-0.148608507289387));
#1358=DIRECTION('',(0.,0.422643282580178,-0.906296119207101));
#1359=DIRECTION('',(0.,0.906296119207101,0.422643282580178));
#1360=DIRECTION('',(-1.,0.,0.));
#1361=DIRECTION('',(0.,-0.662620048215737,0.748955720789003));
#1362=DIRECTION('',(1.,0.,0.));
#1363=DIRECTION('',(0.,0.662620048215737,-0.748955720789003));
#1364=DIRECTION('',(-1.,0.,0.));
#1365=DIRECTION('',(0.,-0.662620048215737,0.748955720789003));
#1366=DIRECTION('',(-1.,0.,0.));
#1367=DIRECTION('',(0.,-0.662620048215737,0.748955720789003));
#1368=DIRECTION('',(0.241827227959921,-0.970319324294643,-2.6788206708872E-5));
#1369=DIRECTION('',(0.,2.76076194999919E-5,-0.99999999961891));
#1370=DIRECTION('',(-0.970319324664422,-0.241827227867765,-6.67627410091964E-6));
#1371=DIRECTION('',(0.,2.76076194999919E-5,-0.99999999961891));
#1372=DIRECTION('',(0.970319324664422,0.241827227867763,6.67627409396687E-6));
#1373=DIRECTION('',(0.241827227959921,-0.970319324294643,-2.6788206708872E-5));
#1374=DIRECTION('',(-0.970319324664422,-0.241827227867763,-6.67627409396687E-6));
#1375=DIRECTION('',(0.846532163116805,0.210989942919728,-0.48873974750936));
#1376=DIRECTION('',(-1.,0.,0.));
#1377=DIRECTION('',(0.,-0.662620048215737,0.748955720789003));
#1378=DIRECTION('',(0.,0.99999999961891,2.76076194907771E-5));
#1379=DIRECTION('',(0.,2.76076194999919E-5,-0.99999999961891));
#1380=DIRECTION('',(0.,-0.99999999961891,-2.76076194999919E-5));
#1381=DIRECTION('',(0.,2.76076194999919E-5,-0.99999999961891));
#1382=DIRECTION('',(0.123765040408474,0.992311550886204,2.73953597329512E-5));
#1383=DIRECTION('',(0.,-2.76076194999919E-5,0.99999999961891));
#1384=DIRECTION('',(0.992311551264364,-0.123765040361309,-3.41685813608217E-6));
#1385=DIRECTION('',(0.,2.76076194999919E-5,-0.99999999961891));
#1386=DIRECTION('',(-0.992311551264364,0.123765040361308,3.41685814326393E-6));
#1387=DIRECTION('',(0.123765040408474,0.992311550886204,2.73953597329512E-5));
#1388=DIRECTION('',(0.992311551264364,-0.123765040361308,-3.41685814432557E-6));
#1389=DIRECTION('',(-0.861017202782088,0.107403211405602,-0.497105548845588));
#1390=DIRECTION('',(-0.861017202782086,0.107375763440204,0.497111478381806));
#1391=DIRECTION('',(0.123765040408474,0.992311550886204,2.73953597329512E-5));
#1392=DIRECTION('',(0.992311551264364,-0.123765040361308,-3.41685814432557E-6));
#1393=DIRECTION('',(-0.992311551264364,0.123765040361308,3.41685814320147E-6));
#1394=DIRECTION('',(0.,2.76076194999919E-5,-0.99999999961891));
#1395=DIRECTION('',(-0.322250919000301,-0.946654289865329,-2.61348714419296E-5));
#1396=DIRECTION('',(0.,2.76076194999919E-5,-0.99999999961891));
#1397=DIRECTION('',(-0.946654290226086,0.322250918877505,8.89658074790245E-6));
#1398=DIRECTION('',(0.830680390333025,-0.282785443385138,0.479585740119162));
#1399=DIRECTION('',(-0.322250919000301,-0.946654289865329,-2.61348714419296E-5));
#1400=DIRECTION('',(0.94665429022609,-0.322250918877494,-8.89658075567401E-6));
#1401=DIRECTION('',(0.94665429022609,-0.322250918877494,-8.89658075567401E-6));
#1402=DIRECTION('',(0.,2.76076194999919E-5,-0.99999999961891));
#1403=DIRECTION('',(0.,-0.99999999961891,-2.76076194999919E-5));
#1404=DIRECTION('',(0.,2.76076194992148E-5,-0.99999999961891));
#1405=DIRECTION('',(0.,-0.99999999961891,-2.76076194999919E-5));
#1406=DIRECTION('',(0.,-0.99999999961891,-2.76076194999919E-5));
#1407=DIRECTION('',(-0.5,2.39088998248982E-5,-0.866025403454405));
#1408=DIRECTION('',(0.,0.99999999961891,2.76076194999919E-5));
#1409=DIRECTION('',(0.,-0.99999999961891,-2.76076194999919E-5));
#1410=DIRECTION('',(0.,-0.99999999961891,-2.76076194999919E-5));
#1411=DIRECTION('',(0.,-0.99999999961891,-2.76076194999919E-5));
#1412=DIRECTION('',(0.,2.76076194992148E-5,-0.99999999961891));
#1413=DIRECTION('',(0.,-0.99999999961891,-2.76076194999919E-5));
#1414=DIRECTION('',(0.,-0.99999999961891,-2.76076194999919E-5));
#1415=DIRECTION('',(0.,2.76076194992148E-5,-0.99999999961891));
#1416=DIRECTION('',(0.,-0.99999999961891,-2.76076194999919E-5));
#1417=DIRECTION('',(-2.51693220908285E-16,2.76076194999919E-5,-0.99999999961891));
#1418=DIRECTION('',(0.,0.99999999961891,2.76076194999919E-5));
#1419=DIRECTION('',(2.51693220908285E-16,-2.76076194999919E-5,0.99999999961891));
#1420=DIRECTION('',(0.,0.99999999961891,2.76076194999919E-5));
#1421=DIRECTION('',(2.51693220908285E-16,-2.76076194999919E-5,0.99999999961891));
#1422=DIRECTION('',(0.,0.99999999961891,2.76076194999919E-5));
#1423=DIRECTION('',(0.,-0.99999999961891,-2.76076194999919E-5));
#1424=DIRECTION('',(0.,2.76076194999919E-5,-0.99999999961891));
#1425=DIRECTION('',(0.,-0.99999999961891,-2.76076194999919E-5));
#1426=DIRECTION('',(0.,-0.99999999961891,-2.76076194999919E-5));
#1427=DIRECTION('',(0.5,2.39088998255643E-5,-0.866025403454405));
#1428=DIRECTION('',(0.,0.99999999961891,2.76076194999919E-5));
#1429=DIRECTION('',(0.,-0.99999999961891,-2.76076194999919E-5));
#1430=DIRECTION('',(0.,-0.99999999961891,-2.76076194999919E-5));
#1431=DIRECTION('',(0.,-0.99999999961891,-2.76076194999919E-5));
#1432=DIRECTION('',(0.,2.76076194999919E-5,-0.99999999961891));
#1433=DIRECTION('',(0.,-0.99999999961891,-2.76076194999919E-5));
#1434=DIRECTION('',(0.,-0.99999999961891,-2.76076194999919E-5));
#1435=DIRECTION('',(0.,2.76076194999919E-5,-0.99999999961891));
#1436=DIRECTION('',(0.,-0.99999999961891,-2.76076194999919E-5));
#1437=DIRECTION('',(-2.51693220908285E-16,2.76076194999919E-5,-0.99999999961891));
#1438=DIRECTION('',(0.,0.99999999961891,2.76076194999919E-5));
#1439=DIRECTION('',(2.51693220908285E-16,-2.76076194999919E-5,0.99999999961891));
#1440=DIRECTION('',(0.,0.99999999961891,2.76076194999919E-5));
#1441=DIRECTION('',(2.51693220908285E-16,-2.76076194999919E-5,0.99999999961891));
#1442=DIRECTION('',(0.,0.99999999961891,2.76076194999919E-5));
#1443=DIRECTION('',(0.,2.76076194999919E-5,-0.99999999961891));
#1444=DIRECTION('',(0.,0.99999999961891,2.76076194999919E-5));
#1445=DIRECTION('',(4.77569372936415E-15,2.7607619487946E-5,-0.99999999961891));
#1446=DIRECTION('',(1.22464679914738E-16,-0.99999999961891,-2.76076194872244E-5));
#1447=DIRECTION('',(0.,2.76076194999919E-5,-0.99999999961891));
#1448=DIRECTION('',(0.,0.99999999961891,2.76076194999919E-5));
#1449=DIRECTION('',(4.77569372936415E-15,2.7607619487946E-5,-0.99999999961891));
#1450=DIRECTION('',(1.22464679914736E-16,-0.99999999961891,-2.76076194872244E-5));
#1451=DIRECTION('',(0.,2.76076194999919E-5,-0.99999999961891));
#1452=DIRECTION('',(0.,0.99999999961891,2.76076194999919E-5));
#1453=DIRECTION('',(4.77569372936415E-15,2.7607619487946E-5,-0.99999999961891));
#1454=DIRECTION('',(0.,-0.99999999961891,-2.76076194872244E-5));
#1455=DIRECTION('',(0.,2.76076194999919E-5,-0.99999999961891));
#1456=DIRECTION('',(0.,0.99999999961891,2.76076194999919E-5));
#1457=DIRECTION('',(4.77569372936415E-15,2.7607619487946E-5,-0.99999999961891));
#1458=DIRECTION('',(0.,-0.99999999961891,-2.76076194872244E-5));
#1459=DIRECTION('',(4.77569372936415E-15,2.7607619487946E-5,-0.99999999961891));
#1460=DIRECTION('',(0.,0.99999999961891,2.76076194872244E-5));
#1461=CARTESIAN_POINT('',(0.,0.,0.));
#1462=CARTESIAN_POINT('',(-0.148056600000015,-0.0336052284943074,0.0103876722435886));
#1463=CARTESIAN_POINT('',(-0.148056600000015,-0.033605158370954,0.00784767224455662));
#1464=CARTESIAN_POINT('',(-0.148056600000015,-0.0256041583740031,0.00784789313312014));
#1465=CARTESIAN_POINT('',(-0.148056600000015,-0.0336052284943074,0.0103876722435886));
#1466=CARTESIAN_POINT('',(-0.148056600000015,-0.0230642284983245,0.0103879632555056));
#1467=CARTESIAN_POINT('',(-0.148056600000015,-0.033605158370954,0.00784767224455662));
#1468=CARTESIAN_POINT('',(-0.148056600000015,-0.0336051583708988,0.00784767224455655));
#1469=CARTESIAN_POINT('',(-0.148056600000015,-0.0282711583729315,0.0078478195035989));
#1470=CARTESIAN_POINT('',(-0.148056600000015,-0.033605158370954,0.00784767224455662));
#1471=CARTESIAN_POINT('',(-0.138034696958756,-0.0368727612079536,0.0249636168861293));
#1472=CARTESIAN_POINT('',(-0.138282486934051,-0.0376328515533626,0.0248205342928508));
#1473=CARTESIAN_POINT('',(-0.138931710032017,-0.0390526954262803,0.0244667698138215));
#1474=CARTESIAN_POINT('',(-0.140837258939086,-0.0415662746980199,0.0236776303395333));
#1475=CARTESIAN_POINT('',(-0.142860207551063,-0.0429198317709193,0.0232619725683161));
#1476=CARTESIAN_POINT('',(-0.144384696958784,-0.0434863637061697,0.0232619569277212));
#1477=CARTESIAN_POINT('',(-0.138034696958756,-0.0368727612079527,0.0249636168861292));
#1478=CARTESIAN_POINT('',(-0.144384696958784,-0.0434863637061697,0.0232619569277206));
#1479=CARTESIAN_POINT('',(-0.148056600000015,-0.0336054711621473,0.0191775586673598));
#1480=CARTESIAN_POINT('',(-0.138034696958755,-0.0303385005999096,0.0249637972815092));
#1481=CARTESIAN_POINT('',(-0.144384696958784,-0.0237248041542126,0.0232625024973382));
#1482=CARTESIAN_POINT('',(-0.142860187151653,-0.0242913436703078,0.0232624868565275));
#1483=CARTESIAN_POINT('',(-0.14016807194188,-0.0260995487014732,0.0238164961747778));
#1484=CARTESIAN_POINT('',(-0.138529939940479,-0.0288193377661194,0.0246779105530583));
#1485=CARTESIAN_POINT('',(-0.138034696958755,-0.0303385005999101,0.0249637972815102));
#1486=CARTESIAN_POINT('',(-0.144384696958784,-0.0237248041542127,0.0232625024973376));
#1487=CARTESIAN_POINT('',(-0.148056600000015,-0.0336055839301912,0.0232622297125286));
#1488=CARTESIAN_POINT('',(-0.148056600000015,-0.0336049416897366,-9.27752452448832E-7));
#1489=CARTESIAN_POINT('',(-0.148056600000015,-0.0336049416897366,-9.27752452448832E-7));
#1490=CARTESIAN_POINT('',(-0.148056600000015,-0.0389389416877039,-1.07501149479369E-6));
#1491=CARTESIAN_POINT('',(-0.148056600000015,0.0184659207604107,0.0103891098040641));
#1492=CARTESIAN_POINT('',(-0.148056600000015,0.0184659908837642,0.00784910980503208));
#1493=CARTESIAN_POINT('',(-0.148056600000015,0.0264669908807151,0.0078493306935956));
#1494=CARTESIAN_POINT('',(-0.148056600000015,0.0184659207604107,0.0103891098040641));
#1495=CARTESIAN_POINT('',(-0.148056600000015,0.0290069207563936,0.0103894008159811));
#1496=CARTESIAN_POINT('',(-0.148056600000015,0.0184659908837643,0.00784910980503207));
#1497=CARTESIAN_POINT('',(-0.148056600000015,0.0184659908837642,0.00784910980503207));
#1498=CARTESIAN_POINT('',(-0.148056600000015,0.0236221908817992,0.00784925215543967));
#1499=CARTESIAN_POINT('',(-0.148056600000015,0.0184662075649265,5.09808022967212E-7));
#1500=CARTESIAN_POINT('',(-0.148056600000015,0.0236224075629615,6.52158430567238E-7));
#1501=CARTESIAN_POINT('',(-0.148056600000015,-0.033605158370954,0.00784767224455662));
#1502=CARTESIAN_POINT('',(-0.148056600000015,0.0184659908837643,0.00784910980503207));
#1503=CARTESIAN_POINT('',(-0.138034696958755,0.0151983880467668,0.0249650544466056));
#1504=CARTESIAN_POINT('',(-0.13828248693405,0.0144382977013575,0.0248219718533272));
#1505=CARTESIAN_POINT('',(-0.138931710032016,0.01301845382844,0.0244682073742981));
#1506=CARTESIAN_POINT('',(-0.140837258939085,0.0105048745566989,0.0236790679000096));
#1507=CARTESIAN_POINT('',(-0.142860207551063,0.0091513174837988,0.0232634101287921));
#1508=CARTESIAN_POINT('',(-0.144384696958784,0.00858478554854832,0.0232633944881973));
#1509=CARTESIAN_POINT('',(-0.138034696958755,0.0151983880467668,0.0249650544466049));
#1510=CARTESIAN_POINT('',(-0.144384696958784,0.00858478554854845,0.0232633944881968));
#1511=CARTESIAN_POINT('',(-0.148056600000015,0.0184656780925709,0.0191789962278356));
#1512=CARTESIAN_POINT('',(-0.138034696958755,0.0217326486548079,0.0249652348419852));
#1513=CARTESIAN_POINT('',(-0.144384696958785,0.0283463451005059,0.0232639400578143));
#1514=CARTESIAN_POINT('',(-0.142860187151653,0.0277798055844107,0.0232639244170035));
#1515=CARTESIAN_POINT('',(-0.14016807194188,0.0259716005532448,0.0238179337352539));
#1516=CARTESIAN_POINT('',(-0.138529939940479,0.0232518114885984,0.0246793481135344));
#1517=CARTESIAN_POINT('',(-0.138034696958755,0.0217326486548074,0.0249652348419863));
#1518=CARTESIAN_POINT('',(-0.144384696958785,0.0283463451005057,0.0232639400578138));
#1519=CARTESIAN_POINT('',(-0.148056600000015,0.018465565324527,0.0232636672730048));
#1520=CARTESIAN_POINT('',(-1.4942968419052E-14,-0.0381011277225193,0.0103875481225141));
#1521=CARTESIAN_POINT('',(-1.49308381569794E-14,-0.0381010575991658,0.00784754812348211));
#1522=CARTESIAN_POINT('',(-1.49308381569794E-14,-0.0301000576022149,0.00784776901204563));
#1523=CARTESIAN_POINT('',(-1.4942968419052E-14,-0.0381011277225193,0.0103875481225141));
#1524=CARTESIAN_POINT('',(-1.4942968419052E-14,-0.0275601277265363,0.0103878391344311));
#1525=CARTESIAN_POINT('',(-1.49308381569794E-14,-0.0381010575991658,0.00784754812348211));
#1526=CARTESIAN_POINT('',(-1.49308381569794E-14,-0.0381010575991658,0.00784754812348211));
#1527=CARTESIAN_POINT('',(-1.49308381569794E-14,-0.0329448576011308,0.00784769047388971));
#1528=CARTESIAN_POINT('',(-1.48933556471751E-14,-0.0381008409180035,-1.05187352681876E-6));
#1529=CARTESIAN_POINT('',(-1.48933556471751E-14,-0.0329446409199685,-9.09523119218738E-7));
#1530=CARTESIAN_POINT('',(-0.148056600000015,-0.033605158370954,0.00784767224455662));
#1531=CARTESIAN_POINT('',(-1.49308381569794E-14,-0.0381010575991658,0.00784754812348211));
#1532=CARTESIAN_POINT('',(-0.0100219030412445,-0.034834399828029,0.0249636731604338));
#1533=CARTESIAN_POINT('',(-0.00977411306594467,-0.0340743015834472,0.0248206325359406));
#1534=CARTESIAN_POINT('',(-0.00912488996797174,-0.0326544381795206,0.0244669464544668));
#1535=CARTESIAN_POINT('',(-0.00721934106089949,-0.0301408153391175,0.0236779457692634));
#1536=CARTESIAN_POINT('',(-0.00519639244893374,-0.0287872353176584,0.023262362735662));
#1537=CARTESIAN_POINT('',(-0.00367190304122204,-0.0282207033824157,0.0232623783762628));
#1538=CARTESIAN_POINT('',(-0.0100219030412445,-0.0348343998280291,0.0249636731604334));
#1539=CARTESIAN_POINT('',(-0.00367190304121891,-0.0282207033824145,0.0232623783762623));
#1540=CARTESIAN_POINT('',(-1.49849462245438E-14,-0.0381013703903592,0.0191774345463015));
#1541=CARTESIAN_POINT('',(-0.0100219030412445,-0.0413686604362567,0.0249634927650529));
#1542=CARTESIAN_POINT('',(-0.00367190304122199,-0.0479822629343906,0.0232618328066457));
#1543=CARTESIAN_POINT('',(-0.00519641284834342,-0.0474157234183034,0.0232618484474505));
#1544=CARTESIAN_POINT('',(-0.0078885280581059,-0.0456075489796738,0.0238159576053237));
#1545=CARTESIAN_POINT('',(-0.00952666005951112,-0.0428878074824102,0.0246775221560925));
#1546=CARTESIAN_POINT('',(-0.0100219030412445,-0.041368660436257,0.0249634927650531));
#1547=CARTESIAN_POINT('',(-0.00367190304121888,-0.0479822629343918,0.0232618328066453));
#1548=CARTESIAN_POINT('',(-1.50044533624482E-14,-0.0381014831584032,0.0232621055914532));
#1549=CARTESIAN_POINT('',(-1.5148645906779E-14,-2.86804507193018E-7,0.0103885999960328));
#1550=CARTESIAN_POINT('',(-1.51365156447065E-14,-2.16681153696746E-7,0.00784859999700076));
#1551=CARTESIAN_POINT('',(-1.51365156447065E-14,0.0080007833157972,0.00784882088556428));
#1552=CARTESIAN_POINT('',(-1.5148645906779E-14,-2.8680450721557E-7,0.0103885999960328));
#1553=CARTESIAN_POINT('',(-1.5148645906779E-14,0.0105407131914757,0.0103888910079498));
#1554=CARTESIAN_POINT('',(-1.50990331349022E-14,8.610287274676E-15,-8.23954876977557E-15));
#1555=CARTESIAN_POINT('',(-1.51365156447065E-14,-2.16681153703252E-7,0.00784859999700077));
#1556=CARTESIAN_POINT('',(-1.51365156447065E-14,0.00515598331688132,0.00784874234740837));
#1557=CARTESIAN_POINT('',(-1.50990331349022E-14,8.610287274676E-15,-8.23954876977557E-15));
#1558=CARTESIAN_POINT('',(-1.50990331349022E-14,-0.00515619999802641,-1.42350415839575E-7));
#1559=CARTESIAN_POINT('',(-0.148056600000015,-0.033605158370954,0.00784767224455662));
#1560=CARTESIAN_POINT('',(-1.51365156447064E-14,-2.16681153704553E-7,0.00784859999700074));
#1561=CARTESIAN_POINT('',(-0.0100219030412445,0.0032664410899837,0.024964725033953));
#1562=CARTESIAN_POINT('',(-0.00977411306594467,0.00402653933456547,0.0248216844094598));
#1563=CARTESIAN_POINT('',(-0.00912488996797166,0.00544640273849192,0.0244679983279859));
#1564=CARTESIAN_POINT('',(-0.0072193410608994,0.00796002557889488,0.0236789976427825));
#1565=CARTESIAN_POINT('',(-0.00519639244893369,0.0093136056003538,0.0232634146091811));
#1566=CARTESIAN_POINT('',(-0.00367190304122204,0.00988013753559653,0.0232634302497818));
#1567=CARTESIAN_POINT('',(-0.0100219030412445,0.00326644108998364,0.0249647250339525));
#1568=CARTESIAN_POINT('',(-0.00367190304121891,0.00988013753559772,0.0232634302497814));
#1569=CARTESIAN_POINT('',(-1.51906237122709E-14,-5.29472347011312E-7,0.0191784864198207));
#1570=CARTESIAN_POINT('',(-0.0100219030412445,-0.00326781951824533,0.0249645446385719));
#1571=CARTESIAN_POINT('',(-0.00367190304122202,-0.00988142201637858,0.0232628846801648));
#1572=CARTESIAN_POINT('',(-0.00519641284834339,-0.0093148825002914,0.0232629003209695));
#1573=CARTESIAN_POINT('',(-0.00788852805810569,-0.00750670806166211,0.0238170094788427));
#1574=CARTESIAN_POINT('',(-0.00952666005951111,-0.0047869665643985,0.0246785740296116));
#1575=CARTESIAN_POINT('',(-0.0100219030412445,-0.00326781951824539,0.0249645446385723));
#1576=CARTESIAN_POINT('',(-0.0036719030412189,-0.00988142201637971,0.0232628846801643));
#1577=CARTESIAN_POINT('',(-1.52101308501752E-14,-6.42240391013002E-7,0.0232631574649723));
#1578=CARTESIAN_POINT('',(-0.119639620783945,-0.059330788627755,-0.11541923802583));
#1579=CARTESIAN_POINT('',(-0.0223500085505428,-0.0593339750329368,-1.63806981426026E-6));
#1580=CARTESIAN_POINT('',(-0.0223500085505428,-0.0593339750329379,-1.63806981422903E-6));
#1581=CARTESIAN_POINT('',(-0.119639620783945,-0.0593339750329369,-1.63806981461067E-6));
#1582=CARTESIAN_POINT('',(-0.0223500085505428,-0.0593307886277552,-0.11541923802583));
#1583=CARTESIAN_POINT('',(-0.0223500085505428,-0.0593342947954303,0.0115807619257719));
#1584=CARTESIAN_POINT('',(-0.0559308,-0.0593342947954303,0.0115807619257719));
#1585=CARTESIAN_POINT('',(-0.119639620783945,-0.0593342947954304,0.0115807619257716));
#1586=CARTESIAN_POINT('',(-0.119639620783945,-0.0593307886277553,-0.11541923802583));
#1587=CARTESIAN_POINT('',(-0.0921258,-0.0567873884777377,0.0447230261234139));
#1588=CARTESIAN_POINT('',(-0.0921258,-0.0567873884777377,0.0447230261234139));
#1589=CARTESIAN_POINT('',(-0.0921258,-0.0635406463541404,0.0523561955907652));
#1590=CARTESIAN_POINT('',(-0.0914908,-0.0567873884777377,0.0447230261234139));
#1591=CARTESIAN_POINT('',(-0.0914908,-0.0631198826235234,0.0518806087080642));
#1592=CARTESIAN_POINT('',(-0.0845058,-0.0567873884777377,0.0447230261234139));
#1593=CARTESIAN_POINT('',(-0.0845058,-0.0567873884777377,0.0447230261234139));
#1594=CARTESIAN_POINT('',(-0.0845058,-0.0635406463541404,0.0523561955907652));
#1595=CARTESIAN_POINT('',(-0.0851408,-0.0567873884777377,0.0447230261234139));
#1596=CARTESIAN_POINT('',(-0.0851408,-0.0631198826235234,0.0518806087080642));
#1597=CARTESIAN_POINT('',(-0.0635508,-0.0567873884777377,0.0447230261234139));
#1598=CARTESIAN_POINT('',(-0.0635508,-0.0567873884777377,0.0447230261234139));
#1599=CARTESIAN_POINT('',(-0.0635508,-0.050034130601335,0.0370898566560626));
#1600=CARTESIAN_POINT('',(-0.0629158,-0.0567873884777377,0.0447230261234139));
#1601=CARTESIAN_POINT('',(-0.0629158,-0.050454894331952,0.0375654435387636));
#1602=CARTESIAN_POINT('',(-0.0559308,-0.0567873884777377,0.0447230261234139));
#1603=CARTESIAN_POINT('',(-0.0559308,-0.0567873884777377,0.0447230261234139));
#1604=CARTESIAN_POINT('',(-0.0559308,-0.0635406463541404,0.0523561955907652));
#1605=CARTESIAN_POINT('',(-0.0565658,-0.0567873884777377,0.0447230261234139));
#1606=CARTESIAN_POINT('',(-0.0565658,-0.0631198826235234,0.0518806087080642));
#1607=CARTESIAN_POINT('',(-0.0921258,-0.0567873884777377,0.0447230261234139));
#1608=CARTESIAN_POINT('',(-0.0921258,-0.0567873884777377,0.0447230261234139));
#1609=CARTESIAN_POINT('',(-0.0813308,-0.118600933681482,-0.00302083897300115));
#1610=CARTESIAN_POINT('',(-0.0813308,-0.0648780739347764,0.0220323476309608));
#1611=CARTESIAN_POINT('',(-0.0813308,-0.0633883496265193,0.0192237975618666));
#1612=CARTESIAN_POINT('',(-0.0845058,-0.0648780739347764,0.0220323476309608));
#1613=CARTESIAN_POINT('',(-0.0813308,-0.0633883496265191,0.0192237975618668));
#1614=CARTESIAN_POINT('',(-0.0813308,-0.00245243429335333,0.0476407296634507));
#1615=CARTESIAN_POINT('',(-0.0813308,-0.00710450050896041,0.0489745491935543));
#1616=CARTESIAN_POINT('',(-0.0845058,-0.00710450050896041,0.0489745491935543));
#1617=CARTESIAN_POINT('',(-0.0845058,-0.00379432671554541,0.0505182198419333));
#1618=CARTESIAN_POINT('',(-0.0667258,-0.118600933681482,-0.00302083897300128));
#1619=CARTESIAN_POINT('',(-0.0667258,-0.0648780739347764,0.0220323476309608));
#1620=CARTESIAN_POINT('',(-0.0635508,-0.0648780739347764,0.0220323476309608));
#1621=CARTESIAN_POINT('',(-0.0667258,-0.0633883496265193,0.0192237975618666));
#1622=CARTESIAN_POINT('',(-0.0635508,-0.0647302420487114,0.0221012877403493));
#1623=CARTESIAN_POINT('',(-0.0635508,-0.00710450050896041,0.0489745491935543));
#1624=CARTESIAN_POINT('',(-0.0667258,-0.00710450050896041,0.0489745491935543));
#1625=CARTESIAN_POINT('',(-0.0667258,-0.00245243429335333,0.0476407296634507));
#1626=CARTESIAN_POINT('',(-0.0667258,-0.00245243429335333,0.0476407296634507));
#1627=CARTESIAN_POINT('',(-0.0953008,-0.119674447619236,-0.000718846830215336));
#1628=CARTESIAN_POINT('',(-0.0953008,-0.0660698533813819,0.0242791876862362));
#1629=CARTESIAN_POINT('',(-0.0921258,-0.0660698533813819,0.0242791876862362));
#1630=CARTESIAN_POINT('',(-0.0953008,-0.0645801290731249,0.0214706376171422));
#1631=CARTESIAN_POINT('',(-0.0921258,-0.0506146833356546,0.0314865713023946));
#1632=CARTESIAN_POINT('',(-0.0921258,-0.0108261534814463,0.0500416048176371));
#1633=CARTESIAN_POINT('',(-0.0953008,-0.0108261534814463,0.0500416048176371));
#1634=CARTESIAN_POINT('',(-0.0953008,-0.00617408726583901,0.0487077852875336));
#1635=CARTESIAN_POINT('',(-0.0953008,-0.118332555197044,-0.00359633700869777));
#1636=CARTESIAN_POINT('',(-0.0527558,-0.0506146833356544,0.0314865713023944));
#1637=CARTESIAN_POINT('',(-0.0527558,-0.0660698533813819,0.0242791876862362));
#1638=CARTESIAN_POINT('',(-0.0527558,-0.064580129073125,0.0214706376171419));
#1639=CARTESIAN_POINT('',(-0.0559308,-0.0660698533813821,0.024279187686236));
#1640=CARTESIAN_POINT('',(-0.0527558,-0.064580129073125,0.0214706376171419));
#1641=CARTESIAN_POINT('',(-0.0527558,-0.0061740872658392,0.0487077852875335));
#1642=CARTESIAN_POINT('',(-0.0527558,-0.0108261534814461,0.050041604817637));
#1643=CARTESIAN_POINT('',(-0.0559308,-0.0108261534814461,0.050041604817637));
#1644=CARTESIAN_POINT('',(-0.0559308,-0.00751597968803112,0.0515852754660159));
#1645=CARTESIAN_POINT('',(-0.0559308,-0.0566397768116965,0.00650083631306242));
#1646=CARTESIAN_POINT('',(-0.0203321849511599,-0.0588313777924301,0.0106326216721045));
#1647=CARTESIAN_POINT('',(-0.0433975534552163,-0.0645801290731248,0.0214706376171421));
#1648=CARTESIAN_POINT('',(0.0529717,-0.064580129073125,0.0214706376171419));
#1649=CARTESIAN_POINT('',(-0.0559308,-0.0566397768116965,0.00650083631306242));
#1650=CARTESIAN_POINT('',(-0.0559308,-0.0724945536202601,0.0363915578743283));
#1651=CARTESIAN_POINT('',(-0.0559308,-0.0724945536202601,0.0363915578743283));
#1652=CARTESIAN_POINT('',(-0.0635508,-0.0724945536202601,0.0363915578743283));
#1653=CARTESIAN_POINT('',(-0.0635508,-0.0566397768116965,0.00650083631306242));
#1654=CARTESIAN_POINT('',(-0.0635508,-0.0633883496265193,0.0192237975618666));
#1655=CARTESIAN_POINT('',(-0.0845058,-0.0566397768116965,0.00650083631306242));
#1656=CARTESIAN_POINT('',(-0.0845058,-0.0724945536202601,0.0363915578743283));
#1657=CARTESIAN_POINT('',(-0.0559308,-0.0724945536202601,0.0363915578743283));
#1658=CARTESIAN_POINT('',(-0.0921258,-0.0724945536202601,0.0363915578743283));
#1659=CARTESIAN_POINT('',(-0.0921258,-0.0566397768116965,0.00650083631306242));
#1660=CARTESIAN_POINT('',(-0.0559308,-0.064580129073125,0.0214706376171421));
#1661=CARTESIAN_POINT('',(-0.104230097460699,-0.0645801290731248,0.0214706376171421));
#1662=CARTESIAN_POINT('',(-0.0747598056902783,-0.0746126436097507,0.0403847543022576));
#1663=CARTESIAN_POINT('',(0.00217169999999989,0.045777933273309,0.0338123353064092));
#1664=CARTESIAN_POINT('',(-0.0559308,0.045777933273309,0.0338123353064092));
#1665=CARTESIAN_POINT('',(-0.0559308,-0.0518870281414353,0.0618143943709941));
#1666=CARTESIAN_POINT('',(0.00217169999999989,-0.00617408726583885,0.0487077852875335));
#1667=CARTESIAN_POINT('',(-0.0511465411372374,-0.0061740872658392,0.0487077852875335));
#1668=CARTESIAN_POINT('',(-0.018599113379767,0.0593593645757608,0.0299183283257701));
#1669=CARTESIAN_POINT('',(-0.0380731903609277,0.0201487856165187,0.0411606094066033));
#1670=CARTESIAN_POINT('',(-0.145198679602152,0.033510008148828,0.037329739695449));
#1671=CARTESIAN_POINT('',(-0.114732050950145,0.0297100590600348,0.0384192440303242));
#1672=CARTESIAN_POINT('',(-0.140263024957352,0.0811160524318559,0.0236803485060786));
#1673=CARTESIAN_POINT('',(-0.0969100588627628,-0.00617408726583916,0.0487077852875335));
#1674=CARTESIAN_POINT('',(0.00217170000000005,-0.00617408726583877,0.0487077852875335));
#1675=CARTESIAN_POINT('',(-0.0921258,0.045777933273309,0.0338123353064092));
#1676=CARTESIAN_POINT('',(-0.0921258,-0.0518870281414353,0.0618143943709941));
#1677=CARTESIAN_POINT('',(0.00217169999999989,-0.0518870281414353,0.0618143943709941));
#1678=CARTESIAN_POINT('',(-0.0845058,-0.0518870281414353,0.0618143943709941));
#1679=CARTESIAN_POINT('',(-0.0845058,0.045777933273309,0.0338123353064092));
#1680=CARTESIAN_POINT('',(0.00217169999999989,-0.00245243429335333,0.0476407296634507));
#1681=CARTESIAN_POINT('',(-0.0635508,0.045777933273309,0.0338123353064092));
#1682=CARTESIAN_POINT('',(-0.0635508,-0.0518870281414353,0.0618143943709941));
#1683=CARTESIAN_POINT('',(0.00217169999999989,-0.0518870281414353,0.0618143943709941));
#1684=CARTESIAN_POINT('',(0.00217169999999989,-0.0567873884777379,0.0447230261234141));
#1685=CARTESIAN_POINT('',(-0.0845058,-0.0567873884777379,0.0447230261234141));
#1686=CARTESIAN_POINT('',(-0.0921258,-0.0567873884777377,0.0447230261234139));
#1687=CARTESIAN_POINT('',(0.0152399999999995,4.14101773091868E-5,0.0649224011679697));
#1688=CARTESIAN_POINT('',(0.0152399999999995,4.32025302265117E-5,1.19271126512005E-9));
#1689=CARTESIAN_POINT('',(0.0152400000000004,4.32025302332409E-5,1.19271069624595E-9));
#1690=CARTESIAN_POINT('',(0.0152399999999995,-0.038057638387855,-1.05068080801657E-6));
#1691=CARTESIAN_POINT('',(0.0152399999999995,4.14101773093603E-5,0.0649224011679719));
#1692=CARTESIAN_POINT('',(0.0152399999999996,4.25602898257022E-5,0.0232631586576914));
#1693=CARTESIAN_POINT('',(0.0152399999999995,0.0825916851997559,0.0232654376425228));
#1694=CARTESIAN_POINT('',(0.0152399999999995,-0.0380582806282548,0.0232621067841723));
#1695=CARTESIAN_POINT('',(0.0152399999999995,-0.038059430740771,0.0649213492944504));
#1696=CARTESIAN_POINT('',(0.00217169999999989,-0.0567873884777379,0.0447230261234141));
#1697=CARTESIAN_POINT('',(-0.0559308,-0.0567873884777377,0.0447230261234139));
#1698=CARTESIAN_POINT('',(-0.0635508,-0.0567873884777379,0.0447230261234141));
#1699=CARTESIAN_POINT('',(0.0529717,-0.118332555197043,-0.00359633700869791));
#1700=CARTESIAN_POINT('',(0.00778880364257972,-0.0518234054114177,0.0274196243214756));
#1701=CARTESIAN_POINT('',(-0.0105792328404641,-0.0564011089032808,0.0252848522646643));
#1702=CARTESIAN_POINT('',(-0.0906689609721675,0.0427592415537862,0.0715274159596756));
#1703=CARTESIAN_POINT('',(0.0529717,-0.118332555197043,-0.00359633700869791));
#1704=CARTESIAN_POINT('',(-0.0776971613912932,0.017613702891641,0.059801013543086));
#1705=CARTESIAN_POINT('',(-0.135489083493216,-0.0539393836638575,0.026432856337451));
#1706=CARTESIAN_POINT('',(0.0530588658373173,-0.118122230931476,-0.00349825412373171));
#1707=CARTESIAN_POINT('',(-0.0635508,-0.11725904125929,-0.00589832915148391));
#1708=CARTESIAN_POINT('',(-0.0845058,-0.118332555197044,-0.00359633700869777));
#1709=CARTESIAN_POINT('',(-0.0635508,-0.136582292138856,0.0355375294186647));
#1710=CARTESIAN_POINT('',(-0.0921258,-0.0567873884777377,0.0447230261234139));
#1711=CARTESIAN_POINT('',(-0.0559308,-0.0567873884777377,0.0447230261234139));
#1712=CARTESIAN_POINT('',(0.0036854469541039,-0.0528470972430227,0.06492094104218));
#1713=CARTESIAN_POINT('',(0.0036854469541039,-0.0528453048901056,-1.45893307760409E-6));
#1714=CARTESIAN_POINT('',(0.0036854469541039,-0.0528453048901053,-1.45893307797879E-6));
#1715=CARTESIAN_POINT('',(0.0036854469541039,-0.0528470972430229,0.0649209410421856));
#1716=CARTESIAN_POINT('',(0.0036854469541074,-0.0528459471305056,0.0232616985319021));
#1717=CARTESIAN_POINT('',(-0.175688896731782,-0.0975504059427216,0.0232604643482127));
#1718=CARTESIAN_POINT('',(-0.00367190304122526,-0.0546795780895092,0.0232616479097168));
#1719=CARTESIAN_POINT('',(-0.0036719030412442,-0.0546799287062815,0.0359616479048776));
#1720=CARTESIAN_POINT('',(-0.0100219030412445,-0.0562621998486128,0.0249630815898831));
#1721=CARTESIAN_POINT('',(-0.0161209380303005,-0.0577823252499542,0.0284843191169099));
#1722=CARTESIAN_POINT('',(-0.1632966,-0.0335635315124374,0.0649214734155259));
#1723=CARTESIAN_POINT('',(-0.1632966,-0.03356173915952,-9.2655973331357E-7));
#1724=CARTESIAN_POINT('',(-0.1632966,-0.0335617391595132,-9.26559733622351E-7));
#1725=CARTESIAN_POINT('',(-0.1632966,0.0185094100951947,5.11000742230844E-7));
#1726=CARTESIAN_POINT('',(-0.1632966,-0.0335635315124374,0.0649214734155305));
#1727=CARTESIAN_POINT('',(-0.1632966,-0.0335623813999209,0.0232622309052476));
#1728=CARTESIAN_POINT('',(-0.1632966,-0.0335623813999209,0.0232622309052476));
#1729=CARTESIAN_POINT('',(-0.1632966,0.0185087678547885,0.0232636684657238));
#1730=CARTESIAN_POINT('',(-0.1632966,0.0185076177422722,0.0649229109760017));
#1731=CARTESIAN_POINT('',(-0.146170420784175,0.0336304457777778,0.0649233284812857));
#1732=CARTESIAN_POINT('',(-0.146170420784175,0.0336322381306954,9.28506024445303E-7));
#1733=CARTESIAN_POINT('',(-0.146170420784174,0.0336322381307068,9.28506024389791E-7));
#1734=CARTESIAN_POINT('',(0.00188617921582512,0.0151660305657324,4.18697993293665E-7));
#1735=CARTESIAN_POINT('',(-0.146170420784175,0.0336304457777784,0.0649233284812845));
#1736=CARTESIAN_POINT('',(-0.146170420784175,0.0336315958902943,0.0232640859710061));
#1737=CARTESIAN_POINT('',(-0.146170420784175,0.0336315958902943,0.0232640859710061));
#1738=CARTESIAN_POINT('',(-0.144384696958784,0.0334088733178903,0.023264079822166));
#1739=CARTESIAN_POINT('',(-0.144384696958757,0.0334085227011192,0.035964079817327));
#1740=CARTESIAN_POINT('',(-0.138034696958756,0.0326168291077014,0.0249655353282984));
#1741=CARTESIAN_POINT('',(-0.127057264175018,0.0312475050916969,0.0313033212996374));
#1742=CARTESIAN_POINT('',(-0.129628506577998,0.031566469193632,0.0940204111054782));
#1743=CARTESIAN_POINT('',(-0.0100219030412445,0.0166505646963102,0.0249650945377442));
#1744=CARTESIAN_POINT('',(-0.0036719030412442,0.0158582638168368,0.0359635952964577));
#1745=CARTESIAN_POINT('',(-0.00367190304122525,0.0158586144336023,0.0232635953012969));
#1746=CARTESIAN_POINT('',(-0.225457793972741,0.0435206321816903,0.0232643589837573));
#1747=CARTESIAN_POINT('',(0.00188617921582515,0.0151653883253314,0.0232635761629738));
#1748=CARTESIAN_POINT('',(0.00188617921582512,0.0151642382128151,0.0649228186732542));
#1749=CARTESIAN_POINT('',(-0.0888717623774182,-0.0698094648546821,0.0649204727515888));
#1750=CARTESIAN_POINT('',(-0.119639620783945,-0.0593339750329374,-1.63806981443374E-6));
#1751=CARTESIAN_POINT('',(-0.152967704005569,-0.0479887505370518,-1.32485517400499E-6));
#1752=CARTESIAN_POINT('',(-0.0842609952042288,-0.071378771699449,0.0560089254524497));
#1753=CARTESIAN_POINT('',(-0.138034696958756,-0.0530727899162294,0.0249631696419002));
#1754=CARTESIAN_POINT('',(-0.144384696958757,-0.0509114878326474,0.0359617519425591));
#1755=CARTESIAN_POINT('',(-0.144384696958784,-0.0509111372158706,0.0232617519473981));
#1756=CARTESIAN_POINT('',(-0.0888717623774182,-0.0698083147421657,0.0232612302413109));
#1757=CARTESIAN_POINT('',(-0.152967704005574,-0.0479893927774661,0.023261832609807));
#1758=CARTESIAN_POINT('',(-0.152967704005574,-0.0479905428899824,0.0649210751200849));
#1759=CARTESIAN_POINT('',(-0.0036719030412442,0.0825913345829887,0.0359654376376843));
#1760=CARTESIAN_POINT('',(-0.0036719030412442,0.0825916851997564,0.0232654376425232));
#1761=CARTESIAN_POINT('',(-0.0100219030412445,0.0825916382260164,0.0249669150138125));
#1762=CARTESIAN_POINT('',(-0.053681841433156,0.0825909423186206,0.050173992187579));
#1763=CARTESIAN_POINT('',(-0.0100219030412445,0.0825916382260164,0.0249669150138125));
#1764=CARTESIAN_POINT('',(-0.0100219030412445,0.0825916382260164,0.0249669150138125));
#1765=CARTESIAN_POINT('',(-0.0036719030412442,0.0825913345829887,0.0359654376376843));
#1766=CARTESIAN_POINT('',(-0.0036719030412442,0.0825916851997564,0.0232654376425232));
#1767=CARTESIAN_POINT('',(-0.0036719030412442,0.0825913345829887,0.0359654376376843));
#1768=CARTESIAN_POINT('',(-0.0036719030412442,0.0825916851997564,0.0232654376425232));
#1769=CARTESIAN_POINT('',(-0.22058469695874,0.0825916851997558,0.0232654376425228));
#1770=CARTESIAN_POINT('',(0.,-0.0380582806282551,0.0232621067841722));
#1771=CARTESIAN_POINT('',(0.,4.25602898256223E-5,0.0232631586576914));
#1772=CARTESIAN_POINT('',(-0.144384696958757,0.0825913345829884,0.035965437637684));
#1773=CARTESIAN_POINT('',(-0.138034696958756,0.0825916382260161,0.0249669150138136));
#1774=CARTESIAN_POINT('',(-0.144384696958784,0.082591685199756,0.023265437642523));
#1775=CARTESIAN_POINT('',(-0.138034696958756,0.0825916382260164,0.0249669150138125));
#1776=CARTESIAN_POINT('',(-0.138034696958756,0.0825916382260161,0.0249669150138136));
#1777=CARTESIAN_POINT('',(-0.138034696958756,0.0825916382260161,0.0249669150138136));
#1778=CARTESIAN_POINT('',(-0.144384696958757,0.0825913345829884,0.035965437637684));
#1779=CARTESIAN_POINT('',(-0.144384696958784,0.082591685199756,0.023265437642523));
#1780=CARTESIAN_POINT('',(-0.144384696958757,0.0825913345829884,0.035965437637684));
#1781=CARTESIAN_POINT('',(-0.144384696958784,0.082591685199756,0.023265437642523));
#1782=CARTESIAN_POINT('',(-0.22058469695874,0.0825916851997558,0.0232654376425228));
#1783=CARTESIAN_POINT('',(-0.1480566,0.0185087678547886,0.0232636684657237));
#1784=CARTESIAN_POINT('',(-0.1480566,-0.0335623813999213,0.0232622309052477));
#1785=CARTESIAN_POINT('',(0.,-0.0380594307407714,0.0649213492944558));
#1786=CARTESIAN_POINT('',(-8.88178419700126E-16,-0.038057638387854,-1.05068080800963E-6));
#1787=CARTESIAN_POINT('',(0.,4.14101773093603E-5,0.0649224011679719));
#1788=CARTESIAN_POINT('',(8.88178419700126E-16,4.32025302401555E-5,1.19271058790705E-9));
#1789=CARTESIAN_POINT('',(-0.1480566,0.0185076177422724,0.0649229109760022));
#1790=CARTESIAN_POINT('',(-0.1480566,0.0185094100952006,5.11000742190945E-7));
#1791=CARTESIAN_POINT('',(-0.1480566,-0.0335635315124376,0.0649214734155304));
#1792=CARTESIAN_POINT('',(-0.1480566,-0.0335617391595062,-9.26559733556431E-7));
#1793=CARTESIAN_POINT('',(-0.148056600000016,0.0184662075649708,5.09808022962008E-7));
#1794=MECHANICAL_DESIGN_GEOMETRIC_PRESENTATION_REPRESENTATION('',(#1031),
#1795);
#1795=(
GEOMETRIC_REPRESENTATION_CONTEXT(3)
GLOBAL_UNCERTAINTY_ASSIGNED_CONTEXT((#1796))
GLOBAL_UNIT_ASSIGNED_CONTEXT((#1799,#1798,#1797))
REPRESENTATION_CONTEXT('a279837B8p1l','TOP_LEVEL_ASSEMBLY_PART')
);
#1796=UNCERTAINTY_MEASURE_WITH_UNIT(LENGTH_MEASURE(2.E-5),#1799,
'DISTANCE_ACCURACY_VALUE','Maximum Tolerance applied to model');
#1797=(
NAMED_UNIT(*)
SI_UNIT($,.STERADIAN.)
SOLID_ANGLE_UNIT()
);
#1798=(
NAMED_UNIT(*)
PLANE_ANGLE_UNIT()
SI_UNIT($,.RADIAN.)
);
#1799=(
LENGTH_UNIT()
NAMED_UNIT(*)
SI_UNIT($,.METRE.)
);
#1800=PRODUCT_DEFINITION_SHAPE('','',#1801);
#1801=PRODUCT_DEFINITION('','',#1803,#1802);
#1802=PRODUCT_DEFINITION_CONTEXT('',#1809,'design');
#1803=PRODUCT_DEFINITION_FORMATION_WITH_SPECIFIED_SOURCE('','',#1805,
 .NOT_KNOWN.);
#1804=PRODUCT_RELATED_PRODUCT_CATEGORY('','',(#1805));
#1805=PRODUCT('a279837B8p1l','a279837B8p1l','a279837B8p1l',(#1807));
#1806=PRODUCT_CATEGORY('','');
#1807=PRODUCT_CONTEXT('',#1809,'mechanical');
#1808=APPLICATION_PROTOCOL_DEFINITION('international standard',
'ap242_managed_model_based_3d_engineering',2011,#1809);
#1809=APPLICATION_CONTEXT('managed model based 3d engineering');
ENDSEC;
END-ISO-10303-21;
